<svg xmlns="http://www.w3.org/2000/svg" width="379" height="376">
  <path d="M312 296c4.783 2.583 8.868 5.603 10.64 10.922.44 2.168.635 3.88.36 6.078-2.312 3-2.312 3-5 5h-2l5 7-3 3c-3.466-1.487-5.69-3.457-8.328-6.133l-2.422-2.441-2.5-2.551-2.547-2.574A2086 2086 0 0 1 296 308c.813-1.937.813-1.937 2-4l3-1a201 201 0 0 0 3-6c2.866-1.433 4.813-1.306 8-1m-5 6-2 2c.097 3.575 1.026 5.033 3.25 7.875 2.544 2.45 2.544 2.45 5.563 1.938L316 313c.755-1.807.755-1.807 1-4-1.03-2.001-1.03-2.001-2.687-3.75l-1.575-1.86c-1.888-1.806-1.888-1.806-5.738-1.39M54 273c2.938 2.125 2.938 2.125 5 5 .313 3.313.313 3.313 0 6l3-1c0 4 0 4-1.374 5.492l-1.915 1.383-2.106 1.547-2.23 1.578-2.16 1.578A311 311 0 0 1 40 303c-1.937-.812-1.937-.812-4-2l-1-3 6-4-2.5-2.062C36 289 36 289 35.375 285.563c.799-4.552 2.304-6.387 5.625-9.563 4.375-2.853 7.8-3.756 13-3m-12 11c-.504 2.713-.504 2.713 0 5 2.654 1.044 2.654 1.044 6 1 2.632-1.707 4.81-3.764 7-6l-2-5c-5.152-.758-7.522 1.36-11 5m220 44h3l12 27c-4 3-4 3-6 3l-3-7-2.062 2.063C263 355 263 355 259.5 355.125c-5.23-1.681-7.32-4.877-9.812-9.625-1.046-3.803-1.225-7.013.125-10.75C251 333 251 333 254 331a98 98 0 0 1 7 0zm-7 9c.294 5.662.294 5.662 2.813 10.563 2.058 1.675 2.058 1.675 4.375 1.25 1.793-.675 1.793-.675 2.812-1.813-.303-5.244-1.259-8.259-5-12-2.324-.185-2.324-.185-5 2M34.125 112.762c3.753 1.745 7.093 3.34 8.875 7.238.503 3.397.755 5.803-1.125 8.785-1.22 1.467-2.542 2.849-3.875 4.215l1 2-2 2a1138 1138 0 0 1-11.053-4.48 460 460 0 0 0-3.763-1.519 479 479 0 0 1-5.399-2.204l-3.285-1.333C11 126 11 126 10.076 123.95 10 122 10 122 11 120c5.75.875 5.75.875 8 2l.75-3.312C21 115 21 115 22.688 113.062c3.931-1.806 7.36-1.762 11.437-.3M24 120c-.148 2.517-.148 2.517 1 5 3.644 2.402 6.63 3.607 11 3l2-2c.133-1.984.133-1.984-1-4-2.914-2.384-4.99-3.862-8.75-4.375-2.446.184-2.446.184-4.25 2.375m316 124c9.483 4.068 18.83 8.259 28 13l-2 5-8-2-.25 2.813C357 266 357 266 355.438 267.875c-3.489 1.61-6.703 1.659-10.438 1.125-4.147-1.595-7.272-3.463-10-7-1.166-3.652-1.317-5.287.25-8.812C337 251 337 251 340 250l-.562-2.437L339 245zm1 9c-1.234 1.046-1.234 1.046-1.437 3.313.19 2.962.19 2.962 3.062 5 3.538 1.768 5.487 2.14 9.375 1.687 1.252-1.049 1.252-1.049 1.313-3.375-.072-2.672-.072-2.672-1.813-4.375-3.542-1.771-6.546-1.99-10.5-2.25M116 16c3 1 3 1 4.366 3.253 1.474 3.181 2.943 6.363 4.384 9.56l1.574 3.353 1.473 3.229 1.354 2.964c.896 2.788 1.106 4.008-.151 6.641-2.937 1.125-2.937 1.125-6 2l-2 2c-4.99.748-4.99.748-8 0-3.456-2.768-5.605-5.816-7-10-.683-7.063-.683-7.063 2.188-11 3.007-2.139 4.224-2.513 7.812-2l-1.562-2.812C113 20 113 20 114 17zm-1 14-3 2c.294 5.662.294 5.662 2.813 10.563 2.069 1.692 2.069 1.692 4.437 1.187L121 43c1.09-3.369 1.07-4.81-.187-8.187-1.809-2.807-2.72-3.747-5.813-4.813m19 298 6 2-2 8 2.688-.312C144 338 144 338 146.875 340c2.22 3.134 2.802 5.033 2.555 8.871-1.047 5.184-3.02 9.19-7.43 12.129-4.223.47-6.227.575-9.687-2L130 357h-4c.641-6.441 2.547-12.305 4.563-18.437l.998-3.084A1959 1959 0 0 1 134 328m2.438 15.063c-2.078 2.8-2.713 5.554-3.438 8.937l1 3 5 1c2.406-3.158 3.915-5.261 4.375-9.25-.112-2.89-.112-2.89-2.375-4.75-2.901-.281-2.901-.281-4.562 1.063M197 2l6 1v8l1-1c6.23-.588 6.23-.588 9.375 1.813 3.016 4.06 3.144 8.296 2.625 13.187-1.543 4.088-3.048 6.968-7 9-4.66.595-7.195-.314-11-3v2h-3c-.375-10.447.787-20.645 2-31m5.25 14.563c-1.698 3.31-1.584 5.764-1.25 9.437l2 3c2.445-.188 2.445-.188 5-1 2.412-3.101 2.325-6.185 2-10l-2-3c-3.894-.444-3.894-.444-5.75 1.563M350 187c3.333-.03 6.667-.047 10-.062l2.832-.026c5.49-.02 10.737.275 16.168 1.088v6h-7l1 1c.69 7.014.69 7.014-1.75 10.5-5.044 2.328-9.794 2.208-15.25 1.5-3.687-1.5-3.687-1.5-6-4-.99-2.727-1.274-5.113-1-8 1.438-3 1.438-3 3-5h-2zm4 8c.165 2.575.165 2.575 1 5 2.366 1.183 3.868 1.134 6.5 1.125l2.406.008c2.153 0 2.153 0 4.094-1.133.167-2.416.167-2.416 0-5-1.806-2.22-1.806-2.22-4.312-2.266l-2.688.016-2.687-.016c-2.507.045-2.507.045-4.313 2.266M313 63c3.776-.36 5.77-.117 9.188 1.625 3.152 2.662 4.555 4.447 5.812 8.375-.427 4.914-2.967 7.07-6.5 10.188l-2.406 1.98C316.805 87.01 316.805 87.01 315 90c-3.875-1.75-3.875-1.75-5-4l1-2-2.25-.187c-3.732-1.103-4.846-2.445-6.75-5.813.21-6.21.21-6.21 3-9 6.744-.787 6.744-.787 9.79 1.121 1.44 1.252 2.828 2.563 4.21 3.879h2c.043-1.931.043-1.931-1-4-3.488-1.793-3.488-1.793-7-3zm-4 11c-.772 1.837-.772 1.837-1 4 1.02 1.937 1.02 1.937 3 3 2.655-.23 2.655-.23 5-1v-4c-2.954-2.37-2.954-2.37-7-2m51.313 52.625c2.627 2.141 3.548 4.199 4.687 7.375 0 4.455-.507 6.387-3.312 9.875-2.526 1.997-3.667 2.52-6.688 3.125a958 958 0 0 1-2-5.312l-1.125-2.989C351 136 351 136 351 133l-4 1v6l1.938.625C351 142 351 142 351.75 145.125L352 148c-3.273-.298-5.535-.698-8.312-2.5-2.473-3.662-2.876-7.124-2.688-11.5 1.315-3.559 2.551-4.697 5.688-6.812 4.705-1.687 8.717-1.89 13.625-.563M354 131l3 9 3-2c.5-2.5.5-2.5 0-5-2.815-2.277-2.815-2.277-6-2M35 252c4.47.175 6.52.58 9.938 3.563 2.802 3.86 2.728 6.776 2.062 11.437-2.178 3.578-4.169 5.42-8 7-5.05.78-8.803.83-13.062-2.125C23.764 268.649 23 266.887 23 263c1.516-4.07 3.097-6.927 7-9 3.969 1.323 4.3 2.911 6.188 6.563l1.605 3.066L39 266h2c.417-2.874.417-2.874 0-6a99 99 0 0 0-5-3c-.812-2.687-.812-2.687-1-5m-5 9-2 2c.32 2.603.32 2.603 1 5l5 1c-1.27-4.415-1.27-4.415-4-8M301 46c2.753 1.796 4.526 3.053 6 6 .355 5.416.367 8.51-3 13l-6.64-4.395A143 143 0 0 1 291 56c-.043 2-.04 4 0 6 1.172 1.385 1.172 1.385 4.438 1.313 3.562.687 3.562.687 5 2.75L301 68c-3.202 1.6-6.526 1.5-10 1-2.81-1.794-4.51-3.019-6-6-.643-3.996-.85-7.545 1.234-11.113C290.611 46.654 294.04 45.4 301 46m-6 5c1.453 3.83 3.429 5.12 7 7 .167-2.416.167-2.416 0-5-1.839-2.287-1.839-2.287-4.625-2.125zm-59-36c2.736 1.71 3.714 2.843 4.488 5.973.816 5.418.816 5.418-.488 8.027-5.239-.551-9.974-1.43-15-3l2 6c2.722.078 5.024-.005 7.688-.625L237 31l2 2c-3.75 3.875-3.75 3.875-6 5-4.2.04-7.873-.324-11.5-2.5-2.25-3.75-2.806-7.149-2.5-11.5 1.157-3.795 2.485-7 5.863-9.23 3.775-1.36 7.306-.72 11.137.23m-6 3-4 4 9 2c-.51-4.034-.51-4.034-3.062-5.25zM45 90c2.438 1 2.438 1 4 2-1.323 4.632-3.297 8.036-6 12v2l5-1c.773-2.982 1.412-5.976 2-9l3-1c2.306 3.255 2.234 6.155 1.59 10.027-1.051 3.515-2.571 4.96-5.59 6.973-4.71.98-8.084.458-12.375-1.687-3.185-2.807-5.414-4.843-5.79-9.235.206-4.193.951-5.834 3.79-9.078 3.909-2.316 5.907-2.58 10.375-2m-9 7c-.25 2.584-.25 2.584 0 5h3c2.357-2.532 3-3.472 3-7-3.185-.277-3.185-.277-6 2m204 242c3.479 2.007 5.706 4.119 7 8 .595 5.015.814 8.753-2 13.063-4.011 2.59-6.212 2.937-11 2.937-3.727-1.408-4.776-2.62-6.812-6.062C226 354 226 354 226 352l14-4-2-3c-2.584-.25-2.584-.25-5 0l-2 4h-5c.61-5.485.61-5.485 2.375-7.812 3.637-2.659 7.289-2.629 11.625-2.188m-7 16 2 3c2.584.25 2.584.25 5 0l2-5c-3.796 0-5.629.502-9 2m128-144c4.075 1.538 7.059 3.01 9 7 .532 4.788.725 6.864-1.875 10.938-4.113 3.991-7.6 3.14-13.125 3.062l3-15-5 1c-.685 2.858-.685 2.858-1 6l2 3-2 4c-3.488-2.236-4.828-3.37-5.937-7.437-.088-4.962.714-7.232 4.062-10.875 3.685-2.163 6.75-2.36 10.875-1.688m1 7-2 9 4-1c1.297-2.49 1.297-2.49 2-5zM91.75 314.625c4.352.095 6.884 1.584 10.25 4.375 1.607 3.215 1.474 6.513 1 10-2.012 3.808-4.097 7.048-8 9-4.556.588-7.647.701-11.5-1.937-2.962-3.629-3.094-5.36-2.906-9.88.437-2.352 1.238-4.105 2.406-6.183 3.623 1.326 6.635 2.943 9.813 5.125l2.394 1.633L97 328v-7l-3.812.25c-2.208.016-2.208.016-4.188-.25-2-2-2-2-3-4 2-2 2-2 5.75-2.375M86 327v5l5 2 3-3c-3.67-2.912-3.67-2.912-8-4m24-1c2.438.375 2.438.375 5 1l1 2 2.875.438c3.125.562 3.125.562 5 1.687 1.798 2.996 1.384 5.431 1.125 8.875-.92 2.623-2.166 5.004-3.5 7.438l-1.012 1.927A390 390 0 0 1 118 354l-6-2 1.059-2.45 1.379-3.238 1.37-3.199c1.046-2.733 1.727-5.233 2.192-8.113h-5l-7 13-5-1c.529-5.39 2.463-9.242 5.063-13.875l1.142-2.086A759 759 0 0 1 110 326M97 35c2.29 2.48 3.993 5.413 5.813 8.25.527.777 1.055 1.555 1.6 2.355.488.755.978 1.509 1.482 2.286l1.37 2.094C108 52 108 52 107.245 54.23 106 56 106 56 104.187 56.438c-2.498.436-2.498.436-4.624 3.124C97 62 97 62 94.559 62.373c-4.051-.588-5.362-3.014-7.844-6.067C80 47.28 80 47.28 80 44c3-2 3-2 6-2 1.824 2.336 1.824 2.336 3.688 5.375l1.886 3.023C93 53 93 53 93 55h4c.829-2.223.829-2.223 1-5-1.395-2.911-1.395-2.911-3.437-5.687C91 39.16 91 39.16 91 37c3-2 3-2 6-2m59-21c3.062 1.798 4.567 3.238 6.313 6.313 1.143 4.468 1.325 8.129-.438 12.437-2.412 2.894-4.312 4.016-7.875 5.25-4.676.082-6.4-.452-9.875-3.625C141.747 30.598 141 28.451 141 24c1.126-3.555 2.237-6.124 4.688-8.937 3.43-1.577 6.65-1.718 10.312-1.063m-8 6c-1.342 3.511-.965 5.111.188 8.75 1.458 3.28 1.458 3.28 3.812 4.375 2.055.027 2.055.027 3.75-1.187 1.81-2.807 1.644-4.653 1.25-7.938-1.1-2.892-1.1-2.892-3-5-3.776-.298-3.776-.298-6 1M24 198c3.006 1.285 3.81 2.316 6 5 1.11 3.098 1.453 5.736 1 9-1.86 3.623-4.085 5.695-8 7-4.3.419-7.93.455-11.937-1.25-3.403-2.887-3.954-4.75-4.438-9.187.441-4.19 1.386-5.657 4.375-8.563 4.25-2.525 8.167-2.786 13-2m-12 9c.379 3.29.379 3.29 2 6 5.536.483 5.536.483 10.5-1.5L26 210c-.344-2.473-.344-2.473-1-5-4.707-2.353-9.28-1.572-13 2m322.785 61.543c4.555.94 7.27 3.26 10.09 6.832 1.363 3.18 1.554 5.193 1.125 8.625-1.261 2.774-2.31 4.483-4.75 6.313-3.862 1.18-7.384 1.45-11.187-.106-3.205-1.742-5.024-3.149-7.063-6.207-.815-4.504-.716-8.719 1.938-12.562 3.588-2.857 5.382-3.215 9.847-2.895M328 276c-.667 2.413-.667 2.413 0 5 2.981 3.066 5.658 4.886 10 5 1.98-1.063 1.98-1.063 3-3-.09-2.815-.99-3.986-2.75-6.187-3.857-3.108-6.093-3.584-10.25-.813m-122 69c1.875 1.063 1.875 1.063 3 3 1.561 6.529 1.09 13.327 1 20h-6l-.184-3.21-.254-4.165-.119-2.117c-.186-3.882-.186-3.882-1.443-7.508l-4 1c-1.129 5.361-1.097 10.553-1 16l-6 1-1-23h7c3.05-1.525 5.642-1.236 9-1M7 174c3.292-.029 6.583-.047 9.875-.062l2.84-.026 2.715-.01 2.507-.016C27 174 27 174 29 175v7q.143 3.014.293 6.027c-.39 2.627-1.223 3.344-3.293 4.973-2.177.34-2.177.34-4.668.293l-2.705-.03-2.814-.076-2.85-.04A612 612 0 0 1 6 193v-6h18l-1-5c-3.042-1.521-6.28-1.374-9.625-1.562l-2.14-.131Q8.617 180.149 6 180zm159 170h5v18l5-1c1.466-2.931 1.62-5.886 2.063-9.125l.535-3.883L179 345h6l-2 23h-5l-1-2-1.625 1.063c-3.159 1.246-5.128.784-8.375-.063-2.726-2.726-2.85-5.296-3-9 .22-4.796.477-9.43 2-14M62.563 62.938 66 63c-.687 2.375-.687 2.375-2 5a78 78 0 0 1-5 2l-1 3 1.977-1.129C67.128 68 67.128 68 71.5 68c2.5 1 2.5 1 4.5 4 .437 3.306.71 5.814-1.05 8.754C73.164 82.938 71.541 84.729 69 86c-2.333.04-4.667.043-7 0 .688-2.375.688-2.375 2-5a125 125 0 0 1 5-2c1.172-2.005 1.172-2.005 2-4l-2.23 1.164-2.957 1.461-2.918 1.477C60 80 60 80 57.262 79.273 55 78 55 78 53 76c-.437-3.312-.437-3.312 0-7 2.438-2.875 2.438-2.875 5-5 1-1 1-1 4.563-1.062M10 225c27.103-.37 27.103-.37 32 3 1.25 3.125 1.25 3.125 2 6l-5 1-1-4c-5.366.41-8.925 3.499-13.125 6.563a572 572 0 0 1-4.258 3.066l-1.887 1.377C17 243 17 243 14 243l-1-5 9-7-11-2zM270.813 27.375C273 29 273 29 274 31c.04 2.333.043 4.667 0 7-2.375-.187-2.375-.187-5-1-1.312-2.562-1.312-2.562-2-5-1.915.122-1.915.122-4 1-1.935 2.197-1.935 2.197-3 5 .213 2.742.213 2.742 1 5l3.313-.687C268 42 268 42 269.938 43.437L271 45c-1.5 2-1.5 2-4 4-4.81.61-6.843.739-10.937-1.875-3.053-3.145-3.053-3.145-3.083-6.078.482-5.348 1.426-8.837 5.02-13.047 4.062-2.98 8.39-2.788 12.813-.625M349 102l3 3c-.293 4.732-3.981 7.66-7 11h12l2 4q-4.592.758-9.187 1.5l-2.62.434c-4.098.66-8.025 1.273-12.193 1.066l-2-5zm-16-24c1.338.312 2.671.648 4 1 2.681-.386 2.681-.386 5-1 .688 1.813.688 1.813 1 4l-3 3c.228 2.163.228 2.163 1 4l-4 2-1-3c-1.51.9-3.008 1.82-4.5 2.75l-2.531 1.547L327 94v4l-1 3-3 1c-2.062-1.562-2.062-1.562-4-4-.312-3.312-.312-3.312 1-7 7.027-7 7.027-7 11-7l-1-4zM67 47l1.813 1c2.24 1.208 2.24 1.208 5.187 1 1.34.306 2.675.635 4 1v7c1.055 1.747 1.055 1.747 2.5 3.25L83 63l2.375-.625L88 62l2 2c-.367 2.935-.864 3.864-3 6-2.812.438-2.812.438-6 0-2.818-2.348-4.846-4.788-7-7.75-2.312-2.601-3.593-2.966-7-3.25l-1-3 1-2c-.894-2.61-.894-2.61-2-5zm248 238c4.97 1.525 8.198 4.487 12 7.875l3.625 3.18 1.73 1.522c2.165 1.873 4.393 3.657 6.645 5.423-.312 1.938-.312 1.938-1 4l-3 1c-2.312-1.555-2.312-1.555-5-3.875l-2.926-2.488-1.522-1.311c-2.544-2.173-5.144-4.276-7.74-6.389L313 290zM281 34l5 2v2l6 1c-.506 2.169-1 4-2 6l-2.75-.25c-3.25-.038-3.25-.038-5.375 1.813C279.56 49.572 277.8 52.657 276 56c-2.437-.375-2.437-.375-5-1l-1-2c.896-1.971.896-1.971 2.309-4.352l1.513-2.578 1.615-2.695 1.604-2.719Q279.01 37.322 281 34m63 59c3 4 3 4 3 6-1.513 1.237-1.513 1.237-3.613 2.602l-2.283 1.484-2.416 1.539-2.381 1.563C330.38 110 330.38 110 327 110l-2-5zM133 18c2.123 2.123 2.587 3.269 3.508 6.063l.8 2.414.817 2.523.84 2.523C141 37.72 141 37.72 141 40l-6 1a966 966 0 0 1-3.062-8.75l-.893-2.5-.83-2.422-.778-2.222c-.506-2.44-.413-3.814.563-6.106zm22 324 6 1-4 22h-6c.675-7.825 2.269-15.346 4-23m135-20 3 3c-1.355 4.065-3.308 4.973-7 7-2.375-.25-2.375-.25-4-1v-4c1.75-1.484 1.75-1.484 4-2.75l2.25-1.297zM176 19h12v5h-12zM65 303c3.817 1.555 6.192 4.036 9 7l-2 4c-3.817-1.555-6.192-4.036-9-7zM20 147l5 1-2 11h-5q.214-2.157.438-4.312c.08-.801.162-1.602.246-2.426C19 150 19 150 20 147m337 13h5l1 11-5 1zm-7-71 4 4a91 91 0 0 1-4 4h-2l-2-5zM150 366l6 1-1 6-6-1zM132 11l1 6-5 1-2-6c3-1 3-1 6-1" fill="#FFF"/>
</svg>
