<svg xmlns="http://www.w3.org/2000/svg" width="122" height="36" viewBox="0 0 122 36"><path d="m9.615 3.95.55-.002q.756-.002 1.512.001.822.001 1.645-.001 1.442-.002 2.883 0 2.043.002 4.087 0a5666 5666 0 0 1 7.635-.001h.222l7.149.001h1.803l5.041-.001h.232l7.314.001h.24l3.852.001q7.639.003 15.279 0l3.85-.002h.24l7.307-.001h.232l7.285.001q3.349.001 6.699-.001h.443q3.696-.002 7.392.001 2.131.002 4.262 0 1.423-.001 2.846.001h1.622q.738-.002 1.476.001.265.001.53-.001c1.604-.009 2.978.297 4.181 1.427 1.25 1.33 1.435 2.809 1.427 4.551l.002.577q.002.778 0 1.558-.001.818.001 1.635.001 1.373-.002 2.746-.003 1.584.001 3.168.003 1.364.001 2.727l.001 1.625q.002.764-.002 1.529-.001.279.001.559c.007 1.641-.263 3.036-1.428 4.276-1.288 1.21-2.742 1.435-4.44 1.425l-.55.002q-.756.003-1.512-.001-.823-.001-1.645.001-1.442.002-2.883 0-2.043-.002-4.087 0-3.707.003-7.414.001h-.444l-7.149-.001h-1.803l-5.041.001h-.232l-7.314-.001h-.24l-3.852-.001q-7.639-.003-15.279 0l-3.85.002h-.241l-7.307.001h-.232l-7.285-.001-7.142.001q-3.696.002-7.392-.001a2257 2257 0 0 0-4.262 0q-1.423.001-2.846-.001h-1.622q-.738.002-1.476-.001l-.53.001c-1.604.009-2.978-.297-4.181-1.427-1.25-1.33-1.435-2.809-1.427-4.551l-.002-.577q-.002-.778 0-1.558.001-.817-.001-1.635-.001-1.373.002-2.746.002-1.584-.001-3.168-.003-1.364-.001-2.727.002-.813-.001-1.625-.002-.764.002-1.529.001-.279-.001-.559c-.005-1.64.265-3.035 1.43-4.276 1.288-1.21 2.742-1.435 4.44-1.425" fill="#F89E38"/><path d="M11 9.1h3.1l.1 5.4.8-.7c.316-.193.316-.193.606-.331l.291-.143c1.373-.572 3.124-.484 4.5.05 1.669.699 2.809 1.834 3.563 3.47.813 2.028.691 3.982-.095 6-.707 1.53-1.924 2.635-3.489 3.239-1.426.505-3.185.527-4.575-.087-.687-.34-1.24-.781-1.8-1.3l-.1 1.4h-2.9z" fill="#FEFCFB"/><path d="M88.2 9.1h3.1v17h-2.8l-.1-1.5-.338.363c-1.067 1.058-2.33 1.473-3.813 1.488-.839-.008-1.573-.117-2.35-.45l-.266-.11c-1.384-.63-2.638-1.848-3.207-3.271-.716-1.933-.782-3.867.023-5.777.823-1.766 2.122-2.963 3.951-3.643 1.613-.484 3.324-.277 4.806.5.37.21.655.429.994.7z" fill="#FEFDFC"/><path d="m107.5 13.4.297.107c1.723.66 3.043 1.918 3.803 3.593.606 1.363.807 3.094.316 4.527l-.116.273-.075.181c-.778 1.828-2.083 3.14-3.925 3.919-1.614.648-3.489.613-5.085-.059-.962-.43-1.687-.985-2.415-1.741l-.182-.177c-1.232-1.28-1.574-3.157-1.545-4.859.078-1.873 1.127-3.341 2.449-4.57 1.731-1.448 4.343-2.024 6.479-1.194" fill="#FEFCFC"/><path d="m35.1 13.6.278.106c1.493.645 2.616 2.132 3.222 3.594.437 1.164.514 2.366.4 3.6l-.1.2-9.8.1c.544 1.088.828 1.653 1.9 2.1 1.002.33 2.157.362 3.141-.055.278-.156.423-.319.631-.558.654-.596 1.458-.474 2.284-.438l.479.011q.583.014 1.165.039c-.487 1.499-1.516 2.654-2.9 3.4-1.878.801-3.859 1.035-5.8.3-1.991-.824-3.2-2.138-4.026-4.098-.571-1.574-.396-3.502.278-5.014.873-1.7 2.196-2.778 3.948-3.487l.25-.104c1.496-.513 3.218-.285 4.65.304" fill="#FEFDFC"/><path d="M64.6 13.4h3.1l.006.65q.01 1.069.023 2.139.008.648.013 1.295l.014 1.253q.003.237.004.475c-.012 1.99-.012 1.99.74 3.789.524.495 1.092.529 1.78.521.716-.047 1.344-.234 1.873-.734.573-.73.66-1.657.667-2.553l.003-.225.008-.73.006-.509.015-1.335.016-1.363.031-2.672h3.1v12.7h-2.8l-.1-1.1-.35.325c-.929.81-2.012 1.132-3.231 1.119l-.294-.002c-1.224-.028-2.212-.385-3.119-1.219-1.448-1.523-1.539-3.79-1.526-5.768l.001-.526q.001-.687.005-1.373l.004-1.406z" fill="#FEFCFB"/><path d="M53.731 13.781c.649.528 1.158 1.034 1.469 1.819l.125.306c.075.294.075.294.075.994h-3l-.4-.7c-.406-.271-.724-.275-1.2-.2-.312.125-.38.217-.6.5-.048.339-.036.66 0 1 .776.419 1.59.677 2.427.947 1.065.355 2.193.84 2.789 1.85.277.587.351 1.089.34 1.735l-.004.28c-.041 1.279-.528 2.114-1.452 2.988a5 5 0 0 1-1.3.8l-.211.092c-1.111.407-2.491.344-3.593-.054-1.194-.557-1.931-1.437-2.425-2.643-.18-.496-.171-.848-.171-1.396h3.1l.4.9c.421.401.698.531 1.284.521.459-.046.805-.196 1.11-.54.136-.361.215-.704.106-1.081-.427-.598-1.093-.756-1.763-.994-1.452-.521-2.887-1.06-3.647-2.485-.355-.862-.322-1.99.003-2.852.478-.997 1.219-1.69 2.206-2.169l.2-.103c1.36-.577 2.901-.189 4.131.484" fill="#FEFDFC"/><path d="M58.2 9.1h3.1v4.3h1.8v2.8h-1.8v9.9h-3.1v-9.9h-1.5v-2.8h1.5z" fill="#FEFCFB"/><path d="M19.965 16.508c.734.598 1.238 1.469 1.436 2.392.119 1.257-.074 2.48-.853 3.501-.782.852-1.847 1.192-2.972 1.243a3.93 3.93 0 0 1-2.675-1.144c-.705-.864-.952-1.689-.944-2.788l-.006-.282c.001-1.081.399-1.958 1.15-2.731 1.432-1.199 3.311-1.192 4.865-.192m67.011.017c.781.645 1.316 1.479 1.525 2.475.087 1.283-.18 2.366-.96 3.415-.665.72-1.611 1.118-2.577 1.207-1.022.038-1.875-.274-2.663-.922-.71-.664-1.25-1.512-1.3-2.5l-.015-.297c-.035-1.192.207-2.102 1.015-3.003 1.469-1.307 3.338-1.564 4.975-.375m20.739.243c.658.603 1.244 1.519 1.307 2.429.015 1.152-.138 2.061-.82 3.003l-.169.263c-.714.733-1.716 1.137-2.731 1.175-1.045-.042-1.825-.442-2.6-1.137-.796-.887-1.071-2.006-1.032-3.175.088-.903.487-1.794 1.143-2.43 1.524-1.23 3.329-1.368 4.903-.127" fill="#F89E39"/><path d="M93.6 13.4h3.1v12.7h-3.1z" fill="#FEFCFB"/><path d="M34.9 16.6c.437.398.786.845 1 1.4v.4h-7c.425-1.134.904-1.772 2-2.3 1.254-.53 2.885-.232 4 .5" fill="#F89E3A"/><path d="M93.6 8.4h3.1v3.1h-3.1zM41.3 23.1h3.1v3h-3.1z" fill="#FEFBF8"/></svg>