<?xml version="1.0" encoding="UTF-8"?>
<svg version="1.1" xmlns="http://www.w3.org/2000/svg" width="393" height="373">
<path d="M0 0 C0.07013345 10.21562929 0.12312783 20.43119942 0.15543652 30.64702225 C0.17095877 35.39286169 0.19194462 40.13853403 0.22631836 44.88427734 C0.25939984 49.48143863 0.27695341 54.07844127 0.28463173 58.67571259 C0.29008923 60.4120101 0.30073975 62.14830095 0.31719017 63.88452911 C0.588198 93.72977556 -5.69658874 121.5016199 -25 145 C-25.68707031 145.85207031 -26.37414062 146.70414063 -27.08203125 147.58203125 C-39.19226365 161.84918816 -55.4504732 171.46220926 -72.0625 179.625 C-72.76479736 179.98037842 -73.46709473 180.33575684 -74.19067383 180.7019043 C-78.55299888 182.7674964 -81.22271157 183.49290264 -86 182 C-89.04596705 180.81679749 -91.99158319 179.47519493 -94.9375 178.0625 C-95.77434326 177.66135986 -96.61118652 177.26021973 -97.47338867 176.84692383 C-125.29148402 163.17478923 -147.20144134 141.50184635 -157.74536133 112.07055664 C-162.08773341 99.28216059 -164.18042961 86.03516909 -164.11352539 72.54272461 C-164.11367142 71.75137115 -164.11381744 70.9600177 -164.1139679 70.14468384 C-164.11327869 67.5638746 -164.10553343 64.98314017 -164.09765625 62.40234375 C-164.09578854 60.59916727 -164.0943663 58.79599028 -164.09336853 56.99281311 C-164.08957117 52.27302624 -164.07976496 47.55327069 -164.06866455 42.83349609 C-164.05839031 38.00684025 -164.05385808 33.18017928 -164.04882812 28.35351562 C-164.03813992 18.90233007 -164.02109732 9.45116765 -164 0 C-161.96682238 -0.6403972 -159.93239194 -1.27681749 -157.89746094 -1.91162109 C-156.19828522 -2.44388809 -156.19828522 -2.44388809 -154.46478271 -2.98690796 C-149.12299386 -4.54883095 -143.71861595 -5.61370328 -138.25 -6.625 C-137.11820313 -6.83737305 -135.98640625 -7.04974609 -134.8203125 -7.26855469 C-94.42753766 -14.68693161 -37.59383966 -18.79691983 0 0 Z M-159 4 C-159.11037513 6.2861347 -159.14916079 8.57573565 -159.16113281 10.86450195 C-159.16609772 11.58354706 -159.17106262 12.30259216 -159.17617798 13.04342651 C-159.19086867 15.44172106 -159.19762188 17.83994892 -159.203125 20.23828125 C-159.20888193 21.91529846 -159.21463959 23.59231568 -159.22039795 25.26933289 C-159.23093495 28.80447699 -159.23675626 32.33959825 -159.24023438 35.87475586 C-159.24458214 39.46600718 -159.25832055 43.05701325 -159.28125 46.64819336 C-159.52574077 85.68694168 -156.592952 119.977664 -128.625 149.75 C-119.40826456 158.42201113 -109.11652559 165.14054661 -97.93701172 170.98046875 C-96.07785881 171.95901961 -94.24501314 172.97684181 -92.41015625 174 C-91.30542969 174.5775 -90.20070313 175.155 -89.0625 175.75 C-88.10472656 176.26046875 -87.14695312 176.7709375 -86.16015625 177.296875 C-78.75658327 178.94414711 -71.07657871 173.77475953 -64.6875 170.375 C-63.85790771 169.93406006 -63.02831543 169.49312012 -62.17358398 169.03881836 C-55.23817129 165.27187517 -49.04399339 161.10362667 -43 156 C-41.99582031 155.15824219 -40.99164063 154.31648437 -39.95703125 153.44921875 C-18.5148246 134.93942455 -7.12445839 109.10332229 -5 81 C-4.46515165 68.66002896 -4.69969172 56.2797204 -4.79400635 43.93243408 C-4.82511775 39.41984305 -4.83848595 34.90719942 -4.85351562 30.39453125 C-4.88534934 21.59621244 -4.93630881 12.79814572 -5 4 C-9.62855549 2.19270967 -14.0133234 0.62040408 -18.90625 -0.31640625 C-19.97182129 -0.52233398 -21.03739258 -0.72826172 -22.13525391 -0.94042969 C-23.24562012 -1.14571289 -24.35598633 -1.35099609 -25.5 -1.5625 C-27.2332251 -1.88782715 -27.2332251 -1.88782715 -29.00146484 -2.21972656 C-57.34656863 -7.44547097 -136.20067357 -18.79932643 -159 4 Z " fill="#E3E4E5" transform="translate(289,12)"/>
<path d="M0 0 C2.5 2.3125 2.5 2.3125 4 5 C4 7.89615157 3.21886843 8.76549811 1.25 10.875 C-1 12 -1 12 -3.625 11.375 C-6 10 -6 10 -8 7 C-9.04976964 10.14930893 -9.10131595 12.38814456 -9.0625 15.6875 C-9.041875 17.440625 -9.02125 19.19375 -9 21 C-3.72 21 1.56 21 7 21 C7.61875 18.215625 7.61875 18.215625 8.25 15.375 C9.67540448 9.7916184 10.89266408 5.21855643 15.7890625 1.72265625 C19.32989605 -0.3075128 21.61079631 -1 25.75 -1 C29.35320436 0.10867827 30.94491709 0.83174718 33 4 C33.0625 7.125 33.0625 7.125 32 10 C29.875 11.625 29.875 11.625 27 12 C24.40529634 10.92558855 22.35893964 9.57262642 20 8 C20.495 14.435 20.495 14.435 21 21 C35.02903187 21.14864015 35.02903187 21.14864015 49 20 C50.63945963 23.27891925 50.12030178 26.90613534 50.09765625 30.5078125 C50.0962413 31.34843231 50.09482635 32.18905212 50.09336853 33.05514526 C50.08776237 35.74513275 50.07520886 38.43503759 50.0625 41.125 C50.05748579 42.94661338 50.05292275 44.76822807 50.04882812 46.58984375 C50.03779094 51.05992777 50.0205222 55.52994986 50 60 C51.32 60.66 52.64 61.32 54 62 C54 63.32 54 64.64 54 66 C46.41 66 38.82 66 31 66 C31.33 64.35 31.66 62.7 32 61 C33.65 61 35.3 61 37 61 C37 50.11 37 39.22 37 28 C31.39 28 25.78 28 20 28 C20.33 38.56 20.66 49.12 21 60 C22.98 60.66 24.96 61.32 27 62 C27 63.32 27 64.64 27 66 C18.75 66 10.5 66 2 66 C2.33 64.35 2.66 62.7 3 61 C4.65 61 6.3 61 8 61 C8 50.11 8 39.22 8 28 C-0.415 28.495 -0.415 28.495 -9 29 C-9.02720502 32.47922037 -9.04693774 35.95822368 -9.0625 39.4375 C-9.07087891 40.41138672 -9.07925781 41.38527344 -9.08789062 42.38867188 C-9.10782078 48.34778969 -8.77609518 54.09067683 -8 60 C-6.02 60.66 -4.04 61.32 -2 62 C-2 63.32 -2 64.64 -2 66 C-10.25 66 -18.5 66 -27 66 C-26.67 64.35 -26.34 62.7 -26 61 C-24.02 60.505 -24.02 60.505 -22 60 C-21.67 49.44 -21.34 38.88 -21 28 C-23.31 28 -25.62 28 -28 28 C-28 26.35 -28 24.7 -28 23 C-27.0409375 22.79761719 -26.081875 22.59523438 -25.09375 22.38671875 C-24.0728125 21.92910156 -23.051875 21.47148437 -22 21 C-20.83880518 18.16280956 -20.83880518 18.16280956 -20.5 14.8125 C-19.35571159 8.76316243 -17.94083979 4.82011271 -13 1 C-8.45420656 -1.32125623 -4.90523111 -1.3625642 0 0 Z " fill="#EFF0F1" transform="translate(206,264)"/>
<path d="M0 0 C4.50830806 1.73396464 8.8774259 5.47668902 10.85620117 9.92456055 C12.17724052 12.32160548 13.42104852 13.30140444 15.66796875 14.83984375 C16.76141602 15.5987793 16.76141602 15.5987793 17.87695312 16.37304688 C18.63943359 16.88931641 19.40191406 17.40558594 20.1875 17.9375 C21.68107297 18.96732699 23.17456343 19.99727365 24.66796875 21.02734375 C25.39806152 21.51960449 26.1281543 22.01186523 26.88037109 22.51904297 C28.26597267 23.48714469 29.62083833 24.50121148 30.93603516 25.56298828 C32.90805231 27.20115686 32.90805231 27.20115686 36 29 C39.70147411 27.9660666 42.48836279 26.10167068 45.5390625 23.8125 C46.36664063 23.19632813 47.19421875 22.58015625 48.046875 21.9453125 C48.89765625 21.30335937 49.7484375 20.66140625 50.625 20 C52.32517209 18.72870015 54.02567874 17.45784756 55.7265625 16.1875 C56.47502441 15.62417969 57.22348633 15.06085937 57.99462891 14.48046875 C59.62953724 13.27349479 61.30913307 12.12724462 63 11 C63.433125 10.2575 63.86625 9.515 64.3125 8.75 C66.48236817 5.21391854 68.93645792 2.80281509 72 0 C72.66 0 73.32 0 74 0 C74 0.66 74 1.32 74 2 C75.32 2 76.64 2 78 2 C78.495 4.97 78.495 4.97 79 8 C77.65144233 8.80118392 76.29578257 9.59041608 74.9375 10.375 C74.18339844 10.81585938 73.42929688 11.25671875 72.65234375 11.7109375 C70 13 70 13 66.703125 13.796875 C61.96662594 15.33573756 58.69969318 17.8309445 54.8125 20.875 C54.11447266 21.40480469 53.41644531 21.93460938 52.69726562 22.48046875 C49.22745626 25.14142626 46.0589843 27.86558408 43 31 C44.0372522 30.94670532 44.0372522 30.94670532 45.09545898 30.89233398 C48.20922906 30.73534819 51.32332938 30.58631877 54.4375 30.4375 C55.52611328 30.38142578 56.61472656 30.32535156 57.73632812 30.26757812 C58.77080078 30.21923828 59.80527344 30.17089844 60.87109375 30.12109375 C61.82943115 30.0739624 62.78776855 30.02683105 63.77514648 29.97827148 C66 30 66 30 67 31 C67.08861992 33.8116338 67.11522355 36.59858255 67.09765625 39.41015625 C67.0962413 40.25219101 67.09482635 41.09422577 67.09336853 41.96177673 C67.08775263 44.66205335 67.07519748 47.36224828 67.0625 50.0625 C67.05748705 51.88867068 67.05292379 53.71484266 67.04882812 55.54101562 C67.03777804 60.02737542 67.02050279 64.51367384 67 69 C66.26362305 69.01981934 65.52724609 69.03963867 64.76855469 69.06005859 C61.42867944 69.15537828 58.08942361 69.26502996 54.75 69.375 C53.59113281 69.4059375 52.43226563 69.436875 51.23828125 69.46875 C50.12324219 69.50742188 49.00820312 69.54609375 47.859375 69.5859375 C46.83295898 69.6173584 45.80654297 69.6487793 44.74902344 69.68115234 C41.67215498 69.87960127 41.67215498 69.87960127 38 72 C38 59.46 38 46.92 38 34 C37.01 34.495 37.01 34.495 36 35 C36 47.21 36 59.42 36 72 C34.35 71.34 32.7 70.68 31 70 C28.20225011 69.63948802 28.20225011 69.63948802 25.26171875 69.5859375 C24.29967529 69.55032715 23.33763184 69.5147168 22.34643555 69.47802734 C21.13898682 69.44402832 19.93153809 69.4100293 18.6875 69.375 C14.830625 69.25125 10.97375 69.1275 7 69 C7 56.46 7 43.92 7 31 C9.54982433 29.72508784 11.16465424 29.97403384 14.0078125 30.12109375 C14.99394531 30.16943359 15.98007813 30.21777344 16.99609375 30.26757812 C18.54490234 30.35168945 18.54490234 30.35168945 20.125 30.4375 C21.16527344 30.48970703 22.20554688 30.54191406 23.27734375 30.59570312 C25.85185116 30.72560946 28.42599296 30.86058252 31 31 C26.96429262 26.69418622 22.55594227 23.2859431 17.75 19.875 C17.03714844 19.35035156 16.32429688 18.82570313 15.58984375 18.28515625 C11.20409121 15.1637648 7.14362831 13.09473514 1.96020508 11.61450195 C-0.6250864 10.80404254 -2.76578306 9.5135018 -5 8 C-4.67 6.02 -4.34 4.04 -4 2 C-2.68 2 -1.36 2 0 2 C0 1.34 0 0.68 0 0 Z " fill="#EFEFF0" transform="translate(170,41)"/>
<path d="M0 0 C-0.33 20.13 -0.66 40.26 -1 61 C0.65 61 2.3 61 4 61 C4.495 63.475 4.495 63.475 5 66 C1.2689664 66.78548076 -2.38444173 67.13863665 -6.1875 67.25 C-7.02667969 67.27578125 -7.86585938 67.3015625 -8.73046875 67.328125 C-11.45741716 66.9338674 -12.29846796 66.10613087 -14 64 C-14.598125 64.495 -15.19625 64.99 -15.8125 65.5 C-20.98587633 67.93453004 -26.59903018 68.00886978 -32.09375 66.37890625 C-37.00343434 63.95636464 -39.70232559 59.86119545 -42 55 C-44.22276791 48.24674972 -44.07872675 39.72517728 -41.5 33.125 C-38.65620586 27.60049668 -33.91936041 22.97312014 -28 21 C-26.40006557 20.85680449 -24.79355688 20.77960474 -23.1875 20.75 C-22.35605469 20.72421875 -21.52460938 20.6984375 -20.66796875 20.671875 C-18 21 -18 21 -12 24 C-12 18.72 -12 13.44 -12 8 C-13.98 8 -15.96 8 -18 8 C-18.33 6.35 -18.66 4.7 -19 3 C-16.586238 2.30048937 -14.16989766 1.61516081 -11.75 0.9375 C-11.06808594 0.73833984 -10.38617188 0.53917969 -9.68359375 0.33398438 C-5.8247525 -0.73375325 -3.98368098 -0.99592024 0 0 Z M-29 33 C-32.01864387 40.61848215 -31.72412892 47.53602639 -28.90234375 55.078125 C-27.64219454 57.76207916 -26.77667165 58.8743223 -24 60 C-20.2543429 60.5328873 -17.27941844 60.70810017 -13.90820312 58.84228516 C-11.7565917 57.11810623 -11.7565917 57.11810623 -11.48242188 54.3203125 C-11.47791016 53.26585937 -11.47339844 52.21140625 -11.46875 51.125 C-11.46359375 49.97515625 -11.4584375 48.8253125 -11.453125 47.640625 C-11.46859375 46.43921875 -11.4840625 45.2378125 -11.5 44 C-11.48453125 42.79859375 -11.4690625 41.5971875 -11.453125 40.359375 C-11.45828125 39.20953125 -11.4634375 38.0596875 -11.46875 36.875 C-11.47326172 35.82054687 -11.47777344 34.76609375 -11.48242188 33.6796875 C-11.76370399 30.90667638 -11.76370399 30.90667638 -13.78710938 29.1640625 C-20.1015016 25.84245812 -25.00978455 27.48411394 -29 33 Z " fill="#F0F1F2" transform="translate(373,264)"/>
<path d="M0 0 C0.33 8.91 0.66 17.82 1 27 C3.97 25.35 6.94 23.7 10 22 C14.11417453 21.04321522 18.04040297 21.04646413 21.89453125 22.921875 C25.64000258 25.72870023 26.84438741 28.60761741 28 33 C28.22705078 36.34326172 28.22705078 36.34326172 28.1953125 39.9296875 C28.18886719 41.21875 28.18242188 42.5078125 28.17578125 43.8359375 C28.15907463 45.18229442 28.14214479 46.52864859 28.125 47.875 C28.11495664 49.24478517 28.10583317 50.61457742 28.09765625 51.984375 C28.07414412 55.32309756 28.0412793 58.66145761 28 62 C30.97 62.495 30.97 62.495 34 63 C33.505 64.98 33.505 64.98 33 67 C25.41 67 17.82 67 10 67 C10 65.68 10 64.36 10 63 C11.65 62.34 13.3 61.68 15 61 C15.33 51.76 15.66 42.52 16 33 C15.01 32.67 14.02 32.34 13 32 C13 31.34 13 30.68 13 30 C11.37276701 30.45034123 9.74826336 30.91055354 8.125 31.375 C7.22007813 31.63023437 6.31515625 31.88546875 5.3828125 32.1484375 C2.85430274 32.8604315 2.85430274 32.8604315 1 35 C0.72155068 37.71934335 0.72155068 37.71934335 0.8046875 40.8828125 C0.81113281 42.04941406 0.81757812 43.21601563 0.82421875 44.41796875 C0.84097656 45.64128906 0.85773438 46.86460937 0.875 48.125 C0.88402344 49.35605469 0.89304687 50.58710938 0.90234375 51.85546875 C0.92597452 54.90383815 0.95891946 57.95182382 1 61 C2.65 61.66 4.3 62.32 6 63 C6 64.32 6 65.64 6 67 C-1.59 67 -9.18 67 -17 67 C-16.67 65.35 -16.34 63.7 -16 62 C-14.02 61.505 -14.02 61.505 -12 61 C-11.67 43.84 -11.34 26.68 -11 9 C-12.98 9 -14.96 9 -17 9 C-17.33 7.35 -17.66 5.7 -18 4 C-15.5636811 3.32873871 -13.12611117 2.66283646 -10.6875 2 C-9.65206055 1.71382813 -9.65206055 1.71382813 -8.59570312 1.421875 C-5.64212051 0.62283816 -3.07440781 0 0 0 Z " fill="#F1F2F2" transform="translate(99,263)"/>
<path d="M0 0 C1.794375 0.99 1.794375 0.99 3.625 2 C3.625 6.29 3.625 10.58 3.625 15 C0.985 15 -1.655 15 -4.375 15 C-5.035 11.7 -5.695 8.4 -6.375 5 C-8.14507714 4.91885894 -9.91622098 4.86074495 -11.6875 4.8125 C-12.67363281 4.77769531 -13.65976562 4.74289062 -14.67578125 4.70703125 C-17.78296684 5.04428005 -18.409552 5.6958902 -20.375 8 C-21.035 8 -21.695 8 -22.375 8 C-22.34167909 9.41765314 -22.27197496 10.83447371 -22.1875 12.25 C-22.15269531 13.03890625 -22.11789063 13.8278125 -22.08203125 14.640625 C-21.05063952 18.08239628 -19.35476626 19.03588351 -16.375 21 C-13.77041444 22.36315414 -11.10763541 23.5840957 -8.4375 24.8125 C-2.36709944 27.71793819 1.88400147 30.21845681 5.625 36 C7.34737197 41.1671159 7.28061622 46.10599758 5.5 51.25 C1.64389174 56.90562545 -3.19644829 60.19292771 -9.8828125 61.484375 C-18.92811057 62.40240525 -27.44259845 61.71656308 -35.375 57 C-35.45833357 52.1666528 -35.32761487 47.76307437 -34.375 43 C-32.065 43 -29.755 43 -27.375 43 C-25.40898058 49.81553398 -25.40898058 49.81553398 -24.9375 52.375 C-24.751875 52.91125 -24.56625 53.4475 -24.375 54 C-19.44849033 55.64216989 -14.45645946 55.53143646 -9.4375 54.25 C-6.92820512 52.72921522 -6.41325869 51.71765407 -5.375 49 C-5.34522256 46.62698611 -5.34522256 46.62698611 -5.75 44.25 C-5.86085938 43.45078125 -5.97171875 42.6515625 -6.0859375 41.828125 C-6.22902344 40.92320312 -6.22902344 40.92320312 -6.375 40 C-7.36693359 39.61714844 -7.36693359 39.61714844 -8.37890625 39.2265625 C-28.3209219 31.06255609 -28.3209219 31.06255609 -32.51953125 24.1328125 C-34.75996421 18.54707552 -35.29953715 13.31190235 -32.9375 7.6875 C-26.56759268 -3.31506719 -10.71950496 -4.83060494 0 0 Z " fill="#EFF0F1" transform="translate(72.375,270)"/>
<path d="M0 0 C4.32903914 2.41224132 6.99975428 5.34936051 8.96875 9.89453125 C10.06391125 13.94034989 10.07529665 18.0118751 9.58203125 22.16015625 C7.80712579 23.93506171 5.20418223 23.39515598 2.796875 23.4765625 C1.62705078 23.51845703 0.45722656 23.56035156 -0.74804688 23.60351562 C-1.97974609 23.64283203 -3.21144531 23.68214844 -4.48046875 23.72265625 C-6.33381836 23.78743164 -6.33381836 23.78743164 -8.22460938 23.85351562 C-11.2889421 23.95999823 -14.35335948 24.06201049 -17.41796875 24.16015625 C-16.56046392 29.8595798 -16.56046392 29.8595798 -14.41796875 35.16015625 C-9.58924348 36.8443474 -3.14957422 37.39152958 1.56640625 35.265625 C3.38398303 34.08336953 3.38398303 34.08336953 5.58203125 32.16015625 C6.90203125 32.82015625 8.22203125 33.48015625 9.58203125 34.16015625 C6.87789889 39.4181914 3.29378582 43.25623806 -2.41796875 45.16015625 C-10.09889561 45.80110911 -17.10177793 46.02452122 -23.41796875 41.16015625 C-27.84119016 37.02047468 -30.17301395 32.70369857 -30.75390625 26.671875 C-30.83939571 18.30245734 -30.77568938 11.75538298 -24.76953125 5.421875 C-17.82860579 -0.92801095 -9.13219315 -3.17192492 0 0 Z M-12.41796875 4.16015625 C-12.41796875 4.82015625 -12.41796875 5.48015625 -12.41796875 6.16015625 C-13.03671875 6.36640625 -13.65546875 6.57265625 -14.29296875 6.78515625 C-17.31672126 8.74170199 -17.5943787 10.72853103 -18.41796875 14.16015625 C-18.41796875 15.48015625 -18.41796875 16.80015625 -18.41796875 18.16015625 C-16.14739498 18.21414612 -13.87645587 18.25294367 -11.60546875 18.28515625 C-9.70861328 18.31996094 -9.70861328 18.31996094 -7.7734375 18.35546875 C-4.28416635 18.43597543 -4.28416635 18.43597543 -1.41796875 16.16015625 C-1.51323445 10.20758492 -1.51323445 10.20758492 -4.10546875 5.09765625 C-6.99778757 3.92509457 -9.32629826 3.94936053 -12.41796875 4.16015625 Z " fill="#EDEEEF" transform="translate(165.41796875,285.83984375)"/>
<path d="M0 0 C4.83761866 2.42414887 7.99468911 6.39376209 9.83203125 11.38671875 C10.26291931 15.10127098 10.28884479 18.67347727 9.83203125 22.38671875 C8.83203125 23.38671875 8.83203125 23.38671875 6.23999023 23.50024414 C5.11407471 23.49500732 3.98815918 23.48977051 2.828125 23.484375 C1.61318359 23.48115234 0.39824219 23.47792969 -0.85351562 23.47460938 C-2.13291016 23.46623047 -3.41230469 23.45785156 -4.73046875 23.44921875 C-6.01373047 23.44470703 -7.29699219 23.44019531 -8.61914062 23.43554688 C-11.80212897 23.4237142 -14.98502637 23.40722943 -18.16796875 23.38671875 C-17.71614471 24.83537959 -17.25625209 26.28152557 -16.79296875 27.7265625 C-16.53773438 28.532146 -16.2825 29.33772949 -16.01953125 30.16772461 C-14.70216198 33.60051397 -13.49324348 34.79335794 -10.16796875 36.38671875 C-4.80933573 37.15339064 -0.63580018 37.30771102 4.01953125 34.38671875 C4.61765625 33.72671875 5.21578125 33.06671875 5.83203125 32.38671875 C7.15203125 33.04671875 8.47203125 33.70671875 9.83203125 34.38671875 C8.47184134 37.5063583 6.99942991 39.39506697 4.39453125 41.57421875 C3.79769531 42.08339844 3.20085937 42.59257812 2.5859375 43.1171875 C-2.42412833 46.74362713 -9.3005458 45.8860739 -15.16796875 45.38671875 C-22.03019979 43.40764271 -25.38582196 39.44182754 -28.91796875 33.38671875 C-31.3676849 27.13994258 -31.20750952 19.89998153 -29.32421875 13.53515625 C-26.62608557 7.50081786 -22.90748007 3.64070948 -17.16796875 0.38671875 C-11.78548004 -1.40744415 -5.48336739 -1.55115078 0 0 Z M-14.48046875 5.76171875 C-16.99755313 9.67718335 -17.50703468 13.82975229 -18.16796875 18.38671875 C-15.89739498 18.44070862 -13.62645587 18.47950617 -11.35546875 18.51171875 C-9.45861328 18.54652344 -9.45861328 18.54652344 -7.5234375 18.58203125 C-4.03416635 18.66253793 -4.03416635 18.66253793 -1.16796875 16.38671875 C-0.6342842 12.34596432 -0.80703097 10.06528177 -2.73046875 6.44921875 C-5.09356576 4.08952739 -5.09356576 4.08952739 -8.66796875 3.82421875 C-12.10285863 4.15591721 -12.10285863 4.15591721 -14.48046875 5.76171875 Z " fill="#EEEFEF" transform="translate(291.16796875,285.61328125)"/>
<path d="M0 0 C1.875 0.5625 1.875 0.5625 4 2 C5.25 5.625 5.25 5.625 6 9 C7.32 9.33 8.64 9.66 10 10 C10 10.99 10 11.98 10 13 C8.02253397 13.73080266 6.01927511 14.39421747 4 15 C3.34 14.67 2.68 14.34 2 14 C2.4640625 14.928125 2.4640625 14.928125 2.9375 15.875 C3.625 17.25 4.3125 18.625 5 20 C5.99 20 6.98 20 8 20 C8 19.34 8 18.68 8 18 C9.65 17.34 11.3 16.68 13 16 C13.495 17.98 13.495 17.98 14 20 C17.04913228 21.01111093 17.04913228 21.01111093 20 20 C19.175 19.401875 18.35 18.80375 17.5 18.1875 C16.675 17.465625 15.85 16.74375 15 16 C15 15.01 15 14.02 15 13 C17.31 13 19.62 13 22 13 C22.20625 12.360625 22.4125 11.72125 22.625 11.0625 C24 9 24 9 27.125 8.25 C28.07375 8.1675 29.0225 8.085 30 8 C30 12.3164343 29.76033609 12.75754897 27.1875 15.875 C24.63647851 19.11029549 22.68217131 22.21511455 21 26 C20.608125 26.845625 20.21625 27.69125 19.8125 28.5625 C18.84836198 30.99693661 18.84836198 30.99693661 19.0625 33.6875 C19.041875 34.450625 19.02125 35.21375 19 36 C11.0281226 41.31458493 -2.79317563 39.79648775 -11.8125 38.0625 C-15.82008368 37.17991632 -15.82008368 37.17991632 -17 36 C-16.773125 34.906875 -16.54625 33.81375 -16.3125 32.6875 C-16.209375 31.470625 -16.10625 30.25375 -16 29 C-17.68581709 27.06167261 -17.68581709 27.06167261 -20 25 C-20.87832264 23.35659757 -21.70728549 21.68636471 -22.5 20 C-24.23784858 16.35213208 -25.81202371 13.59761031 -29 11 C-28.67 10.01 -28.34 9.02 -28 8 C-25.125 8.25 -25.125 8.25 -22 9 C-20.625 11.0625 -20.625 11.0625 -20 13 C-17.69 13 -15.38 13 -13 13 C-13.39803561 15.88575819 -13.79009069 16.82189513 -16.0625 18.75 C-16.701875 19.1625 -17.34125 19.575 -18 20 C-14.95086772 21.01111093 -14.95086772 21.01111093 -12 20 C-11.34786708 17.97536745 -11.34786708 17.97536745 -11 16 C-10.01 16 -9.02 16 -8 16 C-8 16.66 -8 17.32 -8 18 C-7.34 18 -6.68 18 -6 18 C-6 18.66 -6 19.32 -6 20 C-5.01 20 -4.02 20 -3 20 C-2.67 19.34 -2.34 18.68 -2 18 C-1.33333333 16.66666667 -0.66666667 15.33333333 0 14 C-0.5775 14.20625 -1.155 14.4125 -1.75 14.625 C-4.51967567 15.08661261 -5.64561267 14.42944945 -8 13 C-8 12.01 -8 11.02 -8 10 C-6.68 9.67 -5.36 9.34 -4 9 C-3.71125 7.88625 -3.4225 6.7725 -3.125 5.625 C-2 2 -2 2 0 0 Z M0 23 C0 23.66 0 24.32 0 25 C-0.99 25.495 -0.99 25.495 -2 26 C-0.02 26.99 -0.02 26.99 2 28 C2.66 27.01 3.32 26.02 4 25 C2.68 24.34 1.36 23.68 0 23 Z M-10 25 C-10 26.32 -10 27.64 -10 29 C-9.01 29 -8.02 29 -7 29 C-7 27.68 -7 26.36 -7 25 C-7.99 25 -8.98 25 -10 25 Z M9 25 C9 26.32 9 27.64 9 29 C10.32 28.67 11.64 28.34 13 28 C12.67 27.01 12.34 26.02 12 25 C11.01 25 10.02 25 9 25 Z M-6 33 C-6.99 34.485 -6.99 34.485 -8 36 C-2.06 36 3.88 36 10 36 C10 35.34 10 34.68 10 34 C7.03144127 32.51572064 4.30088341 32.79058463 1 32.75 C-0.258125 32.72421875 -1.51625 32.6984375 -2.8125 32.671875 C-3.864375 32.78015625 -4.91625 32.8884375 -6 33 Z " fill="#E3E5E6" transform="translate(206,13)"/>
<path d="M0 0 C0 12.54 0 25.08 0 38 C-9.24 38.33 -18.48 38.66 -28 39 C-28.04125 36.56625 -28.0825 34.1325 -28.125 31.625 C-28.14320801 30.86010254 -28.16141602 30.09520508 -28.18017578 29.30712891 C-28.1948117 27.53712725 -28.09928514 25.76727545 -28 24 C-26 22 -26 22 -23.5625 21.875 C-22.716875 21.91625 -21.87125 21.9575 -21 22 C-20.01 22 -19.02 22 -18 22 C-15.66666667 22 -13.33333333 22 -11 22 C-10.67 21.01 -10.34 20.02 -10 19 C-9.5875 19.515625 -9.175 20.03125 -8.75 20.5625 C-8.1725 21.036875 -7.595 21.51125 -7 22 C-4.83700789 21.77242269 -4.83700789 21.77242269 -3 21 C-3.33 20.01 -3.66 19.02 -4 18 C-4.86625 18.2475 -4.86625 18.2475 -5.75 18.5 C-8.83335623 19.18519027 -11.85390936 19 -15 19 C-15 19.99 -15 20.98 -15 22 C-15.66 22 -16.32 22 -17 22 C-17.66 21.01 -18.32 20.02 -19 19 C-20.89755144 16.65026182 -20.89755144 16.65026182 -24.125 16.875 C-25.07375 16.91625 -26.0225 16.9575 -27 17 C-28.20755308 14.58489385 -28.23572748 12.88261951 -28.3125 10.1875 C-28.34988281 9.33542969 -28.38726562 8.48335937 -28.42578125 7.60546875 C-27.80864545 3.82905058 -26.96601034 2.47239694 -24 0 C-20.29876238 -0.7878967 -16.64956185 -0.83633611 -12.875 -0.875 C-11.35326172 -0.92527344 -11.35326172 -0.92527344 -9.80078125 -0.9765625 C-2.34997235 -1.17498617 -2.34997235 -1.17498617 0 0 Z " fill="#F0F1F2" transform="translate(237,72)"/>
<path d="M0 0 C0 20.13 0 40.26 0 61 C1.65 61 3.3 61 5 61 C5.33 62.65 5.66 64.3 6 66 C-1.92 66 -9.84 66 -18 66 C-17.67 64.35 -17.34 62.7 -17 61 C-15.35 61 -13.7 61 -12 61 C-12.33 43.51 -12.66 26.02 -13 8 C-14.65 7.67 -16.3 7.34 -18 7 C-18 5.68 -18 4.36 -18 3 C-15.75376301 2.30030318 -13.50283586 1.61564957 -11.25 0.9375 C-9.99703125 0.55464844 -8.7440625 0.17179687 -7.453125 -0.22265625 C-4 -1 -4 -1 0 0 Z " fill="#EDEDEE" transform="translate(322,264)"/>
<path d="M0 0 C6.27 0 12.54 0 19 0 C18.67 1.32 18.34 2.64 18 4 C17.01 4.33 16.02 4.66 15 5 C13.42626238 8.65396551 13.84967226 12.83505482 13.875 16.75 C13.87790039 17.81927734 13.87790039 17.81927734 13.88085938 18.91015625 C13.92021285 23.69378987 14.21434339 28.28606031 15 33 C15.66 33 16.32 33 17 33 C17.33 33.66 17.66 34.32 18 35 C23.57573359 35.53655007 23.57573359 35.53655007 28.4375 33.3125 C31.04471733 29.45381835 31.12563703 25.47883535 31.09765625 20.91796875 C31.09282227 19.52094727 31.09282227 19.52094727 31.08789062 18.09570312 C31.07951172 17.13599609 31.07113281 16.17628906 31.0625 15.1875 C31.05798828 14.20845703 31.05347656 13.22941406 31.04882812 12.22070312 C31.03708684 9.81373889 31.02066419 7.40690143 31 5 C29.35 4.34 27.7 3.68 26 3 C26 2.01 26 1.02 26 0 C30.95 0 35.9 0 41 0 C40.67 1.32 40.34 2.64 40 4 C39.01 4.33 38.02 4.66 37 5 C36.98541748 5.69037354 36.97083496 6.38074707 36.95581055 7.09204102 C36.88089383 10.2493966 36.78437783 13.40574501 36.6875 16.5625 C36.66494141 17.64853516 36.64238281 18.73457031 36.61914062 19.85351562 C36.37700042 27.09570906 35.81305063 32.53057089 31.125 38.3125 C26.97754026 41.60607097 23.30820101 42.4102989 17.98828125 42.25 C13.48962496 41.68435363 10.70699374 39.76431756 7.6875 36.5 C5.0801002 32.63718548 4.83929324 29.5793019 4.68359375 25.01953125 C4.64169922 23.85615234 4.59980469 22.69277344 4.55664062 21.49414062 C4.51732422 20.27919922 4.47800781 19.06425781 4.4375 17.8125 C4.39431641 16.58595703 4.35113281 15.35941406 4.30664062 14.09570312 C4.2004691 11.06391619 4.09842048 8.03204685 4 5 C2.68 4.34 1.36 3.68 0 3 C0 2.01 0 1.02 0 0 Z " fill="#E9EAEB" transform="translate(36,207)"/>
<path d="M0 0 C0 0.66 0 1.32 0 2 C1.03125 1.505 2.0625 1.01 3.125 0.5 C6.59536164 -0.95531295 9.20504587 -1.65999202 13 -1 C15.92495517 1.09175955 17.71026106 2.77826745 18.55664062 6.34716797 C18.86872749 9.12994248 19.05665263 11.89040047 19.1875 14.6875 C19.29822878 16.58770773 19.41635439 18.48750337 19.54296875 20.38671875 C19.6052063 21.64295044 19.6052063 21.64295044 19.66870117 22.92456055 C19.82661917 25.2178214 19.82661917 25.2178214 22 27 C22 27.99 22 28.98 22 30 C17.05 30 12.1 30 7 30 C7 28.68 7 27.36 7 26 C7.66 25.67 8.32 25.34 9 25 C9 18.73 9 12.46 9 6 C4.545 6.495 4.545 6.495 0 7 C0 13.27 0 19.54 0 26 C1.32 26.33 2.64 26.66 4 27 C4 27.99 4 28.98 4 30 C-1.28 30 -6.56 30 -12 30 C-11.67 28.68 -11.34 27.36 -11 26 C-10.34 25.67 -9.68 25.34 -9 25 C-9 19.06 -9 13.12 -9 7 C-9.99 6.67 -10.98 6.34 -12 6 C-11.7421875 4.11328125 -11.7421875 4.11328125 -11 2 C-9.2578125 0.91796875 -9.2578125 0.91796875 -7.125 0.1875 C-6.42632812 -0.06644531 -5.72765625 -0.32039062 -5.0078125 -0.58203125 C-3 -1 -3 -1 0 0 Z " fill="#E0E1E2" transform="translate(89,218)"/>
<path d="M0 0 C0.639375 0.2475 1.27875 0.495 1.9375 0.75 C2.2675 1.74 2.5975 2.73 2.9375 3.75 C3.5975 3.75 4.2575 3.75 4.9375 3.75 C5.5975 2.43 6.2575 1.11 6.9375 -0.25 C11.77006305 0.16421969 13.76429218 2.21413986 16.9375 5.75 C16.2775 7.4 15.6175 9.05 14.9375 10.75 C15.576875 10.976875 16.21625 11.20375 16.875 11.4375 C18.9375 12.75 18.9375 12.75 19.875 15 C19.95691163 18.60411159 18.69272073 20.64460948 16.9375 23.75 C16.15977595 26.08317216 15.51334432 28.36435923 14.9375 30.75 C13.6175 30.42 12.2975 30.09 10.9375 29.75 C11.5975 27.77 12.2575 25.79 12.9375 23.75 C11.9475 23.75 10.9575 23.75 9.9375 23.75 C9.999375 24.53375 10.06125 25.3175 10.125 26.125 C10.0321875 27.424375 10.0321875 27.424375 9.9375 28.75 C6.46751271 31.06332486 5.01240752 31.08957563 0.9375 30.75 C-0.0525 30.09 -1.0425 29.43 -2.0625 28.75 C-2.25 26.125 -2.25 26.125 -2.0625 23.75 C-3.0525 23.75 -4.0425 23.75 -5.0625 23.75 C-4.4025 25.73 -3.7425 27.71 -3.0625 29.75 C-4.3825 30.08 -5.7025 30.41 -7.0625 30.75 C-7.18625 30.1725 -7.31 29.595 -7.4375 29 C-8.07422036 26.7078067 -8.97511673 24.86080282 -10.0625 22.75 C-11.43552331 19.93168899 -12.084006 18.21237902 -11.9375 15.0625 C-11.0625 12.75 -11.0625 12.75 -9 11.4375 C-8.360625 11.210625 -7.72125 10.98375 -7.0625 10.75 C-7.7225 9.1 -8.3825 7.45 -9.0625 5.75 C-3.09446664 -0.37508687 -3.09446664 -0.37508687 0 0 Z M-1.0625 8.75 C-1.206875 9.678125 -1.35125 10.60625 -1.5 11.5625 C-2.0625 14.75 -2.0625 14.75 -3.0625 17.75 C-0.5875 18.245 -0.5875 18.245 1.9375 18.75 C2.2675 20.07 2.5975 21.39 2.9375 22.75 C3.5975 22.75 4.2575 22.75 4.9375 22.75 C5.2675 21.43 5.5975 20.11 5.9375 18.75 C7.5875 18.42 9.2375 18.09 10.9375 17.75 C10.2775 14.78 9.6175 11.81 8.9375 8.75 C5.6375 8.75 2.3375 8.75 -1.0625 8.75 Z " fill="#E5E7E8" transform="translate(203.0625,143.25)"/>
<path d="M0 0 C4.50830806 1.73396464 8.8774259 5.47668902 10.85620117 9.92456055 C12.17724052 12.32160548 13.42104852 13.30140444 15.66796875 14.83984375 C16.76141602 15.5987793 16.76141602 15.5987793 17.87695312 16.37304688 C18.63943359 16.88931641 19.40191406 17.40558594 20.1875 17.9375 C21.68107297 18.96732699 23.17456343 19.99727365 24.66796875 21.02734375 C25.39806152 21.51960449 26.1281543 22.01186523 26.88037109 22.51904297 C28.26597267 23.48714469 29.62083833 24.50121148 30.93603516 25.56298828 C32.90805231 27.20115686 32.90805231 27.20115686 36 29 C39.70147411 27.9660666 42.48836279 26.10167068 45.5390625 23.8125 C46.36664063 23.19632813 47.19421875 22.58015625 48.046875 21.9453125 C48.89765625 21.30335937 49.7484375 20.66140625 50.625 20 C52.32517209 18.72870015 54.02567874 17.45784756 55.7265625 16.1875 C56.47502441 15.62417969 57.22348633 15.06085937 57.99462891 14.48046875 C59.62953724 13.27349479 61.30913307 12.12724462 63 11 C63.433125 10.2575 63.86625 9.515 64.3125 8.75 C66.48236817 5.21391854 68.93645792 2.80281509 72 0 C72.66 0 73.32 0 74 0 C74 0.66 74 1.32 74 2 C75.32 2 76.64 2 78 2 C78.495 4.97 78.495 4.97 79 8 C77.65144233 8.80118392 76.29578257 9.59041608 74.9375 10.375 C74.18339844 10.81585938 73.42929688 11.25671875 72.65234375 11.7109375 C70 13 70 13 66.703125 13.796875 C61.96662594 15.33573756 58.69969318 17.8309445 54.8125 20.875 C54.11447266 21.40480469 53.41644531 21.93460938 52.69726562 22.48046875 C45.72072894 27.77118069 45.72072894 27.77118069 41 35 C40.67 35.33 40.34 35.66 40 36 C39.90176063 37.66429051 39.87026369 39.33281931 39.875 41 C39.87242187 41.9075 39.86984375 42.815 39.8671875 43.75 C39.74826221 45.96966611 39.74826221 45.96966611 41 47 C41.763125 46.979375 42.52625 46.95875 43.3125 46.9375 C46.14489693 47.0033697 47.59482179 47.57470921 50 49 C50 50.32 50 51.64 50 53 C50.66 53 51.32 53 52 53 C51.505 51.02 51.505 51.02 51 49 C59.94805195 47.64935065 59.94805195 47.64935065 64 49 C64 50.65 64 52.3 64 54 C62.35 53.67 60.7 53.34 59 53 C59 52.34 59 51.68 59 51 C58.34 51 57.68 51 57 51 C56.505 51.99 56.505 51.99 56 53 C56.99 53.495 56.99 53.495 58 54 C46 54 46 54 43.375 53.9375 C41.04437265 53.72620721 41.04437265 53.72620721 40 55 C39.92680379 57.69654854 39.90757463 60.36691458 39.9375 63.0625 C39.94201172 63.82111328 39.94652344 64.57972656 39.95117188 65.36132812 C39.9629932 67.24091871 39.98092922 69.12046899 40 71 C39.01 71.495 39.01 71.495 38 72 C38 59.46 38 46.92 38 34 C36.35 33.67 34.7 33.34 33 33 C31.6497265 31.34702782 30.3199942 29.67725098 29 28 C26.25501077 25.77931022 23.35240882 23.80250948 20.4375 21.8125 C19.66986328 21.27947266 18.90222656 20.74644531 18.11132812 20.19726562 C11.7503334 15.63930437 11.7503334 15.63930437 4.625 12.5625 C1.08634815 11.43105504 -1.90327634 10.09778055 -5 8 C-4.67 6.02 -4.34 4.04 -4 2 C-2.68 2 -1.36 2 0 2 C0 1.34 0 0.68 0 0 Z " fill="#EBEBEC" transform="translate(170,41)"/>
<path d="M0 0 C4.36538133 2.26248796 7.05659966 4.75733176 9.12890625 9.31640625 C9.882751 14.46120239 9.92532729 19.49703409 7.62890625 24.25390625 C4.5332313 28.04610806 1.85872766 30.02949371 -2.87109375 31.31640625 C-8.00202904 31.82773657 -11.75122848 30.81924118 -15.80859375 27.62890625 C-19.77486139 23.77281271 -20.69645085 20.27240673 -21.18359375 14.81640625 C-20.70270042 9.43040093 -18.91677465 6.01620136 -14.87109375 2.50390625 C-10.27591911 -0.84674192 -5.53347317 -2.02162381 0 0 Z M-9.62109375 4.62890625 C-12.08641604 7.95709134 -12.06122779 11.19036429 -12.12109375 15.19140625 C-12.146875 16.22007812 -12.17265625 17.24875 -12.19921875 18.30859375 C-11.82514368 21.73761522 -10.92811944 23.57206888 -8.87109375 26.31640625 C-6.48500764 27.56041903 -6.48500764 27.56041903 -3.87109375 27.31640625 C-1.37650438 26.16449031 -1.37650438 26.16449031 0.12890625 23.31640625 C1.51021811 16.98038881 1.56336129 11.33847925 -0.87109375 5.31640625 C-2.69312956 3.08673878 -2.69312956 3.08673878 -5.30859375 3.00390625 C-7.88879795 3.1023922 -7.88879795 3.1023922 -9.62109375 4.62890625 Z " fill="#E9EAEB" transform="translate(345.87109375,217.68359375)"/>
<path d="M0 0 C5.28 0 10.56 0 16 0 C16 0.99 16 1.98 16 3 C15.01 3.495 15.01 3.495 14 4 C14.56820748 9.45479185 15.94637945 13.91059256 18 19 C19.65 14.38 21.3 9.76 23 5 C22.01 4.34 21.02 3.68 20 3 C20 2.01 20 1.02 20 0 C23.96 0 27.92 0 32 0 C32 0.99 32 1.98 32 3 C31.34 3 30.68 3 30 3 C28.25075991 6.32028421 26.90697639 9.7279012 25.57421875 13.234375 C25.10693359 14.44867188 24.63964844 15.66296875 24.15820312 16.9140625 C23.42387956 18.82569698 22.69199952 20.73811309 21.96704102 22.65332031 C19.22755917 29.87754624 16.6107128 36.75616817 12 43 C8.375 44.625 8.375 44.625 5 45 C4.01 44.34 3.02 43.68 2 43 C1.8125 40.375 1.8125 40.375 2 38 C6.625 35.875 6.625 35.875 10 37 C11.72780266 36.02977977 11.72780266 36.02977977 13 34 C12.71702431 26.94177769 10.31988995 21.0310887 7.625 14.5625 C7.22539062 13.55767578 6.82578125 12.55285156 6.4140625 11.51757812 C5.82625 10.08768555 5.82625 10.08768555 5.2265625 8.62890625 C4.87158691 7.76338135 4.51661133 6.89785645 4.15087891 6.00610352 C3.10341669 3.6647359 3.10341669 3.6647359 0 3 C0 2.01 0 1.02 0 0 Z " fill="#EDEEEF" transform="translate(280,218)"/>
<path d="M0 0 C0.625 2.375 0.625 2.375 1 5 C0.34 5.66 -0.32 6.32 -1 7 C-3.625 6.625 -3.625 6.625 -6 6 C-6 5.34 -6 4.68 -6 4 C-6.66 4 -7.32 4 -8 4 C-7.67 6.97 -7.34 9.94 -7 13 C-4.03 13.495 -4.03 13.495 -1 14 C-1 15.32 -1 16.64 -1 18 C-3.31 18 -5.62 18 -8 18 C-8 25.26 -8 32.52 -8 40 C-6.35 40.33 -4.7 40.66 -3 41 C-3 41.99 -3 42.98 -3 44 C-8.61 44 -14.22 44 -20 44 C-19.67 42.68 -19.34 41.36 -19 40 C-18.01 40 -17.02 40 -16 40 C-16 32.74 -16 25.48 -16 18 C-17.65 18 -19.3 18 -21 18 C-20.6875 16.0625 -20.6875 16.0625 -20 14 C-19.01 13.67 -18.02 13.34 -17 13 C-16.11786949 10.79979139 -16.11786949 10.79979139 -15.5625 8.1875 C-14.44574485 4.11599686 -13.59178234 1.50336345 -10 -1 C-6.32030737 -2.71718989 -3.64533425 -1.4084246 0 0 Z " fill="#E8E9EA" transform="translate(377,204)"/>
<path d="M0 0 C3.11320543 2.421382 4.93869922 4.00308881 5.65234375 8.0078125 C5.90882579 10.24939522 6.08454899 12.4998662 6.25 14.75 C0.31 15.08 -5.63 15.41 -11.75 15.75 C-11.25847518 20.61132495 -11.25847518 20.61132495 -8.75 22.75 C-8.42 23.41 -8.09 24.07 -7.75 24.75 C-6.3108866 24.46640113 -4.87374482 24.17278601 -3.4375 23.875 C-2.63699219 23.71257812 -1.83648437 23.55015625 -1.01171875 23.3828125 C1.50301118 22.80521001 1.50301118 22.80521001 4.25 20.75 C4.58 22.07 4.91 23.39 5.25 24.75 C1.4238689 28.48047782 -1.3209012 30.53798137 -6.734375 30.87890625 C-11.77154721 30.55676152 -14.98467849 28.44877181 -18.625 25.125 C-21.65048549 20.31981716 -22.39253876 16.16463454 -21.33984375 10.5703125 C-19.70411196 5.3790679 -17.19606619 2.8066705 -12.75 -0.25 C-8.23047673 -1.75650776 -4.39040622 -1.99563919 0 0 Z M-11.625 5 C-13.0024219 7.87182862 -13.0024219 7.87182862 -12.75 11.75 C-11.10425434 11.77688151 -9.45838587 11.79634123 -7.8125 11.8125 C-6.43771484 11.82990234 -6.43771484 11.82990234 -5.03515625 11.84765625 C-2.78406673 12.00949049 -2.78406673 12.00949049 -1.75 10.75 C-1.89158662 6.4090631 -1.89158662 6.4090631 -3.75 2.75 C-8.32455711 2.09684157 -8.32455711 2.09684157 -11.625 5 Z " fill="#E8EAEB" transform="translate(181.75,218.25)"/>
<path d="M0 0 C3.5 1.5 3.5 1.5 6 3 C5.67 5.31 5.34 7.62 5 10 C2.525 9.505 2.525 9.505 0 9 C-0.33 7.68 -0.66 6.36 -1 5 C-3.97 4.505 -3.97 4.505 -7 4 C-7 4.66 -7 5.32 -7 6 C-7.66 6 -8.32 6 -9 6 C-7.9873885 8.73063776 -7.40712346 9.79572899 -4.7578125 11.125 C-3.88898438 11.41375 -3.02015625 11.7025 -2.125 12 C4.96013964 14.66204669 4.96013964 14.66204669 7 18 C7.51780959 21.2622004 7.77909754 22.93230345 7 26 C3.7308447 30.04342893 1.17577472 31.25838 -3.9375 32 C-8.74886576 32.28387786 -11.80008948 31.28256007 -16 29 C-16 26.36 -16 23.72 -16 21 C-14.35 21.33 -12.7 21.66 -11 22 C-10.34 23.98 -9.68 25.96 -9 28 C-6.36 27.34 -3.72 26.68 -1 26 C-1 24.68 -1 23.36 -1 22 C-2.12148437 21.54560547 -2.12148437 21.54560547 -3.265625 21.08203125 C-13.81147413 16.59590433 -13.81147413 16.59590433 -16 12 C-16.0625 8.4375 -16.0625 8.4375 -15 5 C-10.32454873 0.44443209 -6.45856052 -0.71761784 0 0 Z " fill="#E8E9EB" transform="translate(233,217)"/>
<path d="M0 0 C0.99 0.33 1.98 0.66 3 1 C3.33 12.55 3.66 24.1 4 36 C11.92 36.33 19.84 36.66 28 37 C28.66 38.32 29.32 39.64 30 41 C32.64 41 35.28 41 38 41 C38.66 39.68 39.32 38.36 40 37 C47.92 36.67 55.84 36.34 64 36 C64.33 24.12 64.66 12.24 65 0 C65.99 0 66.98 0 68 0 C68 13.2 68 26.4 68 40 C54.8125 40.25 54.8125 40.25 50.67895508 40.29785156 C49.59509521 40.3284668 48.51123535 40.35908203 47.39453125 40.390625 C46.28956299 40.41157227 45.18459473 40.43251953 44.04614258 40.45410156 C40.38361207 41.11046272 38.79073062 42.61973205 36 45 C32.875 44.9375 32.875 44.9375 30 44 C29.57356201 43.49621826 29.14712402 42.99243652 28.70776367 42.47338867 C26.17900703 40.29168083 24.09705034 40.56565846 20.80078125 40.48828125 C19.71192627 40.45516846 18.62307129 40.42205566 17.5012207 40.38793945 C16.11894287 40.36304443 14.73666504 40.33814941 13.3125 40.3125 C8.919375 40.209375 4.52625 40.10625 0 40 C0 26.8 0 13.6 0 0 Z " fill="#C5C8CB" transform="translate(173,76)"/>
<path d="M0 0 C3 1 3 1 4 3 C5.98 2.67 7.96 2.34 10 2 C10 7.28 10 12.56 10 18 C7.57914063 18.09087891 7.57914063 18.09087891 5.109375 18.18359375 C2.98957462 18.26801058 0.86978341 18.35265801 -1.25 18.4375 C-2.84521484 18.49647461 -2.84521484 18.49647461 -4.47265625 18.55664062 C-5.49746094 18.59853516 -6.52226562 18.64042969 -7.578125 18.68359375 C-8.52075195 18.72025146 -9.46337891 18.75690918 -10.43457031 18.79467773 C-12.74251377 18.97939228 -14.78140524 19.35861612 -17 20 C-17.05383848 17.54137599 -17.09359038 15.0839245 -17.125 12.625 C-17.14175781 11.92632812 -17.15851563 11.22765625 -17.17578125 10.5078125 C-17.19344267 8.67102514 -17.10303261 6.83398037 -17 5 C-15 3 -15 3 -12.5625 2.875 C-11.716875 2.91625 -10.87125 2.9575 -10 3 C-9.01 3 -8.02 3 -7 3 C-4.66666667 3 -2.33333333 3 0 3 C0 2.01 0 1.02 0 0 Z " fill="#FCFDFD" transform="translate(226,91)"/>
<path d="M0 0 C0.33 0 0.66 0 1 0 C1 2.64 1 5.28 1 8 C2.051875 7.814375 3.10375 7.62875 4.1875 7.4375 C7.57119882 7.04920669 9.76425888 7.11752515 13 8 C13.33 7.34 13.66 6.68 14 6 C14.99 6.33 15.98 6.66 17 7 C20.32675691 7.42435797 23.65918122 7.6962892 27 8 C27.33 13.94 27.66 19.88 28 26 C26.35 25.34 24.7 24.68 23 24 C23 23.34 23 22.68 23 22 C15.41 22 7.82 22 0 22 C0 14.74 0 7.48 0 0 Z " fill="#FCFCFC" transform="translate(178,87)"/>
<path d="M0 0 C5.28 0 10.56 0 16 0 C16 0.99 16 1.98 16 3 C15.01 3.66 14.02 4.32 13 5 C13.28875 5.75925781 13.5775 6.51851562 13.875 7.30078125 C14.24625 8.29464844 14.6175 9.28851563 15 10.3125 C15.37125 11.29863281 15.7425 12.28476563 16.125 13.30078125 C17 16 17 16 17 19 C17.66 19 18.32 19 19 19 C20.56901859 12.01466204 20.56901859 12.01466204 22 5 C21.01 4.34 20.02 3.68 19 3 C19 2.01 19 1.02 19 0 C23.29 0 27.58 0 32 0 C32 0.99 32 1.98 32 3 C31.2575 3.66515625 30.515 4.3303125 29.75 5.015625 C25.17251657 9.31588056 23.93524193 15.88724725 22.0390625 21.69140625 C21.55566406 23.07392578 21.55566406 23.07392578 21.0625 24.484375 C20.78535156 25.32709961 20.50820312 26.16982422 20.22265625 27.03808594 C19 29 19 29 16.37109375 29.78222656 C15.58863281 29.8540918 14.80617187 29.92595703 14 30 C4 8.73333333 4 8.73333333 4 5 C3.34 5 2.68 5 2 5 C2 4.34 2 3.68 2 3 C1.34 3 0.68 3 0 3 C0 2.01 0 1.02 0 0 Z " fill="#EAEBEC" transform="translate(129,218)"/>
<path d="M0 0 C129.69 0 259.38 0 393 0 C393 0.33 393 0.66 393 1 C263.31 1 133.62 1 0 1 C0 0.67 0 0.34 0 0 Z " fill="#BBBDC1" transform="translate(0,372)"/>
<path d="M0 0 C0 0.99 0 1.98 0 3 C0.886875 2.34 1.77375 1.68 2.6875 1 C7.435882 -1.86694762 7.435882 -1.86694762 11 -1 C12.8125 1.5 12.8125 1.5 14 4 C13.01 5.32 12.02 6.64 11 8 C6.25 7.125 6.25 7.125 4 6 C1.37784874 10.56943249 0.55989785 14.13016568 0.3125 19.375 C0.24675781 20.62023437 0.18101562 21.86546875 0.11328125 23.1484375 C0.07589844 24.08945313 0.03851563 25.03046875 0 26 C1.65 26 3.3 26 5 26 C5 27.32 5 28.64 5 30 C-0.28 30 -5.56 30 -11 30 C-11 28.68 -11 27.36 -11 26 C-10.34 25.67 -9.68 25.34 -9 25 C-9 19.06 -9 13.12 -9 7 C-9.99 6.67 -10.98 6.34 -12 6 C-11.7421875 4.11328125 -11.7421875 4.11328125 -11 2 C-9.2578125 0.91796875 -9.2578125 0.91796875 -7.125 0.1875 C-6.42632812 -0.06644531 -5.72765625 -0.32039062 -5.0078125 -0.58203125 C-3 -1 -3 -1 0 0 Z " fill="#E7E8E9" transform="translate(202,218)"/>
<path d="M0 0 C1.65 0 3.3 0 5 0 C5 2.64 5 5.28 5 8 C7.31 8 9.62 8 12 8 C12 9.32 12 10.64 12 12 C9.69 12 7.38 12 5 12 C5 18.6 5 25.2 5 32 C9.64045375 33.09805807 9.64045375 33.09805807 13 33 C12.8125 34.875 12.8125 34.875 12 37 C8.92965959 38.89638673 6.99856543 38.99995053 3.375 38.875 C0 38 0 38 -1.67895508 36.25683594 C-3.20695268 33.64644787 -3.42004835 32.02241421 -3.51171875 29.015625 C-3.54716797 28.08105469 -3.58261719 27.14648438 -3.61914062 26.18359375 C-3.65297852 24.73146484 -3.65297852 24.73146484 -3.6875 23.25 C-3.72166016 22.26644531 -3.75582031 21.28289062 -3.79101562 20.26953125 C-3.87335273 17.84646801 -3.94254838 15.42376002 -4 13 C-4.99 12.67 -5.98 12.34 -7 12 C-7 10.68 -7 9.36 -7 8 C-6.401875 7.979375 -5.80375 7.95875 -5.1875 7.9375 C-2.56685398 7.09543384 -2.56685398 7.09543384 -1.25 3.4375 C-0.8375 2.303125 -0.425 1.16875 0 0 Z " fill="#EBECED" transform="translate(265,210)"/>
<path d="M0 0 C4.73982919 1.12213225 8.33033399 4.42654037 12.06884766 7.40917969 C12.91382813 8.06015625 13.75880859 8.71113281 14.62939453 9.38183594 C16.1927055 10.58629316 17.74986744 11.79880649 19.29858398 13.02197266 C23.25459485 16.08213289 23.25459485 16.08213289 28.25634766 16.53417969 C30.17822266 18.50292969 30.17822266 18.50292969 32.00634766 21.03417969 C32.61994141 21.86949219 33.23353516 22.70480469 33.86572266 23.56542969 C34.55408203 24.53996094 34.55408203 24.53996094 35.25634766 25.53417969 C31.76596714 26.77218651 29.91758005 26.3356202 26.56884766 24.84667969 C25.78123047 24.5128125 24.99361328 24.17894531 24.18212891 23.83496094 C22.25634766 22.53417969 22.25634766 22.53417969 21.89697266 20.69433594 C20.83892538 17.12665213 17.65482664 15.63899687 14.69384766 13.65917969 C13.41861995 12.77967869 12.1438781 11.8994728 10.86962891 11.01855469 C9.94077881 10.38336914 9.94077881 10.38336914 8.99316406 9.73535156 C5.67038886 7.43734003 2.47218295 4.97821451 -0.74365234 2.53417969 C-5.25933222 4.68000861 -9.17372215 7.52775203 -13.24365234 10.40917969 C-14.00291016 10.93898437 -14.76216797 11.46878906 -15.54443359 12.01464844 C-22.52475426 16.62763252 -22.52475426 16.62763252 -26.74365234 23.53417969 C-28.45068359 24.51855469 -28.45068359 24.51855469 -30.55615234 25.28417969 C-31.24322266 25.54714844 -31.93029297 25.81011719 -32.63818359 26.08105469 C-34.74365234 26.53417969 -34.74365234 26.53417969 -38.74365234 25.53417969 C-36.10365234 22.23417969 -33.46365234 18.93417969 -30.74365234 15.53417969 C-29.75365234 15.86417969 -28.76365234 16.19417969 -27.74365234 16.53417969 C-25.71092879 15.50798637 -25.71092879 15.50798637 -23.65380859 13.89355469 C-22.86941406 13.31734375 -22.08501953 12.74113281 -21.27685547 12.14746094 C-20.46152344 11.53257812 -19.64619141 10.91769531 -18.80615234 10.28417969 C-17.9946875 9.68476563 -17.18322266 9.08535156 -16.34716797 8.46777344 C-11.9752652 5.23814005 -11.9752652 5.23814005 -7.70703125 1.87451172 C-5.19608583 0.16037464 -3.01412393 -0.1187488 0 0 Z " fill="#D0D3D5" transform="translate(208.74365234375,122.4658203125)"/>
<path d="M0 0 C0.01458252 0.74161377 0.02916504 1.48322754 0.04418945 2.24731445 C0.11859457 5.60290631 0.21528006 8.95749494 0.3125 12.3125 C0.33505859 13.47974609 0.35761719 14.64699219 0.38085938 15.84960938 C0.41630859 16.96787109 0.45175781 18.08613281 0.48828125 19.23828125 C0.51446533 20.26993408 0.54064941 21.30158691 0.56762695 22.36450195 C1.04871035 25.29691033 1.69133671 26.20735923 4 28 C3.67 28.66 3.34 29.32 3 30 C-1.95 30 -6.9 30 -12 30 C-12 28.68 -12 27.36 -12 26 C-10.68 26 -9.36 26 -8 26 C-8.33 19.73 -8.66 13.46 -9 7 C-10.32 6.67 -11.64 6.34 -13 6 C-13 5.01 -13 4.02 -13 3 C-11.40084119 2.30093058 -9.79544955 1.61610532 -8.1875 0.9375 C-7.29417969 0.55464844 -6.40085937 0.17179688 -5.48046875 -0.22265625 C-3 -1 -3 -1 0 0 Z " fill="#E4E5E6" transform="translate(126,218)"/>
<path d="M0 0 C0 8.91 0 17.82 0 27 C1.32 27.33 2.64 27.66 4 28 C4 28.99 4 29.98 4 31 C-1.28 31 -6.56 31 -12 31 C-11.67 29.68 -11.34 28.36 -11 27 C-10.01 27 -9.02 27 -8 27 C-8 20.4 -8 13.8 -8 7 C-9.32 7 -10.64 7 -12 7 C-11.77734375 5.109375 -11.77734375 5.109375 -11 3 C-9.00390625 1.953125 -9.00390625 1.953125 -6.5625 1.25 C-5.35787109 0.88648438 -5.35787109 0.88648438 -4.12890625 0.515625 C-2 0 -2 0 0 0 Z " fill="#E7E8E9" transform="translate(254,217)"/>
<path d="M0 0 C1.20484722 5.63526965 1.1129643 11.14536115 1.0625 16.875 C1.05798828 17.84953125 1.05347656 18.8240625 1.04882812 19.828125 C1.03710906 22.21881434 1.02070219 24.6093744 1 27 C2.32 27.33 3.64 27.66 5 28 C5 28.99 5 29.98 5 31 C-0.28 31 -5.56 31 -11 31 C-10.67 29.68 -10.34 28.36 -10 27 C-9.34 26.67 -8.68 26.34 -8 26 C-8 20.06 -8 14.12 -8 8 C-8.99 7.67 -9.98 7.34 -11 7 C-10.74609375 5.109375 -10.74609375 5.109375 -10 3 C-8.22265625 1.953125 -8.22265625 1.953125 -6.0625 1.25 C-5.35222656 1.00765625 -4.64195313 0.7653125 -3.91015625 0.515625 C-2 0 -2 0 0 0 Z " fill="#E8E9EA" transform="translate(88,217)"/>
<path d="M0 0 C0 0.66 0 1.32 0 2 C1.32 2 2.64 2 4 2 C4.495 4.97 4.495 4.97 5 8 C3.65144233 8.80118392 2.29578257 9.59041608 0.9375 10.375 C0.18339844 10.81585938 -0.57070312 11.25671875 -1.34765625 11.7109375 C-4 13 -4 13 -7.30859375 13.80078125 C-11.99479829 15.32317786 -15.17260198 17.78064352 -19 20.8125 C-21.01523551 22.37411449 -23.03209193 23.93357552 -25.05078125 25.49072266 C-26.34820473 26.49531584 -27.63738195 27.51065199 -28.91796875 28.53662109 C-30.75 29.94921875 -30.75 29.94921875 -34 32 C-36.203125 31.62817383 -36.203125 31.62817383 -38 31 C-33.25549658 27.11458362 -28.31503862 23.5051799 -23.375 19.875 C-22.51648438 19.24207031 -21.65796875 18.60914062 -20.7734375 17.95703125 C-17.54618584 15.58197573 -14.33456933 13.22304622 -11 11 C-10.3503125 9.88625 -10.3503125 9.88625 -9.6875 8.75 C-7.6152046 5.37292602 -4.24948924 0 0 0 Z " fill="#F1F2F3" transform="translate(244,41)"/>
<path d="M0 0 C0.99 0.33 1.98 0.66 3 1 C3.33 12.88 3.66 24.76 4 37 C11.59 37.33 19.18 37.66 27 38 C27 38.66 27 39.32 27 40 C18.09 40 9.18 40 0 40 C0 26.8 0 13.6 0 0 Z " fill="#D2D5D7" transform="translate(173,76)"/>
<path d="M0 0 C2.475 1.485 2.475 1.485 5 3 C4.67 3.99 4.34 4.98 4 6 C4.66 6.66 5.32 7.32 6 8 C-1.93944354 13.72504092 -1.93944354 13.72504092 -6.375 14.875 C-11.24742422 16.38713165 -14.64077823 19.21671361 -18.64453125 22.3203125 C-21 24 -21 24 -23 24 C-22.70822359 20.84027493 -22.00164228 20.00144457 -19.56640625 17.859375 C-18.07947266 16.81523438 -18.07947266 16.81523438 -16.5625 15.75 C-15.57378906 15.04359375 -14.58507812 14.3371875 -13.56640625 13.609375 C-11 12 -11 12 -9 12 C-8.91878906 11.25363281 -8.83757812 10.50726563 -8.75390625 9.73828125 C-7.83209332 6.39014205 -6.60764075 5.34904251 -3.9375 3.1875 C-3.20402344 2.58292969 -2.47054688 1.97835937 -1.71484375 1.35546875 C-1.14894531 0.90816406 -0.58304687 0.46085937 0 0 Z " fill="#DEDFE1" transform="translate(266,73)"/>
<path d="M0 0 C1.29315061 0.95632999 2.58446853 1.91513851 3.875 2.875 C4.59429687 3.40867187 5.31359375 3.94234375 6.0546875 4.4921875 C8 6 8 6 10 8 C10 9.32 10 10.64 10 12 C10.56332031 12.27070312 11.12664062 12.54140625 11.70703125 12.8203125 C14.12101878 14.06226179 16.39890296 15.41483726 18.6875 16.875 C19.47511719 17.36742188 20.26273438 17.85984375 21.07421875 18.3671875 C23.24613432 20.20868995 23.64537771 21.22312716 24 24 C20.24968645 22.68410051 17.64134066 21.06987869 14.625 18.5 C10.81288586 15.43770666 7.7634585 14.21251671 3 13 C0.23460817 11.4756144 -2.39032035 9.77593784 -5 8 C-4.34 7.34 -3.68 6.68 -3 6 C-3 4.68 -3 3.36 -3 2 C-2.34 2 -1.68 2 -1 2 C-0.67 1.34 -0.34 0.68 0 0 Z " fill="#DDDEE0" transform="translate(147,73)"/>
<path d="M0 0 C1.9375 1.6875 1.9375 1.6875 3 4 C2.87177883 7.14141856 2.4995896 9.21117432 0.8125 11.875 C-1.91172344 13.56589731 -3.85933099 13.38457172 -7 13 C-9.88507392 11.51847555 -10.77668044 10.62210448 -11.875 7.5625 C-12.01876202 4.61537855 -11.72397707 3.38073024 -10 1 C-6.62069707 -1.5344772 -3.94734591 -1.17580516 0 0 Z " fill="#EBECED" transform="translate(253,264)"/>
<path d="M0 0 C2.475 1.485 2.475 1.485 5 3 C4.67 4.32 4.34 5.64 4 7 C4.66 7.33 5.32 7.66 6 8 C0.7355677 11.79612125 -3.67251971 14.32859011 -10 16 C-11.051875 16.721875 -12.10375 17.44375 -13.1875 18.1875 C-16 20 -16 20 -18.17578125 19.61328125 C-18.77777344 19.41089844 -19.37976563 19.20851563 -20 19 C-18.54634731 17.82750647 -17.08692581 16.66216184 -15.625 15.5 C-14.81289062 14.8503125 -14.00078125 14.200625 -13.1640625 13.53125 C-11 12 -11 12 -9 12 C-8.91878906 11.25363281 -8.83757812 10.50726563 -8.75390625 9.73828125 C-7.83209332 6.39014205 -6.60764075 5.34904251 -3.9375 3.1875 C-3.20402344 2.58292969 -2.47054687 1.97835937 -1.71484375 1.35546875 C-1.14894531 0.90816406 -0.58304688 0.46085937 0 0 Z " fill="#EFF0F1" transform="translate(251,51)"/>
<path d="M0 0 C1.29315061 0.95632999 2.58446853 1.91513851 3.875 2.875 C4.59429687 3.40867188 5.31359375 3.94234375 6.0546875 4.4921875 C8 6 8 6 10 8 C10 9.32 10 10.64 10 12 C10.515625 12.226875 11.03125 12.45375 11.5625 12.6875 C14.92403127 14.4975553 17.92911144 16.73996404 21 19 C19.20703125 19.64453125 19.20703125 19.64453125 17 20 C15.32421875 19.07421875 15.32421875 19.07421875 13.6875 17.6875 C10.26736463 15.03143742 7.18299289 14.17417344 3 13 C0.2364941 11.47228723 -2.39030933 9.77594534 -5 8 C-4.34 7.67 -3.68 7.34 -3 7 C-3.33 5.68 -3.66 4.36 -4 3 C-3.01 2.67 -2.02 2.34 -1 2 C-0.67 1.34 -0.34 0.68 0 0 Z " fill="#E8E9EA" transform="translate(162,51)"/>
<path d="M0 0 C2 0 2 0 3.625 1.5 C4.305625 2.2425 4.305625 2.2425 5 3 C4.67 3.99 4.34 4.98 4 6 C4.66 6.33 5.32 6.66 6 7 C6 7.66 6 8.32 6 9 C-2.45848971 14.02522518 -2.45848971 14.02522518 -6.9375 15.1875 C-10.08223631 15.7474793 -10.08223631 15.7474793 -12 18 C-12.99 18 -13.98 18 -15 18 C-13.53170779 14.57398484 -11.65826494 12.58641994 -9 10 C-7.17971175 7.88243872 -5.37666512 5.75199233 -3.5859375 3.609375 C-3.06257812 3.07828125 -2.53921875 2.5471875 -2 2 C-1.34 2 -0.68 2 0 2 C0 1.34 0 0.68 0 0 Z " fill="#DCDEDF" transform="translate(258,62)"/>
<path d="M0 0 C0 0.66 0 1.32 0 2 C0.556875 2.20625 1.11375 2.4125 1.6875 2.625 C4.28423179 4.16900269 5.84263911 6.05741342 7.69921875 8.4140625 C9.16192017 10.25657043 9.16192017 10.25657043 11.75 12.6875 C14 15 14 15 15 18 C12.03824877 17.38722388 10.61941217 16.74627478 8 15 C6.55463698 14.48302559 5.09446743 14.00634938 3.625 13.5625 C0.09776388 12.42319698 -2.99199566 11.23174516 -6 9 C-6 8.34 -6 7.68 -6 7 C-5.34 6.67 -4.68 6.34 -4 6 C-4.33 5.01 -4.66 4.02 -5 3 C-2.25 0 -2.25 0 0 0 Z " fill="#DCDEDF" transform="translate(156,62)"/>
<path d="M0 0 C5.26951365 1.80751013 9.05400545 4.99283927 13.37890625 8.41796875 C15.82886155 10.25949386 15.82886155 10.25949386 18.33984375 9.73828125 C19.16162109 9.37283203 19.16162109 9.37283203 20 9 C21.17249353 10.45365269 22.33783816 11.91307419 23.5 13.375 C24.1496875 14.18710938 24.799375 14.99921875 25.46875 15.8359375 C27 18 27 18 27 20 C25.58194169 19.71517632 24.16559621 19.42181856 22.75 19.125 C21.96109375 18.96257812 21.1721875 18.80015625 20.359375 18.6328125 C17.95408701 17.98768559 16.07414008 17.38581926 14 16 C13.86376221 15.36884277 13.72752441 14.73768555 13.5871582 14.08740234 C12.86046969 11.5039567 12.02606591 10.91874783 9.83984375 9.421875 C9.21142578 8.98359375 8.58300781 8.5453125 7.93554688 8.09375 C7.27619141 7.6503125 6.61683594 7.206875 5.9375 6.75 C5.27427734 6.29109375 4.61105469 5.8321875 3.92773438 5.359375 C2.29197693 4.22964324 0.64685766 3.11348827 -1 2 C-0.67 1.34 -0.34 0.68 0 0 Z " fill="#E5E6E7" transform="translate(224,118)"/>
<path d="M0 0 C-1.72881476 4.803479 -5.81533589 6.97956087 -9.83203125 9.73242188 C-11.27104609 10.75506317 -12.64175862 11.87228582 -14 13 C-14 13.99 -14 14.98 -14 16 C-15.60149886 16.67305018 -17.20631029 17.33822227 -18.8125 18 C-19.70582031 18.37125 -20.59914062 18.7425 -21.51953125 19.125 C-24 20 -24 20 -27 20 C-25.5140084 15.40693504 -23.14985318 12.56430755 -20 9 C-19.40977051 9.20810303 -18.81954102 9.41620605 -18.21142578 9.63061523 C-15.66424586 10.30557966 -15.66424586 10.30557966 -12.6171875 7.91015625 C-11.36033471 6.97349534 -10.11319162 6.02369411 -8.875 5.0625 C-2.21987952 0 -2.21987952 0 0 0 Z " fill="#E6E7E8" transform="translate(190,118)"/>
<path d="M0 0 C5.13071136 1.97335052 9.03590922 5.98417381 11.375 10.875 C11.58125 11.57625 11.7875 12.2775 12 13 C7.5197533 14.49341557 4.26105793 12.72382554 0 11 C-3.0625 9.3125 -3.0625 9.3125 -5 8 C-4.67 6.02 -4.34 4.04 -4 2 C-2.68 2 -1.36 2 0 2 C0 1.34 0 0.68 0 0 Z " fill="#EBECED" transform="translate(170,41)"/>
<path d="M0 0 C3.96 0 7.92 0 12 0 C12 0.99 12 1.98 12 3 C11.34 3 10.68 3 10 3 C7.87504839 6.91981366 6.41573223 11.0774907 4.875 15.25 C4.45927734 16.36761719 4.45927734 16.36761719 4.03515625 17.5078125 C3.35477584 19.33780118 2.67711757 21.16880153 2 23 C1.34 22.34 0.68 21.68 0 21 C-0.99 21 -1.98 21 -3 21 C-2.71382813 20.46890625 -2.42765625 19.9378125 -2.1328125 19.390625 C-0.79673712 16.57104523 0.15786163 13.71589101 1.125 10.75 C1.65480469 9.13351563 1.65480469 9.13351563 2.1953125 7.484375 C2.46085937 6.66453125 2.72640625 5.8446875 3 5 C2.01 4.34 1.02 3.68 0 3 C0 2.01 0 1.02 0 0 Z " fill="#D6D8DA" transform="translate(300,218)"/>
<path d="M0 0 C-1.45855647 3.68646141 -3.30229045 5.16143971 -6.625 7.25 C-7.85089844 8.03117187 -7.85089844 8.03117187 -9.1015625 8.828125 C-10.04128906 9.40820312 -10.04128906 9.40820312 -11 10 C-10.67 10.99 -10.34 11.98 -10 13 C-11.39015811 13.67842139 -12.7874527 14.342229 -14.1875 15 C-14.96480469 15.37125 -15.74210938 15.7425 -16.54296875 16.125 C-19.18882858 17.06724579 -21.21350885 17.1583796 -24 17 C-23.59007812 16.45730469 -23.18015625 15.91460937 -22.7578125 15.35546875 C-22.21898437 14.64003906 -21.68015625 13.92460938 -21.125 13.1875 C-20.59132812 12.47980469 -20.05765625 11.77210937 -19.5078125 11.04296875 C-18.29185219 9.39543703 -17.13583859 7.70375789 -16 6 C-15.34 6 -14.68 6 -14 6 C-14 6.66 -14 7.32 -14 8 C-13.24074219 7.4225 -12.48148438 6.845 -11.69921875 6.25 C-10.70535156 5.5075 -9.71148437 4.765 -8.6875 4 C-7.70136719 3.2575 -6.71523437 2.515 -5.69921875 1.75 C-3 0 -3 0 0 0 Z " fill="#E2E3E5" transform="translate(171,99)"/>
<path d="M0 0 C3.76119476 0.62393651 6.18960042 2.34773715 9.25 4.5625 C10.14203125 5.20316406 11.0340625 5.84382813 11.953125 6.50390625 C12.96632812 7.24447266 12.96632812 7.24447266 14 8 C14 7.34 14 6.68 14 6 C17.61262246 7.20420749 18.42486665 8.5021294 20.6875 11.5 C21.31011719 12.3146875 21.93273437 13.129375 22.57421875 13.96875 C24 16 24 16 24 17 C18.72250715 16.46148032 14.74354436 15.22656164 10 13 C10.33 12.01 10.66 11.02 11 10 C10.2059375 9.44570312 9.411875 8.89140625 8.59375 8.3203125 C7.5728125 7.59585938 6.551875 6.87140625 5.5 6.125 C4.4790625 5.40570313 3.458125 4.68640625 2.40625 3.9453125 C1.6121875 3.30335937 0.818125 2.66140625 0 2 C0 1.34 0 0.68 0 0 Z " fill="#E2E3E4" transform="translate(243,99)"/>
<path d="M0 0 C4.29 0 8.58 0 13 0 C13 0.99 13 1.98 13 3 C12.2575 3.66 11.515 4.32 10.75 5 C6.75029356 8.68064154 5.58242847 13.95214159 4 19 C3.34 18.34 2.68 17.68 2 17 C1.34 17.33 0.68 17.66 0 18 C0.99 13.71 1.98 9.42 3 5 C2.01 4.34 1.02 3.68 0 3 C0 2.01 0 1.02 0 0 Z " fill="#D2D4D6" transform="translate(148,218)"/>
<path d="M0 0 C3.32514596 0.62159681 5.4613137 1.82100638 8.1875 3.80078125 C8.96867188 4.36603516 9.74984375 4.93128906 10.5546875 5.51367188 C11.36164063 6.10728516 12.16859375 6.70089844 13 7.3125 C13.80695313 7.89451172 14.61390625 8.47652344 15.4453125 9.07617188 C19.26094075 11.85603965 22.65926976 14.65926976 26 18 C28.39788436 17.78842197 29.85584361 17.07207819 32 16 C31.375 17.9375 31.375 17.9375 30 20 C27.1875 21.0625 27.1875 21.0625 24 21 C22.84270662 19.85975699 21.69249739 18.71133182 20.58129883 17.52612305 C16.61494175 13.69816287 11.76476262 10.76838723 7.2421875 7.640625 C6.06269531 6.80917969 6.06269531 6.80917969 4.859375 5.9609375 C4.14233398 5.46384277 3.42529297 4.96674805 2.68652344 4.45458984 C1 3 1 3 0 0 Z " fill="#D1D4D6" transform="translate(181,54)"/>
<path d="M0 0 C2 3 2 3 1.9375 5.875 C0.75580705 9.8139765 -0.7995372 11.45417732 -4 14 C-6.625 14.9375 -6.625 14.9375 -9 15 C-9.99 14.34 -10.98 13.68 -12 13 C-12.1875 10.375 -12.1875 10.375 -12 8 C-7.375 5.875 -7.375 5.875 -4 7 C-1.49962266 4.82575883 -0.56371414 3.26954202 0 0 Z " fill="#E4E6E7" transform="translate(294,248)"/>
<path d="M0 0 C1.8125 2.5 1.8125 2.5 3 5 C2.01 6.32 1.02 7.64 0 9 C-4.75 8.125 -4.75 8.125 -7 7 C-7.66 7.66 -8.32 8.32 -9 9 C-9 8.34 -9 7.68 -9 7 C-9.99 7 -10.98 7 -12 7 C-12 5.02 -12 3.04 -12 1 C-11.67 1.99 -11.34 2.98 -11 4 C-10.113125 3.34 -9.22625 2.68 -8.3125 2 C-3.564118 -0.86694762 -3.564118 -0.86694762 0 0 Z " fill="#D9DBDD" transform="translate(213,217)"/>
<path d="M0 0 C0.928125 0.33 1.85625 0.66 2.8125 1 C5.92029291 2.14967004 5.92029291 2.14967004 9 2 C10.82421875 3.96875 10.82421875 3.96875 12.6875 6.5 C13.31011719 7.3353125 13.93273437 8.170625 14.57421875 9.03125 C15.04472656 9.6809375 15.51523437 10.330625 16 11 C11.61735163 12.54093116 9.0281266 11.1582026 4.9921875 9.24609375 C3 8 3 8 1.5 5.4375 C1.335 4.633125 1.17 3.82875 1 3 C0.67 2.01 0.34 1.02 0 0 Z " fill="#E4E5E6" transform="translate(243,115)"/>
<path d="M0 0 C-0.433125 0.8353125 -0.433125 0.8353125 -0.875 1.6875 C-2.09075067 3.97890803 -2.09075067 3.97890803 -2.625 6.5625 C-4.47730619 9.8461337 -6.48149888 10.37164408 -9.9296875 11.6171875 C-12.27354481 12.05057998 -13.75451126 11.73507031 -16 11 C-14.90751403 9.49147143 -13.80061501 7.99337169 -12.6875 6.5 C-11.76517578 5.24703125 -11.76517578 5.24703125 -10.82421875 3.96875 C-10.22222656 3.3190625 -9.62023437 2.669375 -9 2 C-8.01 2 -7.02 2 -6 2 C-1.875 0 -1.875 0 0 0 Z " fill="#DCDDDF" transform="translate(171,115)"/>
<path d="M0 0 C2.475 0.495 2.475 0.495 5 1 C5.66 2.98 6.32 4.96 7 7 C9.31 7 11.62 7 14 7 C13.67 8.32 13.34 9.64 13 11 C11.39504433 10.88557539 9.79101881 10.75805306 8.1875 10.625 C6.84751953 10.52058594 6.84751953 10.52058594 5.48046875 10.4140625 C3 10 3 10 0 8 C-0.40843923 5.28796348 -0.13336867 2.7562858 0 0 Z " fill="#D6D8DA" transform="translate(217,238)"/>
<path d="M0 0 C0.99 0.33 1.98 0.66 3 1 C-1.10283756 5.40463675 -5.64095381 8.80280542 -10.5625 12.25 C-11.31724609 12.79140625 -12.07199219 13.3328125 -12.84960938 13.890625 C-13.58115234 14.40625 -14.31269531 14.921875 -15.06640625 15.453125 C-16.0555603 16.15163574 -16.0555603 16.15163574 -17.06469727 16.86425781 C-19.04836155 18.02838122 -20.75268034 18.56336002 -23 19 C-23.33 18.34 -23.66 17.68 -24 17 C-23.52433594 16.69449219 -23.04867187 16.38898438 -22.55859375 16.07421875 C-18.6714508 13.53290062 -14.8686988 10.92350607 -11.16796875 8.1171875 C-10.501604 7.61485596 -9.83523926 7.11252441 -9.14868164 6.5949707 C-7.80665509 5.57869605 -6.4710799 4.55384179 -5.14233398 3.52026367 C-3.48440945 2.26871214 -1.74654683 1.12457512 0 0 Z " fill="#CFD2D4" transform="translate(230,54)"/>
<path d="M0 0 C1.703125 2.1640625 1.703125 2.1640625 3.25 4.625 C3.77078125 5.44226563 4.2915625 6.25953125 4.828125 7.1015625 C5.21484375 7.72804687 5.6015625 8.35453125 6 9 C1.06836837 8.50683684 -2.79663996 7.70216003 -7 5 C-7.8125 2.9375 -7.8125 2.9375 -8 1 C-8.33 0.34 -8.66 -0.32 -9 -1 C-5.16416747 -2.06550904 -3.35918327 -2.17054919 0 0 Z " fill="#E0E2E3" transform="translate(238,140)"/>
<path d="M0 0 C3.62528568 -0.20140476 5.86501708 0.14223235 9 2 C9 3.32 9 4.64 9 6 C9.66 6 10.32 6 11 6 C10.67 4.68 10.34 3.36 10 2 C18.94805195 0.64935065 18.94805195 0.64935065 23 2 C23 3.65 23 5.3 23 7 C20.525 6.505 20.525 6.505 18 6 C18 5.34 18 4.68 18 4 C17.34 4 16.68 4 16 4 C15.67 4.66 15.34 5.32 15 6 C15.66 6.33 16.32 6.66 17 7 C15.56260487 7.02712066 14.12506137 7.04645067 12.6875 7.0625 C11.48673828 7.07990234 11.48673828 7.07990234 10.26171875 7.09765625 C8 7 8 7 5 6 C4.6278958 4.67696283 4.29369827 3.34262065 4 2 C3.34 1.67 2.68 1.34 2 1 C2 2.65 2 4.3 2 6 C1.67 6 1.34 6 1 6 C0.67 4.02 0.34 2.04 0 0 Z " fill="#4F5860" transform="translate(211,88)"/>
<path d="M0 0 C3.11257569 0 5.10765685 -0.17361624 8 -1 C8.33 0.65 8.66 2.3 9 4 C5.39006828 5.13480527 2.0157673 5.10015767 -1.75 5.0625 C-2.92046875 5.05347656 -4.0909375 5.04445313 -5.296875 5.03515625 C-6.18890625 5.02355469 -7.0809375 5.01195313 -8 5 C-8 3.35 -8 1.7 -8 0 C-4.8886605 -1.00007341 -3.11166412 -0.87515553 0 0 Z " fill="#676E75" transform="translate(195,90)"/>
<path d="M0 0 C2.97 0.495 2.97 0.495 6 1 C5.5 4.3125 5.5 4.3125 4 8 C1.48814619 9.65428257 -1.03038547 10.5517563 -4 11 C-5.32 10.67 -6.64 10.34 -8 10 C-5.36 6.7 -2.72 3.4 0 0 Z " fill="#E0E2E3" transform="translate(178,138)"/>
<path d="M0 0 C3 -0.3125 3 -0.3125 6 0 C6.66 0.66 7.32 1.32 8 2 C7.43181818 7.56818182 7.43181818 7.56818182 6 9 C3.66055264 8.71269945 1.3260857 8.38063221 -1 8 C-1.625 5.6875 -1.625 5.6875 -2 3 C-1.34 2.01 -0.68 1.02 0 0 Z " fill="#E4E5E6" transform="translate(247,203)"/>
<path d="M0 0 C2.95529457 0.36040178 3.75137927 1.02476855 5.5625 3.3125 C3.6875 8.1875 3.6875 8.1875 2.5625 9.3125 C0.125 9.5 0.125 9.5 -2.4375 9.3125 C-4.4375 7.3125 -4.4375 7.3125 -4.6875 4.8125 C-4.34234788 1.3609788 -3.44095645 0.44114826 0 0 Z " fill="#E9EBEB" transform="translate(121.4375,202.6875)"/>
<path d="M0 0 C7.92 0 15.84 0 24 0 C24.66 1.32 25.32 2.64 26 4 C28.64 4 31.28 4 34 4 C34 4.99 34 5.98 34 7 C31.3125 7.75 31.3125 7.75 28 8 C25.125 6.25 25.125 6.25 23 4 C23 3.01 23 2.02 23 1 C15.41 1 7.82 1 0 1 C0 0.67 0 0.34 0 0 Z " fill="#A7ABAF" transform="translate(177,113)"/>
<path d="M0 0 C-1.47710156 4.43130468 -4.68566119 6.06871473 -8.375 8.75 C-9.06078125 9.26949219 -9.7465625 9.78898438 -10.453125 10.32421875 C-11.44699219 11.05318359 -11.44699219 11.05318359 -12.4609375 11.796875 C-13.06728027 12.24385742 -13.67362305 12.69083984 -14.29833984 13.15136719 C-16 14 -16 14 -19 13 C-14.38798504 7.91088005 -7.06163995 0 0 0 Z " fill="#D6D8DA" transform="translate(202,126)"/>
<path d="M0 0 C-1.51407411 4.18036815 -4.54797403 6.12493988 -8.0625 8.5625 C-12.49601968 11.45915073 -12.49601968 11.45915073 -15 16 C-15.33 14.68 -15.66 13.36 -16 12 C-16.66 12 -17.32 12 -18 12 C-16.71130091 9.42260182 -15.22551968 8.68517688 -12.8125 7.125 C-12.00296875 6.5990625 -11.1934375 6.073125 -10.359375 5.53125 C-9.58078125 5.0259375 -8.8021875 4.520625 -8 4 C-6.85318422 3.20975719 -5.70717569 2.41833959 -4.5625 1.625 C-2 0 -2 0 0 0 Z " fill="#CDD0D2" transform="translate(190,118)"/>
<path d="M0 0 C2.87506421 -0.02712325 5.74986908 -0.04689851 8.625 -0.0625 C9.83736328 -0.07506836 9.83736328 -0.07506836 11.07421875 -0.08789062 C15.50341918 -0.1058955 19.63883424 0.10377338 24 1 C24 1.33 24 1.66 24 2 C5.81818182 4.90909091 5.81818182 4.90909091 0 2 C0 1.34 0 0.68 0 0 Z " fill="#CBCDD0" transform="translate(198,49)"/>
<path d="M0 0 C4.15151338 1.44202476 7.29978445 3.5010438 10.8125 6.125 C11.78832031 6.84945312 12.76414063 7.57390625 13.76953125 8.3203125 C14.87361328 9.15175781 14.87361328 9.15175781 16 10 C15.67 11.98 15.34 13.96 15 16 C14.81695312 15.44828125 14.63390625 14.8965625 14.4453125 14.328125 C12.29376424 10.8623878 9.2091905 9.02121095 5.875 6.75 C5.21628906 6.29109375 4.55757812 5.8321875 3.87890625 5.359375 C2.2579995 4.23178769 0.62970314 3.11483609 -1 2 C-0.67 1.34 -0.34 0.68 0 0 Z " fill="#C7CACC" transform="translate(224,118)"/>
<path d="M0 0 C0.66 0.33 1.32 0.66 2 1 C0.50610707 4.83658866 -1.63623019 6.46185426 -5 8.75 C-6.3303125 9.67039062 -6.3303125 9.67039062 -7.6875 10.609375 C-10 12 -10 12 -12 12 C-11.71855013 8.79580145 -10.99711793 7.99753608 -8.49609375 5.859375 C-7.48675781 5.16328125 -6.47742188 4.4671875 -5.4375 3.75 C-4.42558594 3.04359375 -3.41367188 2.3371875 -2.37109375 1.609375 C-1.58863281 1.07828125 -0.80617187 0.5471875 0 0 Z " fill="#CACCCF" transform="translate(255,85)"/>
<path d="M0 0 C3.38848585 0.64357969 5.8081942 1.93262266 8.6875 3.8125 C9.47511719 4.31394531 10.26273438 4.81539063 11.07421875 5.33203125 C13.22884474 7.19820832 13.64416666 8.21967508 14 11 C10.21908383 9.65686815 7.34348084 7.97035316 4.1875 5.5 C3.39730469 4.8915625 2.60710937 4.283125 1.79296875 3.65625 C1.20128906 3.1096875 0.60960937 2.563125 0 2 C0 1.34 0 0.68 0 0 Z " fill="#D1D3D6" transform="translate(157,86)"/>
<path d="M0 0 C0 0.66 0 1.32 0 2 C1.32 2 2.64 2 4 2 C4.33 3.98 4.66 5.96 5 8 C3.68 7.67 2.36 7.34 1 7 C1 6.01 1 5.02 1 4 C-2.88595704 3.55427485 -2.88595704 3.55427485 -4.703125 5.53125 C-5.46882812 6.50578125 -5.46882812 6.50578125 -6.25 7.5 C-6.77078125 8.1496875 -7.2915625 8.799375 -7.828125 9.46875 C-8.21484375 9.9740625 -8.6015625 10.479375 -9 11 C-9.33 10.01 -9.66 9.02 -10 8 C-8.71451591 6.66070495 -7.42141845 5.32871357 -6.125 4 C-5.04605469 2.88625 -5.04605469 2.88625 -3.9453125 1.75 C-2 0 -2 0 0 0 Z " fill="#CACDD0" transform="translate(244,41)"/>
<path d="M0 0 C1.65 0 3.3 0 5 0 C5.625 2.375 5.625 2.375 6 5 C4 7 4 7 1.375 7.125 C0.59125 7.08375 -0.1925 7.0425 -1 7 C-0.67 4.69 -0.34 2.38 0 0 Z " fill="#767D83" transform="translate(180,88)"/>
<path d="M0 0 C1.7015625 0.4640625 1.7015625 0.4640625 3.4375 0.9375 C3.4375 1.2675 3.4375 1.5975 3.4375 1.9375 C1.890625 2.30875 1.890625 2.30875 0.3125 2.6875 C-2.64093386 3.50491503 -4.10741655 4.31146234 -6.75 6.125 C-9.5625 7.9375 -9.5625 7.9375 -11.73828125 7.55078125 C-12.34027344 7.34839844 -12.94226563 7.14601563 -13.5625 6.9375 C-5.29302685 -0.73856189 -5.29302685 -0.73856189 0 0 Z " fill="#CBCED0" transform="translate(244.5625,63.0625)"/>
<path d="M0 0 C4.875 1.75 4.875 1.75 6 4 C8.16874252 3.49396008 9.99967627 3.00016187 12 2 C11.375 3.9375 11.375 3.9375 10 6 C6.59753927 7.10949806 4.86234363 7.43117181 1.625 5.8125 C0 4 0 4 0 0 Z " fill="#8B9196" transform="translate(201,68)"/>
<path d="M0 0 C3.43950364 0.61198376 5.51564485 1.92058847 8.25 4.0625 C8.95640625 4.61035156 9.6628125 5.15820312 10.390625 5.72265625 C11.18726563 6.35494141 11.18726563 6.35494141 12 7 C11.01 7.66 10.02 8.32 9 9 C7.49428343 7.88266271 5.99555708 6.75589965 4.5 5.625 C3.6646875 4.99851562 2.829375 4.37203125 1.96875 3.7265625 C1.3190625 3.15679687 0.669375 2.58703125 0 2 C0 1.34 0 0.68 0 0 Z " fill="#CED0D3" transform="translate(243,99)"/>
<path d="M0 0 C-1.40929697 3.47132095 -2.90605083 4.88093274 -6.125 6.75 C-6.84945312 7.17796875 -7.57390625 7.6059375 -8.3203125 8.046875 C-8.87460938 8.36140625 -9.42890625 8.6759375 -10 9 C-10.66 8.34 -11.32 7.68 -12 7 C-10.56967163 5.82455195 -9.13046758 4.65989738 -7.6875 3.5 C-6.88699219 2.8503125 -6.08648437 2.200625 -5.26171875 1.53125 C-3 0 -3 0 0 0 Z " fill="#CED0D3" transform="translate(171,99)"/>
<path d="M0 0 C-1.08099476 3.24298429 -1.65626616 3.81612526 -4.3125 5.75 C-4.90675781 6.19859375 -5.50101563 6.6471875 -6.11328125 7.109375 C-8 8 -8 8 -10.23046875 7.640625 C-10.81441406 7.42921875 -11.39835938 7.2178125 -12 7 C-10.33784732 5.66104368 -8.67036393 4.32869858 -7 3 C-6.29875 2.4225 -5.5975 1.845 -4.875 1.25 C-3 0 -3 0 0 0 Z " fill="#DADBDD" transform="translate(218,65)"/>
<path d="M0 0 C2 1.5 2 1.5 3 3 C1.25 3.625 1.25 3.625 -1 4 C-1.66 3.649375 -2.32 3.29875 -3 2.9375 C-3.66 2.628125 -4.32 2.31875 -5 2 C-7.23470405 2.78309467 -7.23470405 2.78309467 -9 4 C-9.66 3.34 -10.32 2.68 -11 2 C-7.22364747 -0.51756835 -4.43634442 -0.63772451 0 0 Z " fill="#C2C5C8" transform="translate(211,123)"/>
<path d="M0 0 C0.5775 0.165 1.155 0.33 1.75 0.5 C4.26664369 1.14462031 4.26664369 1.14462031 8 1 C8 2.65 8 4.3 8 6 C6.35 5.67 4.7 5.34 3 5 C3 4.34 3 3.68 3 3 C2.01 2.67 1.02 2.34 0 2 C0 1.34 0 0.68 0 0 Z " fill="#787F85" transform="translate(226,89)"/>
<path d="M0 0 C3.15330554 0.60694155 5.18888867 1.6416665 7.75 3.5625 C8.67039063 4.24505859 8.67039063 4.24505859 9.609375 4.94140625 C10.29773438 5.46541016 10.29773438 5.46541016 11 6 C9.234375 6.64453125 9.234375 6.64453125 7 7 C5.078125 6.07421875 5.078125 6.07421875 3.25 4.6875 C2.63640625 4.23761719 2.0228125 3.78773437 1.390625 3.32421875 C0.93171875 2.88722656 0.4728125 2.45023437 0 2 C0 1.34 0 0.68 0 0 Z " fill="#D2D4D7" transform="translate(172,64)"/>
<path d="M0 0 C0.928125 0.33 1.85625 0.66 2.8125 1 C5.92029291 2.14967004 5.92029291 2.14967004 9 2 C7.35 3.65 5.7 5.3 4 7 C0 2.25 0 2.25 0 0 Z " fill="#C7C9CC" transform="translate(243,115)"/>
<path d="M0 0 C2 2 2 2 2.22705078 3.87939453 C2.21657715 4.62302246 2.20610352 5.36665039 2.1953125 6.1328125 C2.18886719 6.93847656 2.18242187 7.74414062 2.17578125 8.57421875 C2.15902344 9.41597656 2.14226562 10.25773437 2.125 11.125 C2.11597656 11.97449219 2.10695312 12.82398437 2.09765625 13.69921875 C2.07405647 15.79959884 2.03818483 17.89983444 2 20 C1.67 20 1.34 20 1 20 C0.92652344 18.30230469 0.92652344 18.30230469 0.8515625 16.5703125 C0.77653486 15.08851661 0.70098703 13.606747 0.625 12.125 C0.57859375 11.00544922 0.57859375 11.00544922 0.53125 9.86328125 C0.44356169 5.46526812 0.44356169 5.46526812 -2 2 C-1.34 2 -0.68 2 0 2 C0 1.34 0 0.68 0 0 Z " fill="#ECEDEE" transform="translate(204,91)"/>
<path d="M0 0 C0.99 0.33 1.98 0.66 3 1 C3 2.65 3 4.3 3 6 C2.01 6.495 2.01 6.495 1 7 C0.01 6.67 -0.98 6.34 -2 6 C-1.34 4.02 -0.68 2.04 0 0 Z " fill="#A7ABB0" transform="translate(216,167)"/>
<path d="M0 0 C0.99 0 1.98 0 3 0 C3.66 1.98 4.32 3.96 5 6 C3.68 6.33 2.36 6.66 1 7 C0.31292445 4.50935112 0 2.62113708 0 0 Z " fill="#A7ACB0" transform="translate(195,167)"/>
<path d="M0 0 C0.66 0.33 1.32 0.66 2 1 C0.86525052 4.40424844 0.03188696 5.21653709 -3 7 C-3.99 6.67 -4.98 6.34 -6 6 C-4 4 -2 2 0 0 Z " fill="#D0D2D4" transform="translate(189,133)"/>
<path d="M0 0 C3.34249629 0.59687434 5.46436342 1.73603877 8 4 C8 4.66 8 5.32 8 6 C4.65750371 5.40312566 2.53563658 4.26396123 0 2 C0 1.34 0 0.68 0 0 Z " fill="#D7D9DB" transform="translate(212,126)"/>
<path d="M0 0 C1.65 0.99 3.3 1.98 5 3 C4.67 4.32 4.34 5.64 4 7 C4.66 7.33 5.32 7.66 6 8 C5.01 8.495 5.01 8.495 4 9 C3.34 8.67 2.68 8.34 2 8 C2 7.01 2 6.02 2 5 C1.34 5 0.68 5 0 5 C-0.5625 3.0625 -0.5625 3.0625 -1 1 C-0.67 0.67 -0.34 0.34 0 0 Z " fill="#9FA3A8" transform="translate(251,51)"/>
<path d="M0 0 C1.32 0.66 2.64 1.32 4 2 C3.67 2.99 3.34 3.98 3 5 C1.35 4.67 -0.3 4.34 -2 4 C-1.34 2.68 -0.68 1.36 0 0 Z " fill="#C5C8CB" transform="translate(206,155)"/>
<path d="M0 0 C0.66 0.33 1.32 0.66 2 1 C1 4 1 4 -1 5 C-1 5.66 -1 6.32 -1 7 C-2.32 7.33 -3.64 7.66 -5 8 C-4.67 6.02 -4.34 4.04 -4 2 C-2.68 2 -1.36 2 0 2 C0 1.34 0 0.68 0 0 Z " fill="#999EA3" transform="translate(170,41)"/>
<path d="M0 0 C2 3 2 3 1.625 6.1875 C1.41875 7.115625 1.2125 8.04375 1 9 C-0.65 8.67 -2.3 8.34 -4 8 C-3.2884375 7.13375 -3.2884375 7.13375 -2.5625 6.25 C-1.0515133 4.07417916 -0.45963849 2.57397552 0 0 Z " fill="#C4C7CA" transform="translate(294,248)"/>
<path d="M0 0 C5.28 0 10.56 0 16 0 C16 0.99 16 1.98 16 3 C15.34 2.67 14.68 2.34 14 2 C11.62876754 1.76970044 9.25258057 1.58880058 6.875 1.4375 C5.59367187 1.35371094 4.31234375 1.26992187 2.9921875 1.18359375 C1.51105469 1.09271484 1.51105469 1.09271484 0 1 C0 0.67 0 0.34 0 0 Z " fill="#C7CACD" transform="translate(280,218)"/>
<path d="M0 0 C0.99 0.33 1.98 0.66 3 1 C3 2.65 3 4.3 3 6 C1.68 6 0.36 6 -1 6 C-1.042721 4.33388095 -1.04063832 2.66617115 -1 1 C-0.67 0.67 -0.34 0.34 0 0 Z " fill="#6F767D" transform="translate(201,89)"/>
<path d="M0 0 C0.99 0.33 1.98 0.66 3 1 C3 2.65 3 4.3 3 6 C1.35 6 -0.3 6 -2 6 C-1.34 5.67 -0.68 5.34 0 5 C0 3.35 0 1.7 0 0 Z " fill="#A8ACB0" transform="translate(213,89)"/>
<path d="M0 0 C-0.309375 0.598125 -0.61875 1.19625 -0.9375 1.8125 C-2.10209704 4.08956772 -2.10209704 4.08956772 -3 7 C-3.33 5.68 -3.66 4.36 -4 3 C-4.66 3 -5.32 3 -6 3 C-4.46624489 -0.06751022 -3.38927784 0 0 0 Z " fill="#BEC1C4" transform="translate(178,127)"/>
<path d="M0 0 C1.98 0.99 1.98 0.99 4 2 C3.67 3.32 3.34 4.64 3 6 C2.01 5.67 1.02 5.34 0 5 C0 3.35 0 1.7 0 0 Z " fill="#B0B4B7" transform="translate(196,89)"/>
<path d="M0 0 C0.66 0.66 1.32 1.32 2 2 C1.67 2.99 1.34 3.98 1 5 C0.34 5 -0.32 5 -1 5 C-1 5.66 -1 6.32 -1 7 C-1.66 7 -2.32 7 -3 7 C-3.33 5.68 -3.66 4.36 -4 3 C-3.01 2.67 -2.02 2.34 -1 2 C-0.67 1.34 -0.34 0.68 0 0 Z " fill="#969BA0" transform="translate(162,51)"/>
<path d="M0 0 C1.65 0 3.3 0 5 0 C5.33 1.98 5.66 3.96 6 6 C4.68 5.67 3.36 5.34 2 5 C2 4.01 2 3.02 2 2 C1.34 2 0.68 2 0 2 C0 1.34 0 0.68 0 0 Z " fill="#93989D" transform="translate(243,43)"/>
<path d="M0 0 C1.32 0 2.64 0 4 0 C3.67 1.32 3.34 2.64 3 4 C1.68 3.67 0.36 3.34 -1 3 C-0.67 2.01 -0.34 1.02 0 0 Z " fill="#C8CBCD" transform="translate(221,151)"/>
<path d="M0 0 C2.475 0.495 2.475 0.495 5 1 C4.67 1.99 4.34 2.98 4 4 C2.68 3.67 1.36 3.34 0 3 C0 2.01 0 1.02 0 0 Z " fill="#C8CBCD" transform="translate(189,151)"/>
<path d="M0 0 C2.475 0.495 2.475 0.495 5 1 C5.33 2.32 5.66 3.64 6 5 C3.5625 4.1875 3.5625 4.1875 1 3 C0.67 2.01 0.34 1.02 0 0 Z " fill="#C6C9CC" transform="translate(165,92)"/>
<path d="M0 0 C0.94875 0.04125 1.8975 0.0825 2.875 0.125 C1.885 1.61 1.885 1.61 0.875 3.125 C-2.095 2.63 -2.095 2.63 -5.125 2.125 C-3.125 0.125 -3.125 0.125 0 0 Z " fill="#636B72" transform="translate(197.125,45.875)"/>
<path d="M0 0 C0.99 0.33 1.98 0.66 3 1 C2.67 2.32 2.34 3.64 2 5 C1.01 4.67 0.02 4.34 -1 4 C-0.67 2.68 -0.34 1.36 0 0 Z " fill="#D2D4D6" transform="translate(206,139)"/>
<path d="" fill="#1B2631" transform="translate(0,0)"/>
<path d="" fill="#1F2A35" transform="translate(0,0)"/>
<path d="" fill="#1F2A35" transform="translate(0,0)"/>
<path d="" fill="#1B2631" transform="translate(0,0)"/>
<path d="" fill="#1F2A35" transform="translate(0,0)"/>
</svg>
