<?xml version="1.0" encoding="UTF-8"?>
<svg version="1.1" xmlns="http://www.w3.org/2000/svg" width="512" height="512">
<path d="M0 0 C1.2193499 -0.01058945 1.2193499 -0.01058945 2.46333313 -0.02139282 C66.21524679 -0.44895984 123.99297448 18.70859046 172.1796875 61.203125 C172.69128418 61.65155762 173.20288086 62.09999023 173.72998047 62.56201172 C190.0063244 76.89737712 203.35738693 93.33167087 215.09228516 111.53662109 C216.02726276 112.9695257 216.99676924 114.37979392 217.97265625 115.78515625 C228.2972437 130.96548791 235.51193018 148.80417941 241.1796875 166.203125 C241.44620117 167.0192627 241.71271484 167.83540039 241.98730469 168.67626953 C246.44746333 182.61897294 249.16924467 196.71494959 251.1796875 211.203125 C251.3554834 212.43724121 251.5312793 213.67135742 251.71240234 214.94287109 C252.27454564 219.51567836 252.37621353 224.05681708 252.41796875 228.66015625 C252.4277626 229.55259033 252.43755646 230.44502441 252.44764709 231.36450195 C252.95607601 289.76137552 237.83141608 340.92426922 203.1796875 388.203125 C202.64408203 388.95319824 202.10847656 389.70327148 201.55664062 390.47607422 C200.7590332 391.57653076 200.7590332 391.57653076 199.9453125 392.69921875 C199.46352539 393.37009521 198.98173828 394.04097168 198.48535156 394.73217773 C198.05448242 395.21759033 197.62361328 395.70300293 197.1796875 396.203125 C196.5196875 396.203125 195.8596875 396.203125 195.1796875 396.203125 C194.90817871 396.79536865 194.63666992 397.3876123 194.35693359 397.99780273 C193.20023503 400.16463354 192.00989267 401.6961436 190.34375 403.48828125 C189.78034912 404.09583252 189.21694824 404.70338379 188.63647461 405.3293457 C187.72973999 406.28780396 187.72973999 406.28780396 186.8046875 407.265625 C186.17763916 407.93102295 185.55059082 408.5964209 184.90454102 409.28198242 C150.30051898 445.65272061 104.30681343 469.60464072 55.1796875 479.203125 C54.36467773 479.36683594 53.54966797 479.53054688 52.70996094 479.69921875 C23.97939464 485.1846602 -8.28686031 484.25483231 -36.8203125 478.203125 C-38.3364917 477.88964111 -38.3364917 477.88964111 -39.88330078 477.56982422 C-55.40971994 474.26869831 -70.16216449 469.25757744 -84.8203125 463.203125 C-85.58891602 462.88649902 -86.35751953 462.56987305 -87.14941406 462.24365234 C-105.36956539 454.57528033 -122.60017607 443.77628118 -137.8203125 431.203125 C-138.79097656 430.43355469 -139.76164062 429.66398437 -140.76171875 428.87109375 C-146.48681807 424.29880354 -151.74049045 419.47585169 -156.8203125 414.203125 C-159.30853828 411.69466974 -161.81253649 409.21057851 -164.36328125 406.765625 C-171.27737093 400.06600487 -177.1520265 392.97621496 -182.8203125 385.203125 C-183.41199219 384.40648437 -184.00367188 383.60984375 -184.61328125 382.7890625 C-204.68889473 355.03607664 -218.74901389 323.12528682 -225.5703125 289.578125 C-225.76906982 288.60206299 -225.96782715 287.62600098 -226.17260742 286.62036133 C-229.06102863 271.62855146 -230.20492158 256.88051317 -230.1328125 241.640625 C-230.13065735 240.81374176 -230.1285022 239.98685852 -230.12628174 239.13491821 C-229.99723254 208.11648824 -223.8963758 179.17129056 -212.8203125 150.203125 C-212.5517041 149.48930664 -212.2830957 148.77548828 -212.00634766 148.04003906 C-204.89597402 129.47178011 -193.90937982 111.92528636 -181.8203125 96.203125 C-181.15902344 95.33171875 -180.49773437 94.4603125 -179.81640625 93.5625 C-166.38139204 76.30054235 -150.53802234 60.05521523 -132.8203125 47.203125 C-132.28341797 46.8107666 -131.74652344 46.4184082 -131.19335938 46.01416016 C-93.59453858 18.72874616 -46.84227809 0.27286703 0 0 Z M-1.90625 47.921875 C-2.77805908 48.21070557 -3.64986816 48.49953613 -4.5480957 48.79711914 C-6.43831044 49.42475737 -8.32674827 50.05776719 -10.21356201 50.69555664 C-14.33276398 52.08748316 -18.46081568 53.45228859 -22.58828735 54.81945801 C-24.7594578 55.53903351 -26.93016712 56.26000173 -29.10043335 56.9822998 C-39.11789679 60.31471742 -49.16514825 63.5492906 -59.22360229 66.75552368 C-62.22007 67.71101953 -65.21571596 68.66905336 -68.21118164 69.62768555 C-78.93373331 73.05735279 -89.66102017 76.47176112 -100.39331055 79.87080956 C-107.0049896 81.96492578 -113.61532372 84.06325459 -120.22492981 86.16390419 C-125.12941854 87.72222021 -130.03568076 89.27478441 -134.94329357 90.8232317 C-138.01658442 91.79439596 -141.08815348 92.77091846 -144.15928841 93.74887657 C-145.59860558 94.205994 -147.03863152 94.66088647 -148.47939873 95.11341286 C-150.46712097 95.73807573 -152.45216268 96.37064138 -154.43676758 97.00512695 C-156.11250603 97.53563408 -156.11250603 97.53563408 -157.82209778 98.07685852 C-160.74641475 99.17536563 -163.20485148 100.50686386 -165.8203125 102.203125 C-165.37327264 106.68196196 -165.37327264 106.68196196 -162.8203125 110.203125 C-160.22073676 110.50855254 -160.22073676 110.50855254 -157.12934113 110.45760059 C-155.30166049 110.46634888 -155.30166049 110.46634888 -153.43705702 110.47527391 C-152.07266153 110.47164016 -150.70826655 110.46781576 -149.34387207 110.46382141 C-147.904014 110.46683929 -146.46415752 110.47072693 -145.02430391 110.47541398 C-141.0535072 110.48574961 -137.0828002 110.48349811 -133.11199594 110.47923338 C-128.83518755 110.47677622 -124.55840133 110.48576766 -120.28160095 110.49327087 C-111.89775112 110.50604779 -103.51393327 110.50780788 -95.13007534 110.50547061 C-88.31901814 110.50369075 -81.5079707 110.50542993 -74.69691467 110.50969505 C-73.2452857 110.51058784 -73.2452857 110.51058784 -71.76433089 110.51149866 C-69.79863242 110.51271035 -67.83293395 110.51392448 -65.86723548 110.51514103 C-47.41569309 110.52602794 -28.96416895 110.52384854 -10.51262552 110.51775619 C6.3861861 110.51258506 23.2849401 110.52384558 40.18374032 110.54285441 C57.51594896 110.56220203 74.84813031 110.57049428 92.18034983 110.56673115 C101.91891277 110.56481454 111.65742666 110.56735129 121.39598083 110.58144569 C129.68566939 110.59332131 137.9752787 110.5948075 146.26496828 110.58265553 C150.49808849 110.57674004 154.73106347 110.57574048 158.96417427 110.58765793 C162.83414389 110.59842685 166.70384546 110.59552205 170.57380205 110.58139624 C171.97888279 110.57872428 173.38398395 110.58119314 174.7890448 110.58913211 C176.68891267 110.59912745 178.58885519 110.58909184 180.48871613 110.57785511 C181.5470517 110.57791013 182.60538728 110.57796514 183.69579363 110.57802182 C184.51547861 110.45430587 185.33516358 110.33058992 186.1796875 110.203125 C188.32170276 106.99010211 188.83294626 105.93603219 188.1796875 102.203125 C184.12996984 99.2106258 179.63471881 97.90396336 174.8828125 96.453125 C173.66411972 96.07192001 173.66411972 96.07192001 172.42080688 95.68301392 C170.67214803 95.13649721 168.92261381 94.59277499 167.17230225 94.05157471 C162.49063074 92.60326235 157.81583363 91.13307804 153.140625 89.6640625 C151.72784775 89.22083145 151.72784775 89.22083145 150.28652954 88.76864624 C142.17610416 86.21765509 134.11014913 83.54675705 126.0546875 80.828125 C110.95560347 75.74472434 95.78907043 70.88077183 80.6027832 66.06469727 C78.59324622 65.42729494 76.58372485 64.78984342 74.57421875 64.15234375 C73.56901688 63.83352737 72.563815 63.514711 71.52815247 63.18623352 C65.11112857 61.14684457 58.70436664 59.07788525 52.30377197 56.98751831 C47.99019052 55.57919161 43.6739154 54.1792233 39.35748291 52.77966309 C37.2978234 52.10923768 35.23948322 51.43474399 33.18255615 50.75598145 C30.32165393 49.81238068 27.45640306 48.88327864 24.58984375 47.95703125 C23.75233078 47.67656448 22.91481781 47.39609772 22.05192566 47.10713196 C13.34283238 44.3254835 6.68896298 44.96514923 -1.90625 47.921875 Z M-145.8203125 123.203125 C-145.8203125 130.793125 -145.8203125 138.383125 -145.8203125 146.203125 C-41.8703125 146.203125 62.0796875 146.203125 169.1796875 146.203125 C169.1796875 138.613125 169.1796875 131.023125 169.1796875 123.203125 C65.2296875 123.203125 -38.7203125 123.203125 -145.8203125 123.203125 Z M-142.8203125 158.203125 C-142.8203125 159.523125 -142.8203125 160.843125 -142.8203125 162.203125 C-142.20542969 162.326875 -141.59054688 162.450625 -140.95703125 162.578125 C-139.74466797 162.8875 -139.74466797 162.8875 -138.5078125 163.203125 C-137.70730469 163.38875 -136.90679687 163.574375 -136.08203125 163.765625 C-132.58323845 165.98938277 -131.79604246 169.34712249 -130.8203125 173.203125 C-130.41125328 176.97952868 -130.41293953 180.72255325 -130.43554688 184.51831055 C-130.4301741 185.62691437 -130.42480133 186.73551819 -130.41926575 187.87771606 C-130.40951182 190.27679901 -130.40653635 192.67591714 -130.40962219 195.07501793 C-130.41412349 198.89155537 -130.40002903 202.70763469 -130.38122559 206.52412415 C-130.34449716 214.6462856 -130.33062425 222.76839314 -130.3203125 230.890625 C-130.30836127 240.26617236 -130.28621057 249.64146178 -130.24031067 259.01691628 C-130.22691591 262.74157041 -130.23088145 266.46592952 -130.23571777 270.19059753 C-130.35773533 301.36270549 -130.35773533 301.36270549 -117.8203125 329.203125 C-117.2428125 330.04875 -116.6653125 330.894375 -116.0703125 331.765625 C-110.54410858 337.75234591 -103.70259959 340.87292201 -95.5859375 341.421875 C-84.76274688 341.70058377 -76.31086729 340.17927685 -68.14453125 332.66015625 C-56.18092656 320.21906845 -53.09647901 304.28963459 -52.26318359 287.64697266 C-52.22171392 286.83267603 -52.18024426 286.0183794 -52.13751793 285.17940712 C-51.69893454 275.77261489 -51.65287782 266.36519226 -51.62108231 256.94974899 C-51.60905556 253.70282176 -51.58955873 250.456014 -51.56796265 247.20913696 C-51.50706311 237.99379434 -51.45214648 228.77847641 -51.41894531 219.56298828 C-51.39796608 213.88699588 -51.362669 208.21124371 -51.31818771 202.53538895 C-51.30409062 200.38813728 -51.2953196 198.2408434 -51.29213333 196.09354782 C-51.28720594 193.09645128 -51.2640108 190.09999324 -51.23681641 187.10302734 C-51.24132561 185.79372757 -51.24132561 185.79372757 -51.2459259 184.45797729 C-51.15147529 177.42224291 -50.02336177 169.40617427 -44.8203125 164.203125 C-41.5041506 163.0977377 -38.93494615 163.03558858 -35.4453125 163.015625 C-34.32382813 163.00144531 -33.20234375 162.98726562 -32.046875 162.97265625 C-28.17403533 163.24928765 -25.30608137 164.15758394 -22.1328125 166.390625 C-17.44738766 172.86097359 -18.53144524 181.62139697 -18.5456543 189.18139648 C-18.5413022 190.59800484 -18.5361174 192.01461084 -18.53016663 193.43121338 C-18.51681947 197.26388512 -18.51619311 201.09645799 -18.51872993 204.92914844 C-18.51980246 208.13482706 -18.51490911 211.34048591 -18.5101245 214.54616028 C-18.49904434 222.11159923 -18.49858364 229.67698851 -18.50463867 237.24243164 C-18.51067919 245.03425568 -18.49836211 252.82589917 -18.4770686 260.61769241 C-18.45942865 267.32025024 -18.45345498 274.02275072 -18.45670635 280.72533089 C-18.45851538 284.72288143 -18.45592097 288.72030315 -18.44199181 292.71783257 C-18.42937883 296.47801928 -18.43139008 300.2379253 -18.44440269 303.99810791 C-18.44788005 306.02662392 -18.4366164 308.05514864 -18.42483521 310.08363342 C-18.50696862 324.38003591 -18.50696862 324.38003591 -23.4453125 330.078125 C-27.07648907 331.79815601 -30.8828749 332.4879921 -34.8203125 333.203125 C-34.8203125 334.523125 -34.8203125 335.843125 -34.8203125 337.203125 C-25.63996552 337.27298993 -16.45971168 337.32611996 -7.27915573 337.35856152 C-3.01510906 337.37414087 1.24875417 337.39523568 5.51269531 337.42944336 C9.63650028 337.46231541 13.76013009 337.48003596 17.88405609 337.48775673 C19.44833885 337.49325075 21.01261328 337.50397744 22.57682037 337.52031517 C38.39000046 337.6787377 54.50985672 335.30596817 66.58984375 324.0234375 C78.03526027 310.91885741 80.23816113 296.03285567 79.1796875 279.203125 C77.73174995 268.44175865 73.243143 258.8276898 64.734375 251.875 C59.02301535 248.13729063 51.0737027 243.203125 44.1796875 243.203125 C44.1796875 242.543125 44.1796875 241.883125 44.1796875 241.203125 C44.9634375 241.161875 45.7471875 241.120625 46.5546875 241.078125 C54.59466546 239.13744066 62.23548415 233.84571881 67.1796875 227.203125 C74.11608399 214.51942857 75.57853949 200.13227633 71.5546875 186.140625 C67.67980934 175.45411892 62.34601132 167.07396927 51.9921875 161.953125 C43.01952091 158.37738724 33.45780608 157.90500829 23.90332031 157.97607422 C22.84818237 157.97578217 21.79304443 157.97549011 20.70593262 157.97518921 C17.26480495 157.97656764 13.82390171 157.99205801 10.3828125 158.0078125 C7.97857786 158.01154793 5.57434169 158.01439239 3.17010498 158.01638794 C-3.12296841 158.02398269 -9.41594782 158.04359506 -15.70898438 158.0657959 C-22.14451832 158.08634436 -28.58006762 158.09540882 -35.015625 158.10546875 C-47.61722733 158.1268452 -60.21876489 158.16053973 -72.8203125 158.203125 C-72.8203125 159.523125 -72.8203125 160.843125 -72.8203125 162.203125 C-72.20542969 162.36167969 -71.59054688 162.52023438 -70.95703125 162.68359375 C-64.34669656 164.59184029 -64.34669656 164.59184029 -61.8828125 167.453125 C-59.16297092 174.49271497 -58.53047717 180.34329895 -58.56152344 187.85742188 C-58.5580188 188.90724243 -58.55451416 189.95706299 -58.55090332 191.03869629 C-58.54212226 194.49982374 -58.54792589 197.96074556 -58.5546875 201.421875 C-58.553339 203.84216348 -58.55139693 206.2624517 -58.54888916 208.68273926 C-58.54594211 213.75661802 -58.55021913 218.83042632 -58.55957031 223.90429688 C-58.57091571 230.37198307 -58.56443389 236.83950235 -58.55242538 243.30718231 C-58.54515373 248.30897244 -58.54751977 253.31072388 -58.55268097 258.31251526 C-58.55400538 260.6948702 -58.55241264 263.07722878 -58.54772186 265.45957947 C-58.48084205 309.00498006 -58.48084205 309.00498006 -70.8203125 322.203125 C-76.07801566 326.97173949 -80.17765725 327.55736806 -87.09375 327.484375 C-91.97927858 326.98042363 -94.50748744 324.43872506 -97.9453125 321.203125 C-105.43841883 309.21415487 -104.97163754 294.90997325 -104.96557617 281.23754883 C-104.96893478 280.12029922 -104.9722934 279.00304962 -104.97575378 277.85194397 C-104.98515672 274.20466972 -104.98720096 270.55744182 -104.98828125 266.91015625 C-104.99149941 264.35194378 -104.9948639 261.7937315 -104.99836731 259.23551941 C-105.00433056 253.89406839 -105.0062531 248.55263435 -105.00561523 243.21118164 C-105.00501331 237.06093375 -105.01560009 230.91077323 -105.0313589 224.76054746 C-105.04606324 218.80663239 -105.049602 212.85274379 -105.04900551 206.89880943 C-105.05018166 204.38113738 -105.05458286 201.8634646 -105.06233788 199.34580421 C-105.07217754 195.82396858 -105.06924475 192.30235712 -105.06323242 188.78051758 C-105.06885193 187.75220825 -105.07447144 186.72389893 -105.08026123 185.66442871 C-105.01208438 169.88185708 -105.01208438 169.88185708 -101.40207195 165.46978474 C-99.24511093 163.7425084 -97.33940168 163.47258162 -94.6328125 163.015625 C-93.73175781 162.85707031 -92.83070313 162.69851562 -91.90234375 162.53515625 C-90.87173828 162.37080078 -90.87173828 162.37080078 -89.8203125 162.203125 C-90.3153125 160.223125 -90.3153125 160.223125 -90.8203125 158.203125 C-107.9803125 158.203125 -125.1403125 158.203125 -142.8203125 158.203125 Z M50.1796875 158.203125 C53.7906524 161.02361858 53.7906524 161.02361858 56.29296875 162.45703125 C63.90636527 166.98720502 68.39893744 173.27633502 72.1796875 181.203125 C72.6953125 180.48125 73.2109375 179.759375 73.7421875 179.015625 C80.26218259 171.49255374 87.08827061 169.36829626 96.921875 168.65625 C98.09347168 168.57020508 99.26506836 168.48416016 100.47216797 168.39550781 C101.36564941 168.33202148 102.25913086 168.26853516 103.1796875 168.203125 C103.09568016 187.45767435 103.0005074 206.71213794 102.89216042 225.96656609 C102.84210772 234.90738095 102.79566413 243.84818697 102.7578125 252.7890625 C102.72479932 260.58486742 102.68491701 268.38060228 102.63689744 276.17632973 C102.61172489 280.30142716 102.58991668 284.42647867 102.57634354 288.55163193 C102.56343881 292.44058096 102.54129529 296.32937178 102.51230431 300.21823311 C102.50329384 301.63951587 102.49755372 303.06082406 102.49547386 304.48213387 C102.46175758 324.03674903 102.46175758 324.03674903 98.9712162 328.87988091 C95.42222574 332.2050311 91.91013806 332.91929797 87.1796875 333.203125 C87.1796875 334.523125 87.1796875 335.843125 87.1796875 337.203125 C106.3196875 337.203125 125.4596875 337.203125 145.1796875 337.203125 C144.8496875 335.883125 144.5196875 334.563125 144.1796875 333.203125 C143.57640625 333.11675781 142.973125 333.03039062 142.3515625 332.94140625 C135.75894386 331.78238136 135.75894386 331.78238136 132.6796875 328.703125 C130.32064593 324.77138906 130.04739719 322.65545026 130.02146912 318.04025269 C130.0116803 316.72489532 130.00189148 315.40953796 129.99180603 314.05432129 C129.98590142 312.58813513 129.980091 311.12194859 129.97436523 309.65576172 C129.96478956 308.11853775 129.95477967 306.58131643 129.94436646 305.0440979 C129.91727763 300.86254843 129.89628964 296.68098763 129.87636447 292.49939871 C129.8545294 288.13248207 129.82712861 283.76560051 129.80030823 279.39871216 C129.75034774 271.12562798 129.70542139 262.85252436 129.66228586 254.57940209 C129.61294213 245.16234125 129.5580134 235.74531561 129.50260627 226.32828879 C129.38873472 206.95326686 129.28190697 187.57821173 129.1796875 168.203125 C131.72374388 168.26355389 134.26225481 168.35071528 136.8046875 168.453125 C137.51753906 168.46730469 138.23039062 168.48148438 138.96484375 168.49609375 C145.49638214 168.7957056 149.25004628 171.13229052 153.7421875 175.953125 C159.36226192 184.34697808 161.594781 196.36251149 163.1796875 206.203125 C164.1696875 205.873125 165.1596875 205.543125 166.1796875 205.203125 C165.8496875 189.693125 165.5196875 174.183125 165.1796875 158.203125 C127.2296875 158.203125 89.2796875 158.203125 50.1796875 158.203125 Z M-131.8203125 350.203125 C-131.8203125 354.163125 -131.8203125 358.123125 -131.8203125 362.203125 C-37.4403125 362.203125 56.9396875 362.203125 154.1796875 362.203125 C154.1796875 358.243125 154.1796875 354.283125 154.1796875 350.203125 C59.7996875 350.203125 -34.5803125 350.203125 -131.8203125 350.203125 Z M-150.8203125 373.203125 C-150.8203125 381.123125 -150.8203125 389.043125 -150.8203125 397.203125 C-43.9003125 397.203125 63.0196875 397.203125 173.1796875 397.203125 C173.1796875 389.283125 173.1796875 381.363125 173.1796875 373.203125 C66.2596875 373.203125 -40.6603125 373.203125 -150.8203125 373.203125 Z " fill="#FEFEFE" transform="translate(244.8203125,14.796875)"/>
<path d="M0 0 C1.04790207 0.34606796 2.09580414 0.69213593 3.17546082 1.0486908 C5.41782232 1.78994078 7.65911328 2.53443581 9.89941406 3.28189087 C15.79273379 5.2479983 21.69368258 7.1909745 27.59375 9.13671875 C28.76289948 9.52298935 29.93204895 9.90925995 31.1366272 10.30723572 C40.58785758 13.42484845 50.06908147 16.43440511 59.57421875 19.3828125 C73.17129605 23.60705718 86.68754771 28.05282885 100.1796875 32.60083008 C107.44287976 35.04668014 114.70703005 37.45167307 122.07421875 39.5703125 C122.07421875 40.2303125 122.07421875 40.8903125 122.07421875 41.5703125 C30.33421875 41.5703125 -61.40578125 41.5703125 -155.92578125 41.5703125 C-155.92578125 40.9103125 -155.92578125 40.2503125 -155.92578125 39.5703125 C-145.91200738 36.15476172 -135.85866548 32.90630394 -125.73828125 29.8203125 C-110.7454357 25.24087559 -95.83349921 20.41782713 -80.92578125 15.5703125 C-80.12843567 15.3110498 -79.33109009 15.05178711 -78.50958252 14.78466797 C-75.08157651 13.66993435 -71.65358685 12.5551513 -68.22583008 11.43965149 C-63.88179315 10.0261241 -59.53712336 8.61461086 -55.19091797 7.20776367 C-53.51787468 6.66594229 -51.84485983 6.12403309 -50.171875 5.58203125 C-49.36564697 5.32085007 -48.55941895 5.05966888 -47.72875977 4.79057312 C-43.06581257 3.27635824 -38.41548323 1.72979027 -33.7734375 0.15234375 C-32.76031494 -0.18643799 -31.74719238 -0.52521973 -30.70336914 -0.87426758 C-28.93629722 -1.46619085 -27.17319104 -2.07019131 -25.41577148 -2.69018555 C-24.65594971 -2.94195557 -23.89612793 -3.19372559 -23.11328125 -3.453125 C-22.48808594 -3.66888184 -21.86289063 -3.88463867 -21.21875 -4.10693359 C-13.89701627 -5.13752686 -6.82521178 -2.29881928 0 0 Z " fill="#FEFEFE" transform="translate(272.92578125,74.4296875)"/>
<path d="M0 0 C0.96119751 -0.00067474 1.92239502 -0.00134949 2.91271973 -0.00204468 C17.2406401 0.01393364 31.15007534 0.50512101 45.25 3.25 C46.62164307 3.49943359 46.62164307 3.49943359 48.02099609 3.75390625 C85.7974512 10.7054434 121.39263791 26.41722909 152.25 49.25 C153.13558594 49.90234619 153.13558594 49.90234619 154.0390625 50.56787109 C163.74333296 57.78462068 172.55986561 65.85452967 181.25 74.25 C181.77255371 74.75063965 182.29510742 75.2512793 182.83349609 75.76708984 C189.5203478 82.19111082 195.59609478 88.90579522 201.25 96.25 C202.02150391 97.2395166 202.02150391 97.2395166 202.80859375 98.24902344 C215.81262106 115.0146083 226.2013201 133.0859259 235.25 152.25 C235.75789063 153.30058594 236.26578125 154.35117188 236.7890625 155.43359375 C245.69329665 174.88482183 250.89051531 196.19256108 254.25 217.25 C254.43618896 218.40717529 254.62237793 219.56435059 254.81420898 220.7565918 C256.4903686 232.43455759 256.60610986 244.02995098 256.5625 255.8125 C256.55976578 257.34161011 256.55976578 257.34161011 256.55697632 258.90161133 C256.5127689 273.56753087 256.15646964 287.83021615 253.25 302.25 C253.08902832 303.11173828 252.92805664 303.97347656 252.76220703 304.86132812 C246.28405901 339.08785464 232.66455493 372.91504398 212.25 401.25 C211.81606934 401.85231445 211.38213867 402.45462891 210.93505859 403.07519531 C195.89356579 423.82884336 178.87895335 443.72260122 158.07666016 458.90625 C156.11672324 460.34804268 154.18994554 461.82860975 152.26171875 463.3125 C133.98842352 477.17130648 113.68398821 488.13231345 92.25 496.25 C91.33492676 496.59756348 90.41985352 496.94512695 89.47705078 497.30322266 C60.75555752 507.99315269 31.15047021 512.68173757 0.625 512.5625 C-0.34455627 512.56067719 -1.31411255 512.55885437 -2.31304932 512.55697632 C-16.64837585 512.51161604 -30.65382109 512.07917239 -44.75 509.25 C-45.64122559 509.07839355 -46.53245117 508.90678711 -47.45068359 508.72998047 C-92.56313902 499.86280365 -135.5470081 479.58725141 -169.484375 448.33203125 C-171.55892036 446.4255956 -173.67265931 444.5823439 -175.8125 442.75 C-183.06004033 436.40476388 -189.49128362 429.57828115 -195.50390625 422.0546875 C-196.96686491 420.22789738 -198.45296955 418.41933051 -199.96484375 416.6328125 C-206.21137609 409.23358087 -211.55923217 401.40603281 -216.75 393.25 C-217.33031982 392.34507812 -217.33031982 392.34507812 -217.92236328 391.421875 C-224.47426992 381.13121497 -229.74258879 370.362551 -234.75 359.25 C-235.44029297 357.74953125 -235.44029297 357.74953125 -236.14453125 356.21875 C-242.89224507 340.87277878 -247.71099569 324.76114542 -251.125 308.375 C-251.363396 307.23683838 -251.60179199 306.09867676 -251.84741211 304.92602539 C-255.02442991 288.86194947 -256.1340891 272.97300831 -256.0625 256.625 C-256.06067719 255.75392609 -256.05885437 254.88285217 -256.05697632 253.98538208 C-256.00751402 239.88572675 -255.28782653 226.14701601 -252.75 212.25 C-252.5943457 211.34749512 -252.43869141 210.44499023 -252.27832031 209.51513672 C-244.23581271 163.99711217 -223.16369331 120.53599361 -191.83203125 86.515625 C-189.9255956 84.44107964 -188.0823439 82.32734069 -186.25 80.1875 C-179.90169839 72.93645825 -173.07230394 66.50136411 -165.54296875 60.48828125 C-163.75312652 59.05390419 -161.98264294 57.59482266 -160.23828125 56.10546875 C-115.92807803 18.44518883 -57.51363409 0.03624551 0 0 Z M-107.75 26.25 C-108.4630127 26.57967773 -109.17602539 26.90935547 -109.91064453 27.24902344 C-127.10486674 35.27000799 -142.93802316 45.42063965 -157.75 57.25 C-158.61455811 57.93884277 -158.61455811 57.93884277 -159.49658203 58.64160156 C-174.19425731 70.48951151 -188.49426426 84.0598269 -199.75 99.25 C-200.24161621 99.90822754 -200.73323242 100.56645508 -201.23974609 101.24462891 C-210.97177538 114.31780551 -219.72589581 127.49938119 -226.75 142.25 C-227.28109375 143.31992188 -227.8121875 144.38984375 -228.359375 145.4921875 C-243.53709609 176.75272313 -252.83084836 211.40216381 -253.75 246.25 C-253.77046387 246.95511719 -253.79092773 247.66023437 -253.81201172 248.38671875 C-254.95660372 293.56499464 -244.554316 338.57044231 -222.75 378.25 C-222.38471191 378.91870117 -222.01942383 379.58740234 -221.64306641 380.27636719 C-205.25818046 409.94236365 -181.92385073 438.15140294 -154.38134766 458.06738281 C-152.72061083 459.27130517 -151.08465234 460.5041715 -149.44921875 461.7421875 C-96.42483967 501.34111404 -27.32725871 517.23469247 37.81445312 507.79345703 C86.02459809 500.1672644 129.14905389 480.11758848 166.43017578 448.77880859 C167.70223473 447.71016986 168.98258255 446.65135515 170.26904297 445.60009766 C170.91115723 445.06819824 171.55327148 444.53629883 172.21484375 443.98828125 C173.08870728 443.27152222 173.08870728 443.27152222 173.98022461 442.5402832 C175.48380662 441.31413271 175.48380662 441.31413271 175.25 439.25 C176.14054077 438.85083374 176.14054077 438.85083374 177.04907227 438.44360352 C179.30501791 437.22016278 180.70364844 436.00385677 182.46484375 434.15234375 C183.3607019 433.21056274 183.3607019 433.21056274 184.2746582 432.24975586 C185.22151489 431.22893921 185.22151489 431.22893921 186.1875 430.1875 C186.8477417 429.47795166 187.5079834 428.76840332 188.18823242 428.03735352 C225.01694835 387.83851674 247.56244887 336.34283244 253.25 282.25 C253.3428125 281.48921143 253.435625 280.72842285 253.53125 279.94458008 C254.40476636 272.37228513 254.49233219 264.80343586 254.5 257.1875 C254.50100708 256.48846558 254.50201416 255.78943115 254.50305176 255.06921387 C254.49007488 241.63508757 253.4131856 228.52049095 251.25 215.25 C251.04117188 213.95328369 251.04117188 213.95328369 250.828125 212.63037109 C242.98333015 165.6796371 221.59565476 124.45474293 191.25 88.25 C190.57324219 87.43660156 189.89648438 86.62320313 189.19921875 85.78515625 C188.26529297 84.68494141 188.26529297 84.68494141 187.3125 83.5625 C186.49458984 82.59763672 186.49458984 82.59763672 185.66015625 81.61328125 C184.33724769 80.01831453 184.33724769 80.01831453 182.25 80.25 C182.25 79.59 182.25 78.93 182.25 78.25 C181.59 78.25 180.93 78.25 180.25 78.25 C179.8478125 77.2909375 179.8478125 77.2909375 179.4375 76.3125 C178.36332248 73.91868314 178.36332248 73.91868314 175.25 73.25 C175.25 72.59 175.25 71.93 175.25 71.25 C172.82990048 68.66752958 169.9730176 66.50339572 167.25 64.25 C166.75081055 63.82928223 166.25162109 63.40856445 165.73730469 62.97509766 C137.31259322 39.0822344 104.20220903 20.87975244 68.25 11.25 C67.08452637 10.93554932 67.08452637 10.93554932 65.89550781 10.61474609 C8.00709207 -4.71792213 -53.5503561 0.91198007 -107.75 26.25 Z " fill="#FFFFFF" transform="translate(255.75,-0.25)"/>
<path d="M0 0 C9.26644087 0.57307044 17.51907093 1.58528493 24.22265625 8.51953125 C34.33900819 21.26661301 34.2051194 36.58252455 33.41015625 52.01953125 C32.25284694 60.99358222 28.24145775 68.75470208 21.53515625 74.89453125 C15.63409286 78.90725435 10.5780503 80.79113187 3.39453125 79.6640625 C0.2162352 78.63174193 -0.99880045 76.87015049 -2.58984375 74.01953125 C-3.79056803 70.44254164 -3.71677945 66.99888491 -3.71923828 63.24731445 C-3.7209906 62.57534027 -3.72274292 61.90336609 -3.72454834 61.21102905 C-3.72893786 58.99743035 -3.72604009 56.78391197 -3.72265625 54.5703125 C-3.72332988 53.03142786 -3.72430041 51.49254333 -3.72555542 49.95365906 C-3.72702826 46.73333724 -3.72489023 43.5130432 -3.72021484 40.29272461 C-3.7145034 36.1564149 -3.71780809 32.02016986 -3.72378731 27.8838625 C-3.72739183 24.70897428 -3.72625509 21.53410154 -3.72365952 18.35921288 C-3.72299069 16.83331482 -3.72381714 15.30741537 -3.72613907 13.78151894 C-3.72866536 11.65549589 -3.72482604 9.5295795 -3.71923828 7.40356445 C-3.71844269 6.1920723 -3.71764709 4.98058014 -3.71682739 3.7323761 C-3.54337205 0.02672226 -3.54337205 0.02672226 0 0 Z " fill="#FEFEFE" transform="translate(258.58984375,262.98046875)"/>
<path d="M0 0 C9.07984959 0.6076162 16.06743428 1.96729805 22.46875 8.76953125 C30.72727483 19.05445338 30.3638747 32.45223712 29.59375 45.01953125 C28.34727762 53.9561044 24.57206227 61.23528299 18.03125 67.45703125 C13.39033337 70.43197781 9.32645805 71.32869959 3.84375 71.70703125 C2.69390625 71.79339844 1.5440625 71.87976563 0.359375 71.96875 C-0.55328125 71.98550781 -1.4659375 72.00226563 -2.40625 72.01953125 C-4.27610821 70.14967304 -3.53404348 66.98805504 -3.53564453 64.49609375 C-3.53739685 63.81480408 -3.53914917 63.1335144 -3.54095459 62.43157959 C-3.54537242 60.16920458 -3.54243538 57.90690712 -3.5390625 55.64453125 C-3.53973556 54.07893865 -3.5407056 52.51334615 -3.54196167 50.94775391 C-3.54343855 47.6624248 -3.54128441 44.37712283 -3.53662109 41.09179688 C-3.5309238 36.87132609 -3.53420286 32.65091889 -3.54019356 28.43045044 C-3.54379944 25.19636553 -3.54266046 21.9622958 -3.54006577 18.72821045 C-3.53939657 17.17161044 -3.54022466 15.61500907 -3.54254532 14.05841064 C-3.5450723 11.88655929 -3.54123065 9.71481229 -3.53564453 7.54296875 C-3.53484894 6.30466309 -3.53405334 5.06635742 -3.53323364 3.79052734 C-3.36077906 0.02727905 -3.36077906 0.02727905 0 0 Z " fill="#FCFDFD" transform="translate(258.40625,181.98046875)"/>
<path d="M0 0 C5.342311 -0.821894 8.46131032 0.95345597 12.6796875 3.94921875 C17.62480507 8.31990347 22.86987645 14.31343564 24 21 C23.01 21.33 22.02 21.66 21 22 C20.69707031 21.41992188 20.39414062 20.83984375 20.08203125 20.2421875 C15.88723135 12.42049908 12.02399033 7.12974303 3.98828125 3.078125 C2 2 2 2 0 0 Z " fill="#F3F5F8" transform="translate(293,175)"/>
</svg>
