<?xml version="1.0" encoding="UTF-8"?>
<svg version="1.1" xmlns="http://www.w3.org/2000/svg" width="248" height="264">
<path d="M0 0 C0.69488525 0.00304138 1.38977051 0.00608276 2.10571289 0.00921631 C13.51989011 0.08278655 24.31242038 1.00800903 35.25 4.4375 C36.26755371 4.75098389 36.26755371 4.75098389 37.30566406 5.07080078 C70.21646013 15.55669881 96.06510066 38.37797999 112.07446289 68.78442383 C114.65699065 73.91570211 116.78378886 79.12258479 118.625 84.5625 C118.85147217 85.22918701 119.07794434 85.89587402 119.3112793 86.58276367 C123.24927088 99.00941354 124.80918076 111.18996018 124.6875 124.1875 C124.68293793 125.22982788 124.68293793 125.22982788 124.67828369 126.29321289 C124.60471345 137.70739011 123.67949097 148.49992038 120.25 159.4375 C119.93651611 160.45505371 119.93651611 160.45505371 119.61669922 161.49316406 C109.17181962 194.27522063 86.1891797 220.43652875 55.85058594 236.31225586 C47.93686883 240.2646725 39.76322237 243.08307114 31.25 245.4375 C30.04988281 245.7778125 28.84976563 246.118125 27.61328125 246.46875 C-4.2406348 253.90706986 -38.0975257 247.24132748 -65.75 230.4375 C-76.54472397 223.41258298 -85.785174 214.62769872 -94.75 205.4375 C-93.51337235 201.44658186 -92.06224094 197.90366637 -90.01953125 194.26171875 C-89.19751221 192.79134155 -89.19751221 192.79134155 -88.35888672 191.29125977 C-87.7660791 190.24639404 -87.17327148 189.20152832 -86.5625 188.125 C-85.94391113 187.02921631 -85.32532227 185.93343262 -84.68798828 184.80444336 C-66.04803335 151.96072091 -46.13777528 120.3971465 -20.10009766 92.86669922 C-18.95914429 91.65889795 -17.82805034 90.44179437 -16.69921875 89.22265625 C-3.49084796 75.39204958 14.52808838 62.31299276 34.234375 61.28125 C44.09970608 61.58794423 52.74355937 65.3961554 59.625 72.5 C67.18700352 81.85424552 71.60741038 93.99681506 72.6953125 105.9140625 C72.76911133 106.71046143 72.84291016 107.50686035 72.91894531 108.32739258 C73.05322848 109.90617443 73.16565647 111.48701484 73.25292969 113.0690918 C73.70223379 118.74186644 75.05273158 121.52489481 79.25 125.4375 C83.55861902 127.18342736 87.38937119 126.75045593 91.6875 125.1875 C94.45936775 123.52891655 94.45936775 123.52891655 96.25 120.4375 C98.66592384 100.60809912 92.39951607 75.46495069 80.18359375 59.78515625 C69.40266164 47.3167739 56.50594221 39.88515947 39.91552734 38.20043945 C13.94566579 36.72359524 -6.20425094 47.63269148 -25.4375 64.4375 C-36.62004274 74.75149573 -47.41880782 85.40650538 -56.75 97.4375 C-57.68589674 98.58700698 -58.62491098 99.73398019 -59.56640625 100.87890625 C-66.81852294 109.73220041 -73.43812816 118.89420216 -79.75 128.4375 C-80.21293457 129.13665527 -80.67586914 129.83581055 -81.15283203 130.55615234 C-91.41975195 146.1214413 -100.78224478 162.09334487 -109.75 178.4375 C-112.75 177.4375 -112.75 177.4375 -114.21484375 174.62109375 C-114.72063545 173.37835897 -115.210486 172.12906245 -115.6875 170.875 C-115.94619873 170.21113281 -116.20489746 169.54726562 -116.47143555 168.86328125 C-125.687291 144.41737346 -127.58801345 114.56805606 -119.75 89.4375 C-119.53569336 88.7470459 -119.32138672 88.0565918 -119.10058594 87.34521484 C-108.59155843 54.70910103 -85.58836717 28.40075839 -55.3527832 12.56274414 C-50.23796527 10.00619712 -45.03875642 7.89834724 -39.625 6.0625 C-38.95823242 5.83594727 -38.29146484 5.60939453 -37.60449219 5.37597656 C-25.17746629 1.43887689 -12.99774469 -0.12168268 0 0 Z M74.25 148.4375 C72.73850447 152.97198658 72.47558355 156.81491316 74.5625 161.1875 C77.00449553 164.44349404 78.33414407 166.13221469 82.25 167.4375 C86.40286777 167.82927998 88.73969587 167.69265206 92.5 165.8125 C95.62948288 163.10976478 96.96485486 161.3685322 98.25 157.4375 C98.45084983 153.17780996 97.7204689 150.2104132 95.5 146.5625 C92.43583242 143.66856395 89.96139109 142.65690911 85.8125 142.125 C81.2178921 142.68531804 77.14075018 144.78602608 74.25 148.4375 Z " fill="#5388C6" transform="translate(123.75,8.5625)"/>
<path d="M0 0 C6.91387339 0.440725 12.06421167 1.93746279 18.25 5 C19.07556396 5.40154297 19.90112793 5.80308594 20.75170898 6.21679688 C36.71024513 14.176662 53.96962003 26.95443004 64 42 C63.67 42.99 63.34 43.98 63 45 C62.33355469 44.17757812 61.66710937 43.35515625 60.98046875 42.5078125 C50.5814475 29.32507926 50.5814475 29.32507926 37 20 C37 19.34 37 18.68 37 18 C36.30261719 17.74605469 35.60523438 17.49210937 34.88671875 17.23046875 C31.65549525 15.85315427 28.81367434 14.13758691 25.8125 12.3125 C17.63406579 7.46767886 8.91137196 4.23315082 0 1 C0 0.67 0 0.34 0 0 Z " fill="#3468AB" transform="translate(159,15)"/>
<path d="M0 0 C0.33 0.66 0.66 1.32 1 2 C0.54625 2.86625 0.0925 3.7325 -0.375 4.625 C-1.35945617 7.87459487 -1.35945617 7.87459487 0.140625 9.92578125 C1.99560499 12.07739093 3.93875156 14.04523672 6 16 C6.61617187 16.60070312 7.23234375 17.20140625 7.8671875 17.8203125 C12.46839432 22.07786072 17.49259202 25.32372651 22.875 28.51953125 C23.57625 29.00808594 24.2775 29.49664062 25 30 C25 30.66 25 31.32 25 32 C25.64710937 32.24621094 26.29421875 32.49242187 26.9609375 32.74609375 C31.70496668 34.70346312 36.30687982 36.95630245 40.9375 39.16601562 C41.67226562 39.51470703 42.40703125 39.86339844 43.1640625 40.22265625 C43.82873535 40.53984619 44.4934082 40.85703613 45.17822266 41.18383789 C47.16534956 42.11027085 47.16534956 42.11027085 50 43 C50 43.66 50 44.32 50 45 C28.7866847 41.9813411 10.17461909 23.53096426 -4 9 C-2.94124926 5.59687262 -1.99097846 2.98646769 0 0 Z " fill="#7DB0DA" transform="translate(33,205)"/>
<path d="M0 0 C16.19176674 0.32620775 29.77307788 6.57839524 42 17 C43.36011609 18.98188345 44.69791204 20.97951869 46 23 C46.66 23.33 47.32 23.66 48 24 C48 24.99 48 25.98 48 27 C48.66 27 49.32 27 50 27 C50.495 29.475 50.495 29.475 51 32 C50.34 32 49.68 32 49 32 C47.89665062 30.54477163 46.8676691 29.03286578 45.875 27.5 C36.8366002 14.30579988 26.29768905 8.10737475 11 4 C9.91976562 3.69964844 8.83953125 3.39929687 7.7265625 3.08984375 C5.15453937 2.37906615 2.57966966 1.68239759 0 1 C0 0.67 0 0.34 0 0 Z " fill="#3A6BAD" transform="translate(160,44)"/>
<path d="M0 0 C-3.05622144 1.80702039 -6.07346047 2.5026606 -9.53466797 3.19189453 C-20.77488363 5.45319444 -31.42207878 9.61471919 -41 16 C-41.99 15.67 -42.98 15.34 -44 15 C-30.83071926 5.74591083 -16.28097542 -0.60052778 0 0 Z " fill="#517DB8" transform="translate(156,44)"/>
<path d="M0 0 C4.24201454 1.41400485 5.28343417 4.45271174 7.3125 8.1875 C7.70622803 8.90276855 8.09995605 9.61803711 8.50561523 10.35498047 C18.4815076 28.77733175 18.4815076 28.77733175 18 37 C16 35 16 35 14.875 31.375 C13.3638008 26.59213242 11.24900859 22.21849194 9 17.75 C8.65565918 17.06470215 8.31131836 16.3794043 7.95654297 15.67333984 C6.47262433 12.75882978 4.95859642 9.93234951 3.25 7.140625 C2 5 2 5 2 3 C1.34 3 0.68 3 0 3 C0 2.01 0 1.02 0 0 Z " fill="#3569AE" transform="translate(224,61)"/>
<path d="M0 0 C0.66 0 1.32 0 2 0 C2.81436587 2.41605225 3.62655397 4.83279998 4.4375 7.25 C4.66759766 7.93191406 4.89769531 8.61382812 5.13476562 9.31640625 C6.20803714 12.52066613 7.26015608 15.70046619 8 19 C8.66 19 9.32 19 10 19 C10.2475 18.319375 10.495 17.63875 10.75 16.9375 C12.24197908 13.43134917 14.06835511 10.28379632 16 7 C16.66 7.33 17.32 7.66 18 8 C15.36 12.95 12.72 17.9 10 23 C7 22 7 22 5.4296875 18.8671875 C4.89977247 17.54106848 4.38201086 16.21004366 3.875 14.875 C3.61074219 14.22273437 3.34648438 13.57046875 3.07421875 12.8984375 C1.38998452 8.58953369 0.48983939 4.59971132 0 0 Z " fill="#81B3DD" transform="translate(4,164)"/>
<path d="M0 0 C7.8291611 9.95833805 8.91730225 22.86878788 11 35 C10.01 35.495 10.01 35.495 9 36 C8.82984375 35.30777344 8.6596875 34.61554688 8.484375 33.90234375 C7.00883257 27.94523362 5.4975775 21.99799261 3.9375 16.0625 C3.45603516 14.22365234 3.45603516 14.22365234 2.96484375 12.34765625 C2.08869964 9.06909004 2.08869964 9.06909004 0.87890625 6.30859375 C0 4 0 4 0 0 Z " fill="#386BAF" transform="translate(212,78)"/>
<path d="M0 0 C0.33 0 0.66 0 1 0 C1.19655987 4.91399678 0.5399062 8.3802814 -1 13 C-1.33093916 15.57486811 -1.55907165 18.14195191 -1.75390625 20.73046875 C-2 23 -2 23 -3 26 C-2.979375 27.134375 -2.95875 28.26875 -2.9375 29.4375 C-2.99786753 32.87844912 -3.38577046 34.11970808 -5 37 C-5.68242592 24.31825169 -4.0258735 12.0776205 0 0 Z " fill="#7EAFD9" transform="translate(5,95)"/>
<path d="M0 0 C0.99 0.33 1.98 0.66 3 1 C-1.69766975 6.66129431 -6.74723372 11.85228904 -12 17 C-12.99 16.34 -13.98 15.68 -15 15 C-10.05 10.05 -5.1 5.1 0 0 Z " fill="#5F8EC6" transform="translate(113,92)"/>
<path d="M0 0 C2.12150493 3.90356907 2.44885809 6.51141908 2 11 C0.59516348 15.50052419 -1.27957148 18.92946223 -5.3125 21.5 C-9.25713816 23.10459857 -11.78810306 23.48598811 -16 23 C-16.99 22.34 -17.98 21.68 -19 21 C-18.19175781 20.91363281 -17.38351563 20.82726562 -16.55078125 20.73828125 C-15.48214844 20.59777344 -14.41351563 20.45726562 -13.3125 20.3125 C-12.25675781 20.18488281 -11.20101562 20.05726563 -10.11328125 19.92578125 C-6.11713733 18.73746744 -4.5185085 17.31003975 -2 14 C-0.97775307 10.44772381 -0.97775307 10.44772381 -0.6875 6.6875 C-0.54699219 5.43324219 -0.40648437 4.17898437 -0.26171875 2.88671875 C-0.17535156 1.93410156 -0.08898437 0.98148437 0 0 Z " fill="#396BAE" transform="translate(222,115)"/>
<path d="M0 0 C2.19481464 3.5665738 2.32072638 6.67576122 2.5 10.8125 C2.80362644 16.52910931 2.80362644 16.52910931 4.125 22.0625 C5.06010859 25.20179312 4.93920811 26.90061323 4 30 C-0.98559112 21.07621085 -0.26343935 9.89361101 0 0 Z " fill="#7FB2DB" transform="translate(0,134)"/>
<path d="M0 0 C0 3.61912151 -0.61886415 4.0418928 -3 6.625 C-3.63035156 7.31851563 -4.26070312 8.01203125 -4.91015625 8.7265625 C-5.94462891 9.85191406 -5.94462891 9.85191406 -7 11 C-8.4815794 12.66452224 -9.96080133 14.33114625 -11.4375 16 C-12.6246859 17.33361301 -13.81206989 18.66704985 -15 20 C-15.66 19.34 -16.32 18.68 -17 18 C-11.51481106 11.80376805 -5.92437965 5.77909513 0 0 Z " fill="#6192C8" transform="translate(43,38)"/>
<path d="M0 0 C3.24143331 0.58048968 4.86648792 1.49633853 7.1640625 3.8359375 C8.01097656 4.69058594 8.01097656 4.69058594 8.875 5.5625 C9.4525 6.160625 10.03 6.75875 10.625 7.375 C11.21023437 7.96539062 11.79546875 8.55578125 12.3984375 9.1640625 C14.89280131 11.70419445 17.01460067 14.021901 19 17 C18.67 17.99 18.34 18.98 18 20 C17.28714844 19.13117187 16.57429688 18.26234375 15.83984375 17.3671875 C10.88749231 11.38940596 6.08563681 5.86850945 0 1 C0 0.67 0 0.34 0 0 Z " fill="#2B60A6" transform="translate(204,40)"/>
<path d="M0 0 C2.0625 1.75 2.0625 1.75 2.875 4.4375 C2.936875 5.200625 2.99875 5.96375 3.0625 6.75 C1.825 5.5434375 1.825 5.5434375 0.5625 4.3125 C-3.03315837 1.32742513 -6.30217779 0.54766451 -10.9375 0.75 C-14.3190339 1.56843032 -14.3190339 1.56843032 -16.9375 2.75 C-17.2675 2.09 -17.5975 1.43 -17.9375 0.75 C-11.38383807 -2.66336559 -7.00859659 -2.98238153 0 0 Z " fill="#4876B4" transform="translate(217.9375,151.25)"/>
<path d="M0 0 C0.99 0 1.98 0 3 0 C4.53515625 2.046875 4.53515625 2.046875 6.0625 4.75 C6.56910156 5.63171875 7.07570312 6.5134375 7.59765625 7.421875 C8.06042969 8.27265625 8.52320313 9.1234375 9 10 C9.58201172 11.051875 9.58201172 11.051875 10.17578125 12.125 C11.33951925 14.77236606 11.12964807 17.14774242 11 20 C8.47361896 16.21042843 6.56499078 12.17454185 4.56640625 8.09375 C3.17032578 5.26563849 1.75278941 2.62918411 0 0 Z " fill="#3F70B1" transform="translate(181,82)"/>
<path d="M0 0 C0.55429688 0.24105469 1.10859375 0.48210937 1.6796875 0.73046875 C0.66648438 1.41882813 0.66648438 1.41882813 -0.3671875 2.12109375 C-1.25921875 2.7346875 -2.15125 3.34828125 -3.0703125 3.98046875 C-3.95203125 4.58375 -4.83375 5.18703125 -5.7421875 5.80859375 C-8.36331889 7.6614081 -8.36331889 7.6614081 -10.5234375 9.96484375 C-12.3203125 11.73046875 -12.3203125 11.73046875 -14.3203125 11.73046875 C-12.80304752 7.95435422 -10.57879543 5.96101795 -7.4453125 3.41796875 C-6.58164063 2.69996094 -5.71796875 1.98195313 -4.828125 1.2421875 C-2.3203125 -0.26953125 -2.3203125 -0.26953125 0 0 Z " fill="#5380BC" transform="translate(129.3203125,81.26953125)"/>
<path d="M0 0 C-6.44985438 3.52888584 -13.74446344 4.31545811 -21 4 C-14.50176993 -0.33215338 -7.55407017 -0.27863374 0 0 Z " fill="#4372B2" transform="translate(156,44)"/>
<path d="M0 0 C0.33 0 0.66 0 1 0 C1.31461385 7.09629025 1.44572039 12.68284595 -2 19 C-3.32963842 15.01108475 -2.38405007 11.81537164 -1.5625 7.8125 C-1.41490234 7.06291016 -1.26730469 6.31332031 -1.11523438 5.54101562 C-0.75027209 3.69265826 -0.37602589 1.84613839 0 0 Z " fill="#366AAF" transform="translate(245,148)"/>
<path d="M0 0 C1.25955231 3.77865693 0.48087189 5.03411786 -0.9375 8.6875 C-1.31777344 9.68136719 -1.69804687 10.67523438 -2.08984375 11.69921875 C-2.39019531 12.45847656 -2.69054687 13.21773437 -3 14 C-3.66 14 -4.32 14 -5 14 C-4.25749403 9.91621717 -3.17076699 5.98060777 -2 2 C-1.34 2 -0.68 2 0 2 C0 1.34 0 0.68 0 0 Z " fill="#4E7CB9" transform="translate(243,165)"/>
<path d="M0 0 C0.86625 1.11375 0.86625 1.11375 1.75 2.25 C4.59626291 5.72876577 7.25497183 8.50331456 11 11 C9.68 11.33 8.36 11.66 7 12 C0.29612756 4.88610478 0.29612756 4.88610478 0 0 Z " fill="#4B79B7" transform="translate(195,125)"/>
<path d="M0 0 C0.33 0.99 0.66 1.98 1 3 C0.00390625 4.82421875 0.00390625 4.82421875 -1.4375 6.6875 C-1.91058594 7.31011719 -2.38367188 7.93273437 -2.87109375 8.57421875 C-3.24363281 9.04472656 -3.61617188 9.51523438 -4 10 C-4.99 9.34 -5.98 8.68 -7 8 C-4.69 5.36 -2.38 2.72 0 0 Z " fill="#6493CA" transform="translate(97,108)"/>
<path d="M0 0 C5.97897503 -0.74737188 9.32379721 1.6768102 14 5 C12.1875 5.61328125 12.1875 5.61328125 10 6 C7 4.1875 7 4.1875 4 2 C2.6808418 1.30570621 1.35350594 0.62469505 0 0 Z " fill="#4271B1" transform="translate(166,73)"/>
<path d="M0 0 C2 1.3125 2 1.3125 4 3 C4 3.99 4 4.98 4 6 C4.66 6 5.32 6 6 6 C6.33 7.65 6.66 9.3 7 11 C6.34 11 5.68 11 5 11 C3.7109375 9.35546875 3.7109375 9.35546875 2.375 7.1875 C1.92898437 6.47980469 1.48296875 5.77210937 1.0234375 5.04296875 C0 3 0 3 0 0 Z " fill="#3165AC" transform="translate(204,65)"/>
<path d="M0 0 C0.66 1.32 1.32 2.64 2 4 C-1.625 8.875 -1.625 8.875 -5 10 C-3.66511872 6.40608886 -2.03977277 3.24509304 0 0 Z " fill="#73A5D6" transform="translate(63,153)"/>
<path d="M0 0 C1.45945288 0.08708669 2.91765868 0.19526907 4.375 0.3125 C5.59316406 0.39951172 5.59316406 0.39951172 6.8359375 0.48828125 C9 1 9 1 11 4 C7.1936543 3.32829194 3.64793184 2.27253436 0 1 C0 0.67 0 0.34 0 0 Z " fill="#2D62A9" transform="translate(159,15)"/>
<path d="M0 0 C-3.44450737 2.29633824 -5.93812283 2.54016485 -10 3 C-10 2.34 -10 1.68 -10 1 C-6.52674819 -0.1577506 -3.63932552 -0.06866652 0 0 Z " fill="#73A1D0" transform="translate(165,250)"/>
<path d="M0 0 C0.66 1.32 1.32 2.64 2 4 C1.01 4.99 0.02 5.98 -1 7 C-1.99 6.67 -2.98 6.34 -4 6 C-2.68 4.02 -1.36 2.04 0 0 Z " fill="#6E9ED2" transform="translate(22,61)"/>
<path d="M0 0 C-3.08888522 2.05925681 -3.70935927 2.2390374 -7.1875 2.125 C-9.0746875 2.063125 -9.0746875 2.063125 -11 2 C-11 1.67 -11 1.34 -11 1 C-3.57142857 -1.42857143 -3.57142857 -1.42857143 0 0 Z " fill="#4273B5" transform="translate(217,176)"/>
<path d="M0 0 C3 1 3 1 5 4 C4.67 4.99 4.34 5.98 4 7 C2 5.1875 2 5.1875 0 3 C0 2.01 0 1.02 0 0 Z " fill="#4473B4" transform="translate(199,60)"/>
<path d="M0 0 C0.66 0.99 1.32 1.98 2 3 C0.35 4.32 -1.3 5.64 -3 7 C-3 3.48283697 -2.17554415 2.62878252 0 0 Z " fill="#6B99CD" transform="translate(30,51)"/>
</svg>
