<?xml version="1.0" encoding="UTF-8"?>
<svg version="1.1" xmlns="http://www.w3.org/2000/svg" width="3840" height="2160">
<path d="M0 0 C4.15458598 4.63471502 6.70515641 9.9323389 9.5 15.4375 C13.47164307 23.15673228 17.50251498 30.83176334 21.6875 38.4375 C26.7100067 47.5807146 31.6176247 56.78153008 36.5 66 C41.78897583 75.98385947 47.11911939 85.94124166 52.54956055 95.84912109 C56.51207771 103.08560671 60.42023435 110.3505215 64.3125 117.625 C64.62704132 118.21283264 64.94158264 118.80066528 65.26565552 119.40631104 C66.86840603 122.40209204 68.47051048 125.39821795 70.07226562 128.39453125 C73.23270826 134.30627704 76.397435 140.21572788 79.5625 146.125 C80.18358643 147.28467285 80.80467285 148.4443457 81.44458008 149.63916016 C86.19388782 158.50346091 90.95979367 167.35874256 95.73071289 176.21142578 C100.31673351 184.72381185 104.88452127 193.24589084 109.44775391 201.77050781 C113.95330552 210.18675739 118.47101856 218.59633692 123 227 C128.16414169 236.58222229 133.31062164 246.17378365 138.44775391 255.77050781 C142.95330558 264.18675752 147.47105707 272.59631609 152 281 C159.67523 295.24302933 167.31226229 309.50646191 174.94787598 323.77075195 C184.27440583 341.19356993 193.62418356 358.60365171 203 376 C213.01108531 394.57505721 222.98956073 413.16736225 232.94787598 431.77075195 C240.5255794 445.92660086 248.11328603 460.07690288 255.73071289 474.21142578 C260.31673351 482.72381185 264.88452127 491.24589084 269.44775391 499.77050781 C273.95330558 508.18675752 278.47105707 516.59631609 283 525 C290.67523 539.24302933 298.31226229 553.50646191 305.94787598 567.77075195 C312.95167388 580.85449241 319.96002456 593.93567814 327 607 C334.67516491 621.24306454 342.31226219 635.50646173 349.94787598 649.77075195 C357.5255794 663.92660086 365.11328603 678.07690288 372.73071289 692.21142578 C377.31673351 700.72381185 381.88452127 709.24589084 386.44775391 717.77050781 C390.95330558 726.18675752 395.47105707 734.59631609 400 743 C407.67523 757.24302933 415.31226229 771.50646191 422.94787598 785.77075195 C429.95167388 798.85449241 436.96002456 811.93567814 444 825 C451.67516491 839.24306454 459.31226219 853.50646173 466.94787598 867.77075195 C474.5255794 881.92660086 482.11328603 896.07690288 489.73071289 910.21142578 C494.31673351 918.72381185 498.88452127 927.24589084 503.44775391 935.77050781 C507.95330558 944.18675752 512.47105707 952.59631609 517 961 C524.67523 975.24302933 532.31226229 989.50646191 539.94787598 1003.77075195 C547.5255794 1017.92660086 555.11328603 1032.07690288 562.73071289 1046.21142578 C567.31673351 1054.72381185 571.88452127 1063.24589084 576.44775391 1071.77050781 C580.95330558 1080.18675752 585.47105707 1088.59631609 590 1097 C597.67523 1111.24302933 605.31226229 1125.50646191 612.94787598 1139.77075195 C619.95167388 1152.85449241 626.96002456 1165.93567814 634 1179 C641.67516491 1193.24306454 649.31226219 1207.50646173 656.94787598 1221.77075195 C664.5255794 1235.92660086 672.11328603 1250.07690288 679.73071289 1264.21142578 C684.31673351 1272.72381185 688.88452127 1281.24589084 693.44775391 1289.77050781 C697.95330558 1298.18675752 702.47105707 1306.59631609 707 1315 C714.67523 1329.24302933 722.31226229 1343.50646191 729.94787598 1357.77075195 C737.5255794 1371.92660086 745.11328603 1386.07690288 752.73071289 1400.21142578 C757.31673351 1408.72381185 761.88452127 1417.24589084 766.44775391 1425.77050781 C770.95330558 1434.18675752 775.47105707 1442.59631609 780 1451 C787.67523 1465.24302933 795.31226229 1479.50646191 802.94787598 1493.77075195 C809.95167388 1506.85449241 816.96002456 1519.93567814 824 1533 C831.67516491 1547.24306454 839.31226219 1561.50646173 846.94787598 1575.77075195 C854.5255794 1589.92660086 862.11328603 1604.07690288 869.73071289 1618.21142578 C873.6827696 1625.54707367 877.62264897 1632.88917706 881.55526733 1640.23526001 C886.92472414 1650.26528806 892.29950432 1660.29241943 897.6875 1670.3125 C898.26371094 1671.38564453 898.83992188 1672.45878906 899.43359375 1673.56445312 C899.975 1674.57056641 900.51640625 1675.57667969 901.07421875 1676.61328125 C901.5748584 1677.54994629 902.07549805 1678.48661133 902.59130859 1679.45166016 C903.82716502 1681.68733942 905.15136727 1683.82511063 906.51953125 1685.98046875 C908 1689 908 1689 907.51171875 1691.140625 C905.66780799 1693.40858759 903.79841231 1695.6034373 901.8125 1697.75 C901.00425781 1698.63171875 900.19601562 1699.5134375 899.36328125 1700.421875 C898.58339844 1701.27265625 897.80351562 1702.1234375 897 1703 C895.82838939 1704.32899114 894.66126608 1705.6619604 893.5 1707 C890.91346688 1709.97391711 888.27805875 1712.89780743 885.625 1715.8125 C882.57141133 1719.18940982 879.65570795 1722.63217132 876.8125 1726.1875 C872.50464496 1731.52139407 867.86140135 1736.47515486 863.15356445 1741.4519043 C859.78588086 1745.03038044 856.56654594 1748.65537524 853.5 1752.5 C848.72003354 1758.48838495 843.46780643 1763.99684413 838.21875 1769.5703125 C834.26683983 1773.76808922 830.47654227 1778.08290505 826.74560547 1782.47753906 C820.20595663 1790.17792447 813.54908783 1797.72408916 806.66796875 1805.12109375 C802.4325365 1809.6913918 798.36473809 1814.39164663 794.33203125 1819.140625 C788.2583712 1826.28110357 782.05272228 1833.25766781 775.66796875 1840.12109375 C771.4325365 1844.6913918 767.36473809 1849.39164663 763.33203125 1854.140625 C757.78083657 1860.66627531 752.13854121 1867.06258628 746.28588867 1873.31958008 C743.2616298 1876.57331665 740.39999502 1879.90240919 737.625 1883.375 C732.7935386 1889.39669368 727.50788329 1894.95437915 722.21875 1900.5703125 C718.26683983 1904.76808922 714.47654227 1909.08290505 710.74560547 1913.47753906 C704.20595663 1921.17792447 697.54908783 1928.72408916 690.66796875 1936.12109375 C686.4325365 1940.6913918 682.36473809 1945.39164663 678.33203125 1950.140625 C672.74390111 1956.71013022 667.08498899 1963.18113608 661.18481445 1969.47338867 C660.72421631 1969.96556885 660.26361816 1970.45774902 659.7890625 1970.96484375 C659.13818161 1971.65123649 659.13818161 1971.65123649 658.47415161 1972.35149574 C656.97433333 1973.97590752 656.97433333 1973.97590752 655.69898987 1975.76947594 C653.04391544 1979.29387582 651.56775052 1980.81916933 647.2512207 1982.19400024 C645.81315537 1982.37943127 644.37045468 1982.53094951 642.92578125 1982.65478516 C642.12102954 1982.74931064 641.31627783 1982.84383612 640.4871397 1982.94122601 C637.76467809 1983.25341981 635.03959948 1983.52063307 632.3125 1983.7890625 C630.30745084 1984.01029126 628.30272265 1984.23444481 626.29829407 1984.46122742 C621.88856465 1984.95418266 617.47729304 1985.42740593 613.06387329 1985.88613892 C605.88965646 1986.63228302 598.72042231 1987.42023658 591.55151367 1988.21557617 C588.98449764 1988.49982258 586.41746541 1988.78392269 583.85041809 1989.06788635 C582.86988221 1989.17637576 582.86988221 1989.17637576 581.86953753 1989.28705686 C577.03914768 1989.82089974 572.208074 1990.34828416 567.37675476 1990.87364197 C543.0263149 1993.52455308 518.69356665 1996.32108581 494.36305857 1999.14859962 C491.24555806 1999.51087314 488.12803037 1999.87291182 485.01049423 2000.23487854 C475.64508204 2001.32231951 466.27975022 2002.41045069 456.91449177 2003.49921489 C438.54604184 2005.63460488 420.17738832 2007.76821151 401.80713624 2009.88805062 C396.24174119 2010.53033515 390.67664015 2011.17508794 385.11176074 2011.82182407 C381.70290871 2012.21738703 378.29378484 2012.6105646 374.88457489 2013.00302958 C373.3130202 2013.18441663 371.74157685 2013.36677136 370.17025566 2013.55017018 C368.03280933 2013.79949244 365.89498745 2014.04530495 363.7570343 2014.29023743 C362.56498036 2014.42821401 361.37292643 2014.56619059 360.14474964 2014.70834827 C357.40342774 2014.96258513 354.75007396 2015.05871617 352 2015 C351.80436746 2013.92613698 351.60873491 2012.85227396 351.40717411 2011.74586964 C346.55297311 1985.10034089 341.69844088 1958.45487251 336.84359837 1931.80946064 C334.26721061 1917.66912058 331.69096705 1903.52875428 329.11497557 1889.38834202 C327.29766974 1879.41270172 325.4800054 1869.43712675 323.662269 1859.4615649 C322.3075294 1852.02649438 320.95343948 1844.59130588 319.59981143 1837.15603292 C315.24767805 1813.25181363 310.88641079 1789.34939077 306.4834162 1765.45448124 C305.2749346 1758.8937394 304.0689231 1752.33254285 302.86273021 1745.77137989 C301.74050418 1739.66939024 300.61350965 1733.56830641 299.4828248 1727.46787882 C298.7974344 1723.76413153 298.11635369 1720.05960148 297.43647122 1716.35483956 C297.12364786 1714.65548406 296.8089678 1712.9564691 296.49227023 1711.25783134 C296.06274894 1708.95300406 295.63976843 1706.64706781 295.21836853 1704.34074402 C294.98140227 1703.05878741 294.74443602 1701.77683081 294.50028896 1700.45602703 C294 1697 294 1697 294 1691 C69.27 1691 -155.46 1691 -387 1691 C-387.33 1693.64 -387.66 1696.28 -388 1699 C-388.26671168 1700.3801323 -388.55794819 1701.75625388 -388.89439392 1703.12106323 C-389.1555268 1704.19474215 -389.1555268 1704.19474215 -389.42193508 1705.29011154 C-389.61132688 1706.04886204 -389.80071867 1706.80761253 -389.99584961 1707.58935547 C-390.19866326 1708.41753407 -390.40147692 1709.24571266 -390.61043644 1710.09898758 C-391.28677802 1712.85612958 -391.96956961 1715.61163203 -392.65234375 1718.3671875 C-393.1399714 1720.34958117 -393.62718391 1722.33207699 -394.11401367 1724.31466675 C-395.16369189 1728.58571758 -396.21621575 1732.85605331 -397.27096558 1737.12585449 C-398.96383381 1743.97896589 -400.65046615 1750.83360277 -402.33618164 1757.68847656 C-404.40366723 1766.09402336 -406.47265821 1774.49919683 -408.54360104 1782.90389252 C-412.21545122 1797.80604792 -415.87685511 1812.71074258 -419.53125 1827.6171875 C-419.79624928 1828.69812557 -420.06124855 1829.77906364 -420.33427811 1830.89275742 C-421.40310114 1835.2526779 -422.47187216 1839.61261113 -423.54053688 1843.97257042 C-425.40528963 1851.58013549 -427.27136653 1859.18737484 -429.13818359 1866.79443359 C-434.27211838 1887.71543786 -439.4021683 1908.63737753 -444.52104187 1929.56207275 C-446.652338 1938.27421865 -448.78517118 1946.98598806 -450.91834736 1955.6976738 C-452.66535714 1962.83293001 -454.41027782 1969.96869294 -456.15367889 1977.1048317 C-457.22555385 1981.49011026 -458.2994043 1985.87490325 -459.37382126 1990.25955963 C-459.873509 1992.30056448 -460.37235456 1994.34177571 -460.87031937 1996.3832016 C-461.54880187 1999.16421392 -462.23020024 2001.94449557 -462.91235352 2004.72460938 C-463.21046637 2005.95119326 -463.21046637 2005.95119326 -463.51460171 2007.20255661 C-464.88590894 2012.77181788 -464.88590894 2012.77181788 -466 2015 C-481.05003104 2013.08683435 -496.06600389 2011.0072566 -511.06860352 2008.75366211 C-513.16073109 2008.44102809 -515.25288484 2008.12856918 -517.34506226 2007.81626892 C-522.94548803 2006.97964974 -528.54549057 2006.14023218 -534.14536786 2005.29995036 C-537.65128171 2004.77398694 -541.15728285 2004.24860926 -544.66331291 2003.7234211 C-556.91220721 2001.88852079 -569.16073109 2000.05116912 -581.40893555 1998.21166992 C-592.80626818 1996.50003265 -604.20444867 1994.79412375 -615.60301834 1993.09074587 C-625.42487398 1991.62271266 -635.24610647 1990.15055989 -645.06686729 1988.67522055 C-650.9181643 1987.79628096 -656.76970414 1986.91904336 -662.62188911 1986.04603386 C-668.10817519 1985.22747733 -673.59366949 1984.4038093 -679.07859421 1983.57618141 C-681.08989534 1983.27358904 -683.10147376 1982.97283321 -685.11334419 1982.67404938 C-687.85865001 1982.26605239 -690.60287881 1981.851445 -693.34693909 1981.43516541 C-694.14254527 1981.3185271 -694.93815146 1981.2018888 -695.75786692 1981.081716 C-706.73732777 1979.39558509 -706.73732777 1979.39558509 -710.30541992 1975.4519043 C-711.04381104 1974.35789307 -711.78220215 1973.26388184 -712.54296875 1972.13671875 C-712.96265427 1971.52293869 -713.38233978 1970.90915863 -713.81474304 1970.27677917 C-715.22828536 1968.19631661 -716.61532488 1966.09977214 -718 1964 C-719.01759829 1962.47337499 -720.03534384 1960.94684814 -721.05322266 1959.42041016 C-723.88322067 1955.15884066 -726.68864104 1950.88152725 -729.48861694 1946.60018921 C-740.1006301 1930.38040228 -750.82717368 1914.24198303 -761.6875 1898.1875 C-770.83952434 1884.65637435 -779.95339284 1871.10185583 -789 1857.5 C-798.94673264 1842.54686464 -808.96610565 1827.64398021 -819.01708984 1812.76074219 C-826.30252661 1801.97243546 -833.57203817 1791.17520872 -840.77270508 1780.33007812 C-845.56124435 1773.13002169 -850.39790276 1765.96328599 -855.24311829 1758.80128479 C-860.24357918 1751.40865813 -865.22883287 1744.00589285 -870.20756531 1736.59861755 C-874.11220347 1730.79278556 -878.03749121 1725.00154399 -881.97608948 1719.21870422 C-884.53401004 1715.45384077 -887.0744382 1711.67740662 -889.61068726 1707.8979187 C-890.82275692 1706.09958645 -892.0421284 1704.30615283 -893.26895142 1702.51785278 C-894.96821377 1700.03866518 -896.64102195 1697.54354024 -898.30859375 1695.04296875 C-898.81742096 1694.31365143 -899.32624817 1693.58433411 -899.85049438 1692.83291626 C-903.13256184 1687.82984109 -903.13256184 1687.82984109 -902.50708008 1683.91430664 C-901.76107544 1682.47172485 -901.76107544 1682.47172485 -901 1681 C-900.4834082 1679.94200195 -899.96681641 1678.88400391 -899.43457031 1677.79394531 C-898.82194336 1676.65022461 -898.20931641 1675.50650391 -897.578125 1674.328125 C-897.07378937 1673.38208405 -897.07378937 1673.38208405 -896.55926514 1672.41693115 C-895.4606377 1670.35886634 -894.35539446 1668.30443691 -893.25 1666.25 C-892.47617909 1664.80359047 -891.7027464 1663.35697319 -890.9296875 1661.91015625 C-888.62637878 1657.60322047 -886.31445465 1653.30095436 -884 1649 C-883.51575562 1648.09979126 -883.51575562 1648.09979126 -883.02172852 1647.18139648 C-880.45633987 1642.41281579 -877.88847697 1637.64557578 -875.31591797 1632.88085938 C-870.62833606 1624.19194366 -865.99827764 1615.47321839 -861.375 1606.75 C-856.20329841 1596.9921426 -850.98386707 1587.26499003 -845.66748047 1577.58496094 C-840.61792088 1568.35957428 -835.722714 1559.05315005 -830.81375122 1549.75250244 C-825.8181747 1540.29023052 -820.77160715 1530.86134182 -815.6171875 1521.484375 C-810.98870545 1513.03676296 -806.49609054 1504.51851887 -802 1496 C-796.6100327 1485.78789735 -791.17975314 1475.6038447 -785.6171875 1465.484375 C-780.98870545 1457.03676296 -776.49609054 1448.51851887 -772 1440 C-766.6100327 1429.78789735 -761.17975314 1419.6038447 -755.6171875 1409.484375 C-750.98870545 1401.03676296 -746.49609054 1392.51851887 -742 1384 C-737.05699098 1374.63472695 -732.10118721 1365.28045142 -727 1356 C-721.94480033 1346.80063982 -717.02660835 1337.53175004 -712.125 1328.25 C-705.05713303 1314.86697617 -697.91826855 1301.52507416 -690.72851562 1288.20703125 C-687.66262565 1282.51867945 -684.6125622 1276.82184944 -681.5625 1271.125 C-680.93964111 1269.96178223 -680.31678223 1268.79856445 -679.67504883 1267.60009766 C-678.41363053 1265.2441976 -677.15234358 1262.88822727 -675.89111328 1260.53222656 C-672.76209039 1254.68742893 -669.63087309 1248.84380667 -666.5 1243 C-665.24999097 1240.66667151 -663.99999097 1238.33333817 -662.75 1236 C-600.875 1120.5 -539 1005 -473.37548828 882.50097656 C-472.12378843 880.16442672 -470.87216098 877.82783809 -469.62060547 875.49121094 C-466.52220165 869.70677209 -463.42259857 863.92298277 -460.3203125 858.140625 C-455.09693229 848.40183828 -449.87641129 838.66186069 -444.69921875 828.8984375 C-444.33788345 828.21701691 -443.97654816 827.53559631 -443.60426331 826.83352661 C-442.87278714 825.45394707 -442.14132658 824.07435925 -441.40988159 822.69476318 C-441.04774567 822.01174133 -440.68560974 821.32871948 -440.3125 820.625 C-439.95012238 819.94149475 -439.58774475 819.2579895 -439.21438599 818.55377197 C-434.42778521 809.52894166 -429.58492948 800.53871849 -424.66723633 791.58447266 C-419.61770219 782.35928016 -414.72262864 773.05298831 -409.81375122 763.75250244 C-404.8181747 754.29023052 -399.77160715 744.86134182 -394.6171875 735.484375 C-389.98870545 727.03676296 -385.49609054 718.51851887 -381 710 C-375.6100327 699.78789735 -370.17975314 689.6038447 -364.6171875 679.484375 C-359.98870545 671.03676296 -355.49609054 662.51851887 -351 654 C-345.6100327 643.78789735 -340.17975314 633.6038447 -334.6171875 623.484375 C-329.98870545 615.03676296 -325.49609054 606.51851887 -321 598 C-315.6100327 587.78789735 -310.17975314 577.6038447 -304.6171875 567.484375 C-299.98870545 559.03676296 -295.49609054 550.51851887 -291 542 C-285.6100327 531.78789735 -280.17975314 521.6038447 -274.6171875 511.484375 C-269.98870545 503.03676296 -265.49609054 494.51851887 -261 486 C-255.6100327 475.78789735 -250.17975314 465.6038447 -244.6171875 455.484375 C-239.98870545 447.03676296 -235.49609054 438.51851887 -231 430 C-225.6100327 419.78789735 -220.17975314 409.6038447 -214.6171875 399.484375 C-209.98870545 391.03676296 -205.49609054 382.51851887 -201 374 C-195.6100327 363.78789735 -190.17975314 353.6038447 -184.6171875 343.484375 C-179.98870545 335.03676296 -175.49609054 326.51851887 -171 318 C-165.6100327 307.78789735 -160.17975314 297.6038447 -154.6171875 287.484375 C-149.98870482 279.0367618 -145.49613624 270.51849578 -141 262 C-135.58390906 251.73888689 -130.12806575 241.50514456 -124.54248047 231.33496094 C-120.1644543 223.34472663 -115.89167495 215.30003175 -111.625 207.25 C-106.40431662 197.40067397 -101.16718274 187.56118884 -95.875 177.75 C-95.30966553 176.70183105 -94.74433105 175.65366211 -94.16186523 174.57373047 C-93.59669189 173.52588379 -93.03151855 172.47803711 -92.44921875 171.3984375 C-84.81997203 157.25313139 -77.22465643 143.08938026 -69.6953125 128.890625 C-69.33417862 128.20960724 -68.97304474 127.52858948 -68.60096741 126.82693481 C-67.87016742 125.44869551 -67.13937824 124.07045047 -66.40859985 122.69219971 C-66.0468869 122.0100238 -65.68517395 121.3278479 -65.3125 120.625 C-64.95054535 119.9423407 -64.5885907 119.2596814 -64.21566772 118.55633545 C-59.40234642 109.481712 -54.53418271 100.44061119 -49.5925293 91.43505859 C-45.19995458 83.41034813 -40.90939586 75.33278071 -36.625 67.25 C-29.70438383 54.19521876 -22.73651021 41.16743463 -15.71142578 28.16845703 C-13.89752567 24.81028361 -12.08736911 21.45010702 -10.27734375 18.08984375 C-9.08087735 15.87231587 -7.88426789 13.65486518 -6.6875 11.4375 C-6.1296582 10.40109375 -5.57181641 9.3646875 -4.99707031 8.296875 C-4.4862793 7.35199219 -3.97548828 6.40710938 -3.44921875 5.43359375 C-2.77379028 4.18147095 -2.77379028 4.18147095 -2.0847168 2.90405273 C-1 1 -1 1 0 0 Z " fill="#8A181B" transform="translate(1938,69)"/>
<path d="M0 0 C2.72410759 3.24946078 4.89448335 6.40525296 6.8125 10.18359375 C7.57965332 11.68031616 7.57965332 11.68031616 8.36230469 13.20727539 C8.90274414 14.27324951 9.44318359 15.33922363 10 16.4375 C14.15570971 24.53366719 18.36093735 32.59029741 22.75 40.5625 C27.75320763 49.66330766 32.6396876 58.82242462 37.5 68 C42.28231617 77.02855646 47.08364361 86.04343565 52 95 C56.8704849 103.87540636 61.63373064 112.80516484 66.375 121.75 C73.29967203 134.81315185 80.2791126 147.84516129 87.30273438 160.85546875 C97.89106024 180.47250515 108.42744066 200.11725103 118.94787598 219.77075195 C125.95167388 232.85449241 132.96002456 245.93567814 140 259 C147.67516491 273.24306454 155.31226219 287.50646173 162.94787598 301.77075195 C170.5255794 315.92660086 178.11328603 330.07690288 185.73071289 344.21142578 C190.31673351 352.72381185 194.88452127 361.24589084 199.44775391 369.77050781 C203.95330558 378.18675752 208.47105707 386.59631609 213 395 C220.67523 409.24302933 228.31226229 423.50646191 235.94787598 437.77075195 C243.5255794 451.92660086 251.11328603 466.07690288 258.73071289 480.21142578 C263.31673351 488.72381185 267.88452127 497.24589084 272.44775391 505.77050781 C276.95330558 514.18675752 281.47105707 522.59631609 286 531 C293.67523 545.24302933 301.31226229 559.50646191 308.94787598 573.77075195 C315.95167388 586.85449241 322.96002456 599.93567814 330 613 C337.67516491 627.24306454 345.31226219 641.50646173 352.94787598 655.77075195 C360.5255794 669.92660086 368.11328603 684.07690288 375.73071289 698.21142578 C379.6827696 705.54707367 383.62264897 712.88917706 387.55526733 720.23526001 C392.92472414 730.26528806 398.29950432 740.29241943 403.6875 750.3125 C404.26371094 751.38564453 404.83992188 752.45878906 405.43359375 753.56445312 C405.975 754.57056641 406.51640625 755.57667969 407.07421875 756.61328125 C407.5748584 757.54994629 408.07549805 758.48661133 408.59130859 759.45166016 C409.82716502 761.68733942 411.15136727 763.82511063 412.51953125 765.98046875 C414 769 414 769 413.51171875 771.140625 C411.66780799 773.40858759 409.79841231 775.6034373 407.8125 777.75 C407.00425781 778.63171875 406.19601562 779.5134375 405.36328125 780.421875 C404.58339844 781.27265625 403.80351562 782.1234375 403 783 C401.82838939 784.32899114 400.66126608 785.6619604 399.5 787 C396.91346688 789.97391711 394.27805875 792.89780743 391.625 795.8125 C388.57141133 799.18940982 385.65570795 802.63217132 382.8125 806.1875 C378.50464496 811.52139407 373.86140135 816.47515486 369.15356445 821.4519043 C365.78588086 825.03038044 362.56654594 828.65537524 359.5 832.5 C354.72003354 838.48838495 349.46780643 843.99684413 344.21875 849.5703125 C340.26683983 853.76808922 336.47654227 858.08290505 332.74560547 862.47753906 C326.20595663 870.17792447 319.54908783 877.72408916 312.66796875 885.12109375 C308.4325365 889.6913918 304.36473809 894.39164663 300.33203125 899.140625 C294.2583712 906.28110357 288.05272228 913.25766781 281.66796875 920.12109375 C277.4325365 924.6913918 273.36473809 929.39164663 269.33203125 934.140625 C263.78083657 940.66627531 258.13854121 947.06258628 252.28588867 953.31958008 C249.2616298 956.57331665 246.39999502 959.90240919 243.625 963.375 C238.7935386 969.39669368 233.50788329 974.95437915 228.21875 980.5703125 C224.26683983 984.76808922 220.47654227 989.08290505 216.74560547 993.47753906 C210.20595663 1001.17792447 203.54908783 1008.72408916 196.66796875 1016.12109375 C192.4325365 1020.6913918 188.36473809 1025.39164663 184.33203125 1030.140625 C178.74390111 1036.71013022 173.08498899 1043.18113608 167.18481445 1049.47338867 C166.72421631 1049.96556885 166.26361816 1050.45774902 165.7890625 1050.96484375 C165.13818161 1051.65123649 165.13818161 1051.65123649 164.47415161 1052.35149574 C162.97433333 1053.97590752 162.97433333 1053.97590752 161.69898987 1055.76947594 C159.04391544 1059.29387582 157.56775052 1060.81916933 153.2512207 1062.19400024 C151.81315537 1062.37943127 150.37045468 1062.53094951 148.92578125 1062.65478516 C148.12102954 1062.74931064 147.31627783 1062.84383612 146.4871397 1062.94122601 C143.76467809 1063.25341981 141.03959948 1063.52063307 138.3125 1063.7890625 C136.30745084 1064.01029126 134.30272265 1064.23444481 132.29829407 1064.46122742 C127.88856465 1064.95418266 123.47729304 1065.42740593 119.06387329 1065.88613892 C111.88965646 1066.63228302 104.72042231 1067.42023658 97.55151367 1068.21557617 C94.98449764 1068.49982258 92.41746541 1068.78392269 89.85041809 1069.06788635 C88.86988221 1069.17637576 88.86988221 1069.17637576 87.86953753 1069.28705686 C83.03914768 1069.82089974 78.208074 1070.34828416 73.37675476 1070.87364197 C49.0263149 1073.52455308 24.69356665 1076.32108581 0.36305857 1079.14859962 C-2.75444194 1079.51087314 -5.87196963 1079.87291182 -8.98950577 1080.23487854 C-18.35491796 1081.32231951 -27.72024978 1082.41045069 -37.08550823 1083.49921489 C-55.45395816 1085.63460488 -73.82261168 1087.76821151 -92.19286376 1089.88805062 C-97.75825881 1090.53033515 -103.32335985 1091.17508794 -108.88823926 1091.82182407 C-112.29709129 1092.21738703 -115.70621516 1092.6105646 -119.11542511 1093.00302958 C-120.6869798 1093.18441663 -122.25842315 1093.36677136 -123.82974434 1093.55017018 C-125.96719067 1093.79949244 -128.10501255 1094.04530495 -130.2429657 1094.29023743 C-131.43501964 1094.42821401 -132.62707357 1094.56619059 -133.85525036 1094.70834827 C-136.59657226 1094.96258513 -139.24992604 1095.05871617 -142 1095 C-142.19563254 1093.92613698 -142.39126509 1092.85227396 -142.59282589 1091.74586964 C-147.44702689 1065.10034089 -152.30155912 1038.45487251 -157.15640163 1011.80946064 C-159.73278939 997.66912058 -162.30903295 983.52875428 -164.88502443 969.38834202 C-166.70233026 959.41270172 -168.5199946 949.43712675 -170.337731 939.4615649 C-171.6924706 932.02649438 -173.04656052 924.59130588 -174.40018857 917.15603292 C-178.75232195 893.25181363 -183.11358921 869.34939077 -187.5165838 845.45448124 C-188.7250654 838.8937394 -189.9310769 832.33254285 -191.13726979 825.77137989 C-192.25949582 819.66939024 -193.38649035 813.56830641 -194.5171752 807.46787882 C-195.2025656 803.76413153 -195.88364631 800.05960148 -196.56352878 796.35483956 C-196.87635214 794.65548406 -197.1910322 792.9564691 -197.50772977 791.25783134 C-197.93725106 788.95300406 -198.36023157 786.64706781 -198.78163147 784.34074402 C-199.01859773 783.05878741 -199.25556398 781.77683081 -199.49971104 780.45602703 C-200 777 -200 777 -200 771 C-424.73 771 -649.46 771 -881 771 C-881.33 773.64 -881.66 776.28 -882 779 C-882.26671168 780.3801323 -882.55794819 781.75625388 -882.89439392 783.12106323 C-883.1555268 784.19474215 -883.1555268 784.19474215 -883.42193508 785.29011154 C-883.61132688 786.04886204 -883.80071867 786.80761253 -883.99584961 787.58935547 C-884.19866326 788.41753407 -884.40147692 789.24571266 -884.61043644 790.09898758 C-885.28677802 792.85612958 -885.96956961 795.61163203 -886.65234375 798.3671875 C-887.1399714 800.34958117 -887.62718391 802.33207699 -888.11401367 804.31466675 C-889.16369189 808.58571758 -890.21621575 812.85605331 -891.27096558 817.12585449 C-892.96383381 823.97896589 -894.65046615 830.83360277 -896.33618164 837.68847656 C-898.40366723 846.09402336 -900.47265821 854.49919683 -902.54360104 862.90389252 C-906.21545122 877.80604792 -909.87685511 892.71074258 -913.53125 907.6171875 C-913.79624928 908.69812557 -914.06124855 909.77906364 -914.33427811 910.89275742 C-915.40310114 915.2526779 -916.47187216 919.61261113 -917.54053688 923.97257042 C-919.40528963 931.58013549 -921.27136653 939.18737484 -923.13818359 946.79443359 C-928.27211838 967.71543786 -933.4021683 988.63737753 -938.52104187 1009.56207275 C-940.652338 1018.27421865 -942.78517118 1026.98598806 -944.91834736 1035.6976738 C-946.66535714 1042.83293001 -948.41027782 1049.96869294 -950.15367889 1057.1048317 C-951.22555385 1061.49011026 -952.2994043 1065.87490325 -953.37382126 1070.25955963 C-953.873509 1072.30056448 -954.37235456 1074.34177571 -954.87031937 1076.3832016 C-955.54880187 1079.16421392 -956.23020024 1081.94449557 -956.91235352 1084.72460938 C-957.21046637 1085.95119326 -957.21046637 1085.95119326 -957.51460171 1087.20255661 C-958.88590894 1092.77181788 -958.88590894 1092.77181788 -960 1095 C-975.05003104 1093.08683435 -990.06600389 1091.0072566 -1005.06860352 1088.75366211 C-1007.16073109 1088.44102809 -1009.25288484 1088.12856918 -1011.34506226 1087.81626892 C-1016.94548803 1086.97964974 -1022.54549057 1086.14023218 -1028.14536786 1085.29995036 C-1031.65128171 1084.77398694 -1035.15728285 1084.24860926 -1038.66331291 1083.7234211 C-1050.91220721 1081.88852079 -1063.16073109 1080.05116912 -1075.40893555 1078.21166992 C-1086.80626818 1076.50003265 -1098.20444867 1074.79412375 -1109.60301834 1073.09074587 C-1119.42487398 1071.62271266 -1129.24610647 1070.15055989 -1139.06686729 1068.67522055 C-1144.9181643 1067.79628096 -1150.76970414 1066.91904336 -1156.62188911 1066.04603386 C-1162.10817519 1065.22747733 -1167.59366949 1064.4038093 -1173.07859421 1063.57618141 C-1175.08989534 1063.27358904 -1177.10147376 1062.97283321 -1179.11334419 1062.67404938 C-1181.85865001 1062.26605239 -1184.60287881 1061.851445 -1187.34693909 1061.43516541 C-1188.14254527 1061.3185271 -1188.93815146 1061.2018888 -1189.75786692 1061.081716 C-1200.73732777 1059.39558509 -1200.73732777 1059.39558509 -1204.30541992 1055.4519043 C-1205.04381104 1054.35789307 -1205.78220215 1053.26388184 -1206.54296875 1052.13671875 C-1206.96265427 1051.52293869 -1207.38233978 1050.90915863 -1207.81474304 1050.27677917 C-1209.22828536 1048.19631661 -1210.61532488 1046.09977214 -1212 1044 C-1213.01759829 1042.47337499 -1214.03534384 1040.94684814 -1215.05322266 1039.42041016 C-1217.88322067 1035.15884066 -1220.68864104 1030.88152725 -1223.48861694 1026.60018921 C-1234.1006301 1010.38040228 -1244.82717368 994.24198303 -1255.6875 978.1875 C-1264.83952434 964.65637435 -1273.95339284 951.10185583 -1283 937.5 C-1292.94673264 922.54686464 -1302.96610565 907.64398021 -1313.01708984 892.76074219 C-1320.30252661 881.97243546 -1327.57203817 871.17520872 -1334.77270508 860.33007812 C-1339.56124435 853.13002169 -1344.39790276 845.96328599 -1349.24311829 838.80128479 C-1354.24357918 831.40865813 -1359.22883287 824.00589285 -1364.20756531 816.59861755 C-1368.11220347 810.79278556 -1372.03749121 805.00154399 -1375.97608948 799.21870422 C-1378.53401004 795.45384077 -1381.0744382 791.67740662 -1383.61068726 787.8979187 C-1384.82275692 786.09958645 -1386.0421284 784.30615283 -1387.26895142 782.51785278 C-1388.96821377 780.03866518 -1390.64102195 777.54354024 -1392.30859375 775.04296875 C-1392.81742096 774.31365143 -1393.32624817 773.58433411 -1393.85049438 772.83291626 C-1397.13256184 767.82984109 -1397.13256184 767.82984109 -1396.50708008 763.91430664 C-1395.76107544 762.47172485 -1395.76107544 762.47172485 -1395 761 C-1394.4834082 759.94200195 -1393.96681641 758.88400391 -1393.43457031 757.79394531 C-1392.82194336 756.65022461 -1392.20931641 755.50650391 -1391.578125 754.328125 C-1391.24190125 753.69743103 -1390.90567749 753.06673706 -1390.55926514 752.41693115 C-1389.4606377 750.35886634 -1388.35539446 748.30443691 -1387.25 746.25 C-1386.47617909 744.80359047 -1385.7027464 743.35697319 -1384.9296875 741.91015625 C-1382.62637878 737.60322047 -1380.31445465 733.30095436 -1378 729 C-1377.51575562 728.09979126 -1377.51575562 728.09979126 -1377.02172852 727.18139648 C-1374.45633987 722.41281579 -1371.88847697 717.64557578 -1369.31591797 712.88085938 C-1364.62833606 704.19194366 -1359.99827764 695.47321839 -1355.375 686.75 C-1350.20329841 676.9921426 -1344.98386707 667.26499003 -1339.66748047 657.58496094 C-1334.61792088 648.35957428 -1329.722714 639.05315005 -1324.81375122 629.75250244 C-1319.8181747 620.29023052 -1314.77160715 610.86134182 -1309.6171875 601.484375 C-1304.98870545 593.03676296 -1300.49609054 584.51851887 -1296 576 C-1290.61463844 565.79662361 -1285.19228614 555.61934928 -1279.63037109 545.51074219 C-1276.52754697 539.85158378 -1273.48795122 534.16128659 -1270.4765625 528.453125 C-1270.07757751 527.69713013 -1269.67859253 526.94113525 -1269.26751709 526.16223145 C-1266.9057641 521.68467476 -1264.55113077 517.2034509 -1262.20111084 512.71972656 C-1261.12270828 510.6806089 -1260.02225751 508.65462686 -1258.91894531 506.62890625 C-1257.73280492 504.44002724 -1256.72250446 502.33436059 -1255.76074219 500.02734375 C-1252.5386702 492.96717604 -1247.6165192 490.90397418 -1240.70292664 488.2507019 C-1238.14202879 487.31391746 -1235.57142952 486.40743145 -1233 485.5 C-1231.16684596 484.82384422 -1229.33508292 484.14390678 -1227.50463867 483.46044922 C-1223.64247916 482.02109245 -1219.77512907 480.59713775 -1215.90380859 479.18261719 C-1207.27218084 476.01175712 -1198.7250552 472.62649448 -1190.17163086 469.25170898 C-1185.34319059 467.34894647 -1180.50915842 465.46049045 -1175.67578125 463.5703125 C-1173.72734957 462.80768548 -1171.77894461 462.04499019 -1169.83056641 461.28222656 C-1161.17734059 457.8950256 -1152.52363573 454.5090489 -1143.8699646 451.12298584 C-1139.07995655 449.24870794 -1134.28997987 447.3743499 -1129.5 445.5 C-1127.58333348 444.74999962 -1125.66666682 443.99999962 -1123.75 443.25 C-1122.80125 442.87875 -1121.8525 442.5075 -1120.875 442.125 C-1102.66666667 435 -1084.45833333 427.875 -1066.25 420.75 C-1065.30122482 420.37873993 -1064.35244965 420.00747986 -1063.37492371 419.62496948 C-1061.45851195 418.87506967 -1059.5420996 418.1251714 -1057.62568665 417.37527466 C-1052.83011488 415.49875432 -1048.03455358 413.62220722 -1043.23901367 411.74560547 C-1034.66063044 408.38872231 -1026.08217948 405.03201289 -1017.50332642 401.67633057 C-996.49857965 393.46014725 -975.4968502 385.23634446 -954.5 377 C-932.56109036 368.39411792 -910.61660091 359.80257153 -888.66943359 351.21777344 C-881.99111074 348.60543718 -875.31304414 345.9924461 -868.63516235 343.37898254 C-863.8700466 341.51413418 -859.10471565 339.64984036 -854.33886719 337.78686523 C-845.32962318 334.26444566 -836.32290622 330.73588215 -827.32333374 327.18881226 C-823.05695579 325.50764901 -818.78939125 323.82951002 -814.52172852 322.15161133 C-812.48141757 321.34843977 -810.44169353 320.54377554 -808.40258789 319.73754883 C-805.58104863 318.62206743 -802.75755538 317.51167548 -799.93359375 316.40234375 C-799.09936386 316.07096909 -798.26513397 315.73959442 -797.40562439 315.3981781 C-793.62348973 313.91785931 -790.04257785 312.59827916 -786 312 C-786.50223705 320.62412764 -788.12733386 328.78201906 -790.0625 337.1875 C-790.70501105 340.03387482 -791.34005858 342.88187558 -791.97265625 345.73046875 C-792.22083603 346.84674149 -792.22083603 346.84674149 -792.47402954 347.98556519 C-794.45500019 356.96236393 -796.22224849 365.98121827 -798 375 C-800.63032779 388.31934073 -803.40605176 401.59157505 -806.35546875 414.84375 C-808.72292424 425.5328854 -810.87755618 436.25982496 -813 447 C-815.63134136 460.3153427 -818.40383987 473.58437259 -821.35327148 486.83276367 C-823.92978333 498.48876015 -826.26023089 510.1891314 -828.5736084 521.89981079 C-830.89223375 533.62554597 -833.34810121 545.30313459 -835.99243164 556.96044922 C-837.63017301 564.21692058 -839.08942581 571.48886872 -840.43554688 578.80453491 C-841.72930928 585.76102389 -843.1995034 592.67218432 -844.703125 599.5859375 C-846.99037642 610.18319603 -849.20597498 620.79276107 -851.359375 631.41796875 C-851.49871964 632.10539343 -851.63806427 632.79281811 -851.78163147 633.50107384 C-852.63004478 637.68902898 -853.47627831 641.87742233 -854.32171631 646.065979 C-855.46782319 651.7432669 -856.6161004 657.42011505 -857.76551056 663.096735 C-858.15955499 665.04456871 -858.55242225 666.99264045 -858.94525146 668.9407196 C-860.23348241 675.30969222 -861.57375953 681.66057674 -863 688 C-863.75470677 691.78108091 -864.48855907 695.56568125 -865.21875 699.3515625 C-866 703 -866 703 -867 706.43359375 C-868.11573688 710.41276472 -868.83274972 714.36434034 -869.5 718.4375 C-869.73663085 719.87418732 -869.97620651 721.31039278 -870.21875 722.74609375 C-870.32123047 723.37185303 -870.42371094 723.9976123 -870.52929688 724.64233398 C-871.22421757 728.12306485 -872.13913853 731.5565541 -873 735 C-875.31 746.55 -877.62 758.1 -880 770 C-655.93 770 -431.86 770 -201 770 C-202.32 762.08 -203.64 754.16 -205 746 C-205.86321907 740.28008371 -206.70112456 734.55961119 -207.50976562 728.83203125 C-208.45175956 722.30564291 -209.5812636 715.83956707 -210.8253479 709.36404419 C-212.27173965 701.73428547 -213.41376776 694.06151291 -214.56210327 686.38226318 C-216.41870484 673.98207848 -218.34610745 661.61293904 -220.67602539 649.29150391 C-221.89165293 642.79844382 -222.82926646 636.29023944 -223.71337891 629.74487305 C-225.12753555 619.59010449 -226.99348241 609.51156983 -228.84326172 599.42871094 C-230.35183368 591.13404574 -231.57495609 582.85185953 -232.57299805 574.48071289 C-233.05180063 570.57774639 -233.66507176 566.74202086 -234.375 562.875 C-234.49875 562.18946045 -234.6225 561.5039209 -234.75 560.79760742 C-235.47439314 556.79790978 -236.22485546 552.80323261 -236.9765625 548.80859375 C-238.68542644 539.66317441 -240.25388624 530.54182921 -241.4375 521.3125 C-242.50662225 512.97950289 -243.92286845 504.75144527 -245.5 496.5 C-247.01389195 488.55928156 -248.41095276 480.64379159 -249.4375 472.625 C-252.3085165 450.29975794 -256.27114839 428.1084747 -260.10766602 405.93261719 C-262.76111692 390.57332053 -265.29243244 375.19417309 -267.8125 359.8125 C-267.92022736 359.15511463 -268.02795471 358.49772926 -268.13894653 357.82042313 C-270.50033817 343.40750999 -272.84855032 328.99256366 -275.15234375 314.5703125 C-275.32487167 313.4903299 -275.4973996 312.41034729 -275.67515564 311.29763794 C-276.02438211 309.11108538 -276.37359982 306.92453142 -276.72280884 304.73797607 C-276.89678192 303.64881897 -277.070755 302.55966187 -277.25 301.4375 C-277.42485931 300.34270325 -277.59971863 299.24790649 -277.77987671 298.11993408 C-281.89911915 272.36470236 -286.20760444 246.64124152 -290.50750637 220.91569042 C-291.25385641 216.4503298 -292.00005499 211.98494389 -292.74609375 207.51953125 C-292.89023523 206.65682177 -293.03437672 205.79411228 -293.18288612 204.90526009 C-295.81576034 189.14287134 -298.41110096 173.37468258 -300.95947266 157.59838867 C-301.07881165 156.85975082 -301.19815063 156.12111298 -301.32110596 155.36009216 C-301.54682497 153.96154188 -301.77206977 152.56291494 -301.99676514 151.16419983 C-302.59276149 147.46597249 -303.2067022 143.77141407 -303.83837891 140.07910156 C-303.97802567 139.25834137 -304.11767242 138.43758118 -304.2615509 137.59194946 C-304.53041529 136.01608146 -304.80197556 134.44067015 -305.07670593 132.86581421 C-305.64935509 129.50346745 -306 126.42376835 -306 123 C-304.80890625 122.53964355 -303.6178125 122.07928711 -302.390625 121.60498047 C-272.81482869 110.17036698 -243.28036731 98.63438419 -213.7734375 87.0234375 C-181.96462687 74.50686817 -181.96462687 74.50686817 -167.9609375 69.140625 C-162.29519101 66.95804192 -156.64884732 64.7258703 -151 62.5 C-125.79652202 52.56882821 -125.79652202 52.56882821 -116.875 49.5 C-111.66414805 47.66121485 -106.70644047 45.53484955 -101.7109375 43.18359375 C-97.88428874 41.51288111 -93.94262873 40.30125248 -89.96875 39.03125 C-87.04228259 38.01468764 -84.30111833 36.82006726 -81.5 35.5 C-76.75493065 33.26381789 -71.95986941 31.62635002 -66.96875 30.03125 C-64.04228259 29.01468764 -61.30111833 27.82006726 -58.5 26.5 C-53.75493065 24.26381789 -48.95986941 22.62635002 -43.96875 21.03125 C-41.04228259 20.01468764 -38.30111833 18.82006726 -35.5 17.5 C-30.76139945 15.26686641 -25.97546781 13.62774269 -20.98828125 12.04296875 C-17.9414605 10.97956857 -15.09841115 9.70225102 -12.1875 8.3125 C-8.02127372 6.34410903 -4.58777403 5.3058516 0 5 C0 3.35 0 1.7 0 0 Z " fill="#491514" transform="translate(2432,989)"/>
<path d="M0 0 C2.72410759 3.24946078 4.89448335 6.40525296 6.8125 10.18359375 C7.32393555 11.18140869 7.83537109 12.17922363 8.36230469 13.20727539 C8.90274414 14.27324951 9.44318359 15.33922363 10 16.4375 C14.15570971 24.53366719 18.36093735 32.59029741 22.75 40.5625 C27.75320763 49.66330766 32.6396876 58.82242462 37.5 68 C42.28231617 77.02855646 47.08364361 86.04343565 52 95 C56.8704849 103.87540636 61.63373064 112.80516484 66.375 121.75 C73.29967203 134.81315185 80.2791126 147.84516129 87.30273438 160.85546875 C97.89106024 180.47250515 108.42744066 200.11725103 118.94787598 219.77075195 C125.95167388 232.85449241 132.96002456 245.93567814 140 259 C147.67516491 273.24306454 155.31226219 287.50646173 162.94787598 301.77075195 C170.5255794 315.92660086 178.11328603 330.07690288 185.73071289 344.21142578 C190.31673351 352.72381185 194.88452127 361.24589084 199.44775391 369.77050781 C203.95330558 378.18675752 208.47105707 386.59631609 213 395 C220.67523 409.24302933 228.31226229 423.50646191 235.94787598 437.77075195 C243.5255794 451.92660086 251.11328603 466.07690288 258.73071289 480.21142578 C263.31673351 488.72381185 267.88452127 497.24589084 272.44775391 505.77050781 C276.95330558 514.18675752 281.47105707 522.59631609 286 531 C293.67523 545.24302933 301.31226229 559.50646191 308.94787598 573.77075195 C315.95167388 586.85449241 322.96002456 599.93567814 330 613 C337.67516491 627.24306454 345.31226219 641.50646173 352.94787598 655.77075195 C360.5255794 669.92660086 368.11328603 684.07690288 375.73071289 698.21142578 C380.62595583 707.29777782 385.50061213 716.39508723 390.37036133 725.49511719 C393.54400913 731.42346308 396.72396626 737.34822692 399.91796875 743.265625 C400.23665924 743.85629761 400.55534973 744.44697021 400.88369751 745.05554199 C402.39876813 747.86339713 403.91509184 750.67056121 405.43359375 753.4765625 C405.975 754.47945312 406.51640625 755.48234375 407.07421875 756.515625 C407.54432373 757.38477539 408.01442871 758.25392578 408.4987793 759.14941406 C410.38835312 762.73742251 412.1864789 766.37295781 414 770 C211.38 770 8.76 770 -200 770 C-201.78759279 762.84962883 -203.46281245 756.08570423 -204.5 748.859375 C-204.62181641 748.0486554 -204.74363281 747.23793579 -204.86914062 746.40264893 C-205.25160945 743.85255028 -205.62640893 741.30141296 -206 738.75 C-206.49614458 735.39004169 -206.9960834 732.03067649 -207.5 728.671875 C-207.68555702 727.43405777 -207.68555702 727.43405777 -207.87486267 726.17123413 C-208.84968461 719.76746061 -210.0304452 713.42157955 -211.25439453 707.06054688 C-212.54341011 700.19898542 -213.52972566 693.28606906 -214.56210327 686.38226318 C-216.41870484 673.98207848 -218.34610745 661.61293904 -220.67602539 649.29150391 C-221.89165293 642.79844382 -222.82926646 636.29023944 -223.71337891 629.74487305 C-225.12753555 619.59010449 -226.99348241 609.51156983 -228.84326172 599.42871094 C-230.35183368 591.13404574 -231.57495609 582.85185953 -232.57299805 574.48071289 C-233.05180063 570.57774639 -233.66507176 566.74202086 -234.375 562.875 C-234.49875 562.18946045 -234.6225 561.5039209 -234.75 560.79760742 C-235.47439314 556.79790978 -236.22485546 552.80323261 -236.9765625 548.80859375 C-238.68542644 539.66317441 -240.25388624 530.54182921 -241.4375 521.3125 C-242.50662225 512.97950289 -243.92286845 504.75144527 -245.5 496.5 C-247.01389195 488.55928156 -248.41095276 480.64379159 -249.4375 472.625 C-252.3085165 450.29975794 -256.27114839 428.1084747 -260.10766602 405.93261719 C-262.76111692 390.57332053 -265.29243244 375.19417309 -267.8125 359.8125 C-267.92022736 359.15511463 -268.02795471 358.49772926 -268.13894653 357.82042313 C-270.50033817 343.40750999 -272.84855032 328.99256366 -275.15234375 314.5703125 C-275.32487167 313.4903299 -275.4973996 312.41034729 -275.67515564 311.29763794 C-276.02438211 309.11108538 -276.37359982 306.92453142 -276.72280884 304.73797607 C-276.89678192 303.64881897 -277.070755 302.55966187 -277.25 301.4375 C-277.42485931 300.34270325 -277.59971863 299.24790649 -277.77987671 298.11993408 C-281.89911915 272.36470236 -286.20760444 246.64124152 -290.50750637 220.91569042 C-291.25385641 216.4503298 -292.00005499 211.98494389 -292.74609375 207.51953125 C-292.89023523 206.65682177 -293.03437672 205.79411228 -293.18288612 204.90526009 C-295.81576034 189.14287134 -298.41110096 173.37468258 -300.95947266 157.59838867 C-301.07881165 156.85975082 -301.19815063 156.12111298 -301.32110596 155.36009216 C-301.54682497 153.96154188 -301.77206977 152.56291494 -301.99676514 151.16419983 C-302.59276149 147.46597249 -303.2067022 143.77141407 -303.83837891 140.07910156 C-303.97802567 139.25834137 -304.11767242 138.43758118 -304.2615509 137.59194946 C-304.53041529 136.01608146 -304.80197556 134.44067015 -305.07670593 132.86581421 C-305.64935509 129.50346745 -306 126.42376835 -306 123 C-304.21335937 122.30946533 -304.21335937 122.30946533 -302.390625 121.60498047 C-272.81482869 110.17036698 -243.28036731 98.63438419 -213.7734375 87.0234375 C-181.96462687 74.50686817 -181.96462687 74.50686817 -167.9609375 69.140625 C-162.29519101 66.95804192 -156.64884732 64.7258703 -151 62.5 C-125.79652202 52.56882821 -125.79652202 52.56882821 -116.875 49.5 C-111.66414805 47.66121485 -106.70644047 45.53484955 -101.7109375 43.18359375 C-97.88428874 41.51288111 -93.94262873 40.30125248 -89.96875 39.03125 C-87.04228259 38.01468764 -84.30111833 36.82006726 -81.5 35.5 C-76.75493065 33.26381789 -71.95986941 31.62635002 -66.96875 30.03125 C-64.04228259 29.01468764 -61.30111833 27.82006726 -58.5 26.5 C-53.75493065 24.26381789 -48.95986941 22.62635002 -43.96875 21.03125 C-41.04228259 20.01468764 -38.30111833 18.82006726 -35.5 17.5 C-30.76139945 15.26686641 -25.97546781 13.62774269 -20.98828125 12.04296875 C-17.9414605 10.97956857 -15.09841115 9.70225102 -12.1875 8.3125 C-8.02127372 6.34410903 -4.58777403 5.3058516 0 5 C0 3.35 0 1.7 0 0 Z " fill="#3F1312" transform="translate(2432,989)"/>
<path d="M0 0 C0.33 0 0.66 0 1 0 C8.66865762 39.59405847 8.66865762 39.59405847 11.9375 59 C15.22134925 78.48095525 18.74097765 97.91797381 22.25817871 117.35797119 C23.54128876 124.45221424 24.81650725 131.54782856 26.0859375 138.64453125 C29.29121976 156.54999574 32.51897166 174.45077527 35.8359375 192.3359375 C43.51915083 233.78072975 51.01714055 275.25743584 58.4375 316.75 C58.56550932 317.46575888 58.69351864 318.18151775 58.82540703 318.91896629 C61.0580268 331.40258814 63.29018264 343.88629298 65.52171326 356.37010956 C70.86985561 386.28895092 76.23803339 416.2041628 81.61478043 446.11787796 C82.31082126 449.99065944 83.00668367 453.86347293 83.70248413 457.73629761 C89.10002985 487.77870057 94.50675283 517.81943525 99.92439741 547.85822046 C101.0206926 553.93690862 102.11663695 560.01565996 103.21235657 566.0944519 C103.36636801 566.94885931 103.52037944 567.80326672 103.6790579 568.68356526 C104.29897445 572.12269949 104.91888312 575.56183514 105.53874791 579.00097871 C107.35584839 589.0825548 109.17424315 599.16389528 110.99492532 609.24482518 C112.1337756 615.55107171 113.27114552 621.85758412 114.40741938 628.16429538 C115.06467915 631.81198835 115.72261253 635.45955636 116.38241386 639.10679054 C121.26824551 666.11843076 121.26824551 666.11843076 123.0489769 677.99718189 C123.80681126 683.0143642 124.7686169 687.97230285 125.8125 692.9375 C128.09610948 703.9987651 129.90314426 715.13521315 131.71801758 726.28100586 C133.15533111 735.08491966 134.6837237 743.8673409 136.2922821 752.6415863 C137.88529019 761.33819578 139.44004316 770.04143142 140.98828125 778.74609375 C141.18715061 779.86379213 141.18715061 779.86379213 141.39003754 781.00407028 C142.07953618 784.87931225 142.76873509 788.75460742 143.45770264 792.62994385 C144.90683023 800.78084772 146.35768549 808.93144419 147.80859375 817.08203125 C147.95029243 817.87808525 148.09199112 818.67413925 148.2379837 819.4943161 C150.44149922 831.87279655 152.65096535 844.25018728 154.875 856.625 C155.00880066 857.36956451 155.14260132 858.11412903 155.28045654 858.8812561 C156.05594859 863.1958387 156.83215061 867.51029331 157.60858154 871.82470703 C158.88612096 878.92458303 160.16218948 886.02472332 161.4375 893.125 C161.65246124 894.32168304 161.65246124 894.32168304 161.87176514 895.5425415 C164.43467414 909.81409507 166.97390314 924.08981164 169.50897217 938.36633301 C171.70605299 950.73807534 173.91068739 963.10840975 176.13180542 975.4758606 C176.55852769 977.85287268 176.98452899 980.23001307 177.41040039 982.60717773 C178.75693589 990.11762276 180.11208912 997.6263366 181.48762512 1005.13153076 C182.14823622 1008.73883056 182.80498735 1012.34682832 183.46139526 1015.95489502 C183.77547551 1017.67509889 184.09145414 1019.39495738 184.40945435 1021.11444092 C184.84933232 1023.49342245 185.2827458 1025.87350121 185.71484375 1028.25390625 C185.91114883 1029.3011512 185.91114883 1029.3011512 186.11141968 1030.36955261 C186.81665662 1034.29603056 187.12730234 1038.01261223 187 1042 C164.94297993 1051.184357 142.65480798 1059.76344222 120.36975098 1068.37501526 C109.96756609 1072.39594435 99.57577575 1076.44329103 89.1875 1080.5 C88.33471466 1080.83295074 87.48192932 1081.16590149 86.603302 1081.50894165 C75.42073817 1085.8755098 64.24353936 1090.25552158 53.07177734 1094.6496582 C18.63665439 1108.19069523 -15.8393116 1121.62802093 -50.3125 1135.07177734 C-55.64595009 1137.15171896 -60.97926733 1139.23200096 -66.3125 1141.3125 C-67.18218414 1141.65173492 -68.05186829 1141.99096985 -68.94790649 1142.34048462 C-79.13806306 1146.31572161 -89.32320565 1150.30315222 -99.5 1154.3125 C-112.37616777 1159.3841254 -125.28240471 1164.377568 -138.1875 1169.375 C-156.27664873 1176.38024472 -174.34308817 1183.43936752 -192.3828125 1190.57080078 C-210.42553293 1197.69972123 -228.49470068 1204.75963495 -246.58081055 1211.77758789 C-253.87711228 1214.61005895 -261.16822482 1217.45441776 -268.4453125 1220.3359375 C-269.10408386 1220.59642883 -269.76285522 1220.85692017 -270.44158936 1221.12530518 C-273.52915212 1222.34632101 -276.61529485 1223.5705821 -279.69921875 1224.80078125 C-280.77042969 1225.22488281 -281.84164063 1225.64898438 -282.9453125 1226.0859375 C-283.87875488 1226.4576709 -284.81219727 1226.8294043 -285.77392578 1227.21240234 C-288 1228 -288 1228 -290 1228 C-289.25716973 1220.35946013 -287.52676476 1212.97206619 -285.8125 1205.5 C-285.49541361 1204.10547537 -285.17835671 1202.71094403 -284.86132812 1201.31640625 C-282.78543601 1192.22615076 -280.57506825 1183.17582836 -278.27075195 1174.140625 C-276.20018943 1165.95954468 -274.33539982 1157.73628162 -272.5 1149.5 C-270.45034234 1140.30224505 -268.32937732 1131.13162576 -266 1122 C-263.576692 1112.49218839 -261.38611368 1102.94381399 -259.25439453 1093.36669922 C-256.62792103 1081.58709731 -253.80024923 1069.86268584 -250.9208374 1058.14263916 C-248.27126371 1047.34806931 -245.7275849 1036.53690663 -243.3125 1025.6875 C-241.08315285 1015.6786139 -238.72429048 1005.71778564 -236.19848633 995.77978516 C-234.09416372 987.47033689 -232.15786963 979.12714649 -230.24755859 970.77124023 C-228.3427922 962.44979978 -226.36602245 954.14764611 -224.36206055 945.84960938 C-222.46512666 937.97685229 -220.61246116 930.09440268 -218.77734375 922.20703125 C-218.15832188 919.5499208 -217.53897351 916.89288647 -216.91967773 914.23583984 C-216.76162092 913.55751697 -216.60356411 912.87919409 -216.4407177 912.18031597 C-213.94130541 901.45465528 -211.43222785 890.73125288 -208.92128086 880.00828743 C-208.13102928 876.63350705 -207.34116657 873.25863675 -206.55224609 869.88354492 C-205.60886547 865.84788236 -204.66424332 861.81251184 -203.71875 857.77734375 C-203.56313599 857.11294659 -203.40752197 856.44854942 -203.24719238 855.76401901 C-201.3326317 847.59544497 -199.38247706 839.43639449 -197.39289856 831.28570557 C-194.55407027 819.6496717 -191.86757843 807.99114255 -189.30078125 796.29296875 C-184.72861023 775.47829349 -179.76057292 754.75992001 -174.79721069 734.03567505 C-172.02437429 722.45777111 -169.26233767 710.87728741 -166.5 699.296875 C-166.2229038 698.13557131 -165.94580761 696.97426762 -165.66031456 695.7777729 C-159.72696322 670.90731388 -153.8758727 646.01786653 -148.0670948 621.11804104 C-143.6031349 601.98593576 -139.06075329 582.87392304 -134.46660233 563.77264595 C-130.5960752 547.67811203 -126.75360777 531.57719987 -122.94140625 515.46875 C-122.68706125 514.39406338 -122.43271626 513.31937675 -122.17066383 512.21212387 C-120.85128888 506.63648887 -119.53255092 501.06070345 -118.21417236 495.48483276 C-115.28952203 483.11566784 -112.36169836 470.74725384 -109.43359375 458.37890625 C-109.1303569 457.09795641 -108.82712006 455.81700657 -108.51469421 454.49724007 C-103.86552412 434.85890002 -99.20461487 415.2233692 -94.53515625 395.58984375 C-94.38147119 394.94363264 -94.22778613 394.29742154 -94.06944394 393.63162827 C-91.44852422 382.61134578 -88.82690825 371.59122891 -86.20517349 360.57114029 C-79.72404397 333.32806698 -73.24654459 306.08420884 -66.8203125 278.828125 C-66.57878071 277.8037842 -66.33724892 276.7794434 -66.08839798 275.72406197 C-63.85022676 266.23089621 -61.613855 256.73731043 -59.38238525 247.24256706 C-58.40687464 243.09248673 -57.43035038 238.94264562 -56.453125 234.79296875 C-56.26779961 234.0059256 -56.08247421 233.21888245 -55.8915329 232.4079895 C-52.67876315 218.77521512 -49.38651284 205.16235382 -46.04742432 191.5599823 C-43.1090473 179.57143575 -40.3744818 167.5425154 -37.68359375 155.49609375 C-32.25216082 131.21793732 -26.544796 106.987206 -20.4453125 82.86791992 C-17.64717293 71.79685168 -14.98918148 60.70733943 -12.5 49.5625 C-10.13657164 38.98118138 -7.71465458 28.41830484 -5.1875 17.875 C-4.89746094 16.65369385 -4.60742188 15.4323877 -4.30859375 14.17407227 C-4.0353125 13.04155029 -3.76203125 11.90902832 -3.48046875 10.7421875 C-3.12311646 9.25501221 -3.12311646 9.25501221 -2.75854492 7.73779297 C-2.01637626 5.05910634 -1.08387272 2.55732143 0 0 Z " fill="#D33B2B" transform="translate(1938,71)"/>
<path d="M0 0 C2.51700557 2.27650694 3.96232817 4.53350295 5.49609375 7.55078125 C6.20028442 8.92157837 6.20028442 8.92157837 6.91870117 10.32006836 C7.41990479 11.3075708 7.9211084 12.29507324 8.4375 13.3125 C12.42969561 21.0735897 16.47953479 28.79118713 20.6875 36.4375 C25.71007003 45.58067895 30.61762529 54.78153121 35.5 64 C40.78897583 73.98385947 46.11911939 83.94124166 51.54956055 93.84912109 C55.51207771 101.08560671 59.42023435 108.3505215 63.3125 115.625 C63.62704132 116.21283264 63.94158264 116.80066528 64.26565552 117.40631104 C65.86840603 120.40209204 67.47051048 123.39821795 69.07226562 126.39453125 C72.23270826 132.30627704 75.397435 138.21572788 78.5625 144.125 C79.18358643 145.28467285 79.80467285 146.4443457 80.44458008 147.63916016 C85.19388782 156.50346091 89.95979367 165.35874256 94.73071289 174.21142578 C99.31673351 182.72381185 103.88452127 191.24589084 108.44775391 199.77050781 C112.95330552 208.18675739 117.47101856 216.59633692 122 225 C127.16414169 234.58222229 132.31062164 244.17378365 137.44775391 253.77050781 C141.95330558 262.18675752 146.47105707 270.59631609 151 279 C158.67523 293.24302933 166.31226229 307.50646191 173.94787598 321.77075195 C183.27440583 339.19356993 192.62418356 356.60365171 202 374 C212.01108531 392.57505721 221.98956073 411.16736225 231.94787598 429.77075195 C239.5255794 443.92660086 247.11328603 458.07690288 254.73071289 472.21142578 C259.31673351 480.72381185 263.88452127 489.24589084 268.44775391 497.77050781 C272.95330558 506.18675752 277.47105707 514.59631609 282 523 C289.67523 537.24302933 297.31226229 551.50646191 304.94787598 565.77075195 C311.95167388 578.85449241 318.96002456 591.93567814 326 605 C333.67516491 619.24306454 341.31226219 633.50646173 348.94787598 647.77075195 C356.5255794 661.92660086 364.11328603 676.07690288 371.73071289 690.21142578 C376.31673351 698.72381185 380.88452127 707.24589084 385.44775391 715.77050781 C389.95330558 724.18675752 394.47105707 732.59631609 399 741 C406.67523 755.24302933 414.31226229 769.50646191 421.94787598 783.77075195 C428.95167388 796.85449241 435.96002456 809.93567814 443 823 C451.31902959 838.43790614 459.59656323 853.89803056 467.86813354 869.36140442 C468.82255787 871.14533313 469.77747761 872.92899606 470.73242188 874.71264648 C471.98475547 877.05207745 473.23423884 879.39296346 474.48242188 881.73461914 C477.54541228 887.47041786 480.64653498 893.17885611 483.83203125 898.84765625 C484.43901855 899.93723633 485.04600586 901.02681641 485.67138672 902.14941406 C486.81559921 904.19868377 487.97148255 906.24149802 489.14111328 908.27636719 C492.02765043 913.46829631 493.73301194 917.02883536 493 923 C492.26136719 923.23074219 491.52273438 923.46148438 490.76171875 923.69921875 C485.63959453 925.34584826 480.67506902 927.0634095 475.8125 929.375 C470.39707946 931.92574156 464.84698291 933.8833949 459.19750977 935.8371582 C454.562306 937.44159208 449.99271516 939.14329192 445.453125 941.00390625 C442.48369682 942.2096454 439.49331263 943.35488389 436.5 944.5 C432.65527978 945.97321055 428.8193855 947.46232532 425 949 C420.07342899 950.98342469 415.11539263 952.88101778 410.15625 954.78125 C407.42888847 955.8343896 404.71202489 956.90814582 402 958 C397.07342899 959.98342469 392.11539263 961.88101778 387.15625 963.78125 C384.42888847 964.8343896 381.71202489 965.90814582 379 967 C374.17747077 968.94153774 369.32599515 970.80348639 364.46875 972.65625 C361.82510685 973.68036401 359.19249342 974.72313128 356.5625 975.78125 C348.88755123 978.85931448 341.16447905 981.81460918 333.44970703 984.79101562 C326.54613522 987.45526216 319.64814212 990.12917558 312.78271484 992.890625 C306.74943634 995.29589062 300.69146075 997.63885558 294.63934326 999.99621582 C278.47174255 1006.29414711 262.31476987 1012.61884381 246.16372681 1018.95910645 C215.70270079 1030.91569161 215.70270079 1030.91569161 201.3838501 1036.47058105 C200.05693643 1036.98541372 198.73023136 1037.5007844 197.40374756 1038.01672363 C195.63182482 1038.70561064 193.85891518 1039.39195765 192.0859375 1040.078125 C190.6326001 1040.64128418 190.6326001 1040.64128418 189.14990234 1041.21582031 C187 1042 187 1042 186 1042 C185.90057098 1041.41959961 185.80114197 1040.83919922 185.69869995 1040.24121094 C180.06561626 1007.08181273 180.06561626 1007.08181273 174 974 C171.32378277 960.02988089 168.9073297 946.01865977 166.5 932 C164.06723006 917.83673358 161.6257559 903.67980088 158.9375 889.5625 C155.76009203 872.86998124 152.80369503 856.14074679 149.84481812 839.40835571 C148.34552381 830.93601401 146.83535739 822.46564062 145.32222748 813.99576187 C144.06828826 806.97646567 142.81530272 799.95699912 141.5625 792.9375 C141.42252594 792.15328423 141.28255188 791.36906845 141.13833618 790.56108856 C136.97522843 767.23336839 132.86426276 743.89781375 128.89086914 720.53686523 C127.42256452 711.94045987 125.89840423 703.37178236 124.12890625 694.83203125 C122.30791338 685.97919237 120.82274419 677.07810709 119.36328125 668.16015625 C116.87327274 652.97593277 114.2143342 637.82574655 111.48046875 622.68359375 C111.17207376 620.97530238 111.17207376 620.97530238 110.85744858 619.23250008 C109.53698194 611.92288509 108.21282985 604.61394035 106.8881073 597.30509567 C105.68216156 590.64785626 104.47929713 583.99006029 103.27636719 577.33227539 C102.90158504 575.25811419 102.52679731 573.18395399 102.15200865 571.10979396 C101.89940627 569.71183407 101.6468084 568.31387336 101.39421499 566.91591185 C100.49500899 561.93948073 99.59537377 556.96312732 98.69558716 551.98680115 C93.4175641 522.79471786 88.16258126 493.59850088 82.91240346 464.40139848 C82.00666104 459.36449723 81.10067959 454.32763902 80.19458008 449.290802 C74.42902008 417.24061859 68.67269891 385.18879879 62.93371964 353.13384438 C62.05975044 348.25237853 61.18551985 343.37095952 60.31124878 338.48954773 C59.73320709 335.26199488 59.1551768 332.03444 58.57714844 328.80688477 C58.43481883 328.0121736 58.29248923 327.21746244 58.14584661 326.39866912 C56.62486364 317.90587911 55.1045648 309.41296793 53.58654785 300.91964722 C47.27647796 265.61565446 40.88188194 230.32906715 34.34247398 195.06677532 C28.12821964 161.55539605 22.16409341 128.00181234 16.30285645 94.42709351 C13.49792483 78.37210735 10.62247959 62.33268368 7.625 46.3125 C7.45966766 45.42859589 7.29433533 44.54469177 7.12399292 43.63400269 C6.0859232 38.08872084 5.04374182 32.54421666 4 27 C3.16091461 22.54271081 2.32679606 18.08458375 1.5 13.625 C1.33967285 12.78106689 1.1793457 11.93713379 1.01416016 11.06762695 C0.32552414 7.33531573 -0.18166356 3.79979619 0 0 Z " fill="#A92122" transform="translate(1939,71)"/>
<path d="M0 0 C202.62 0 405.24 0 614 0 C609.99834383 5.33554157 606.12035519 10.21408287 601.5625 15 C600.40808225 16.22844173 599.25442847 17.45760185 598.1015625 18.6875 C597.28800293 19.55375 597.28800293 19.55375 596.45800781 20.4375 C592.61650293 24.55431703 588.97987205 28.84578957 585.3359375 33.13671875 C579.78300996 39.66328275 574.1397901 46.06125111 568.28588867 52.31958008 C565.2616298 55.57331665 562.39999502 58.90240919 559.625 62.375 C554.7935386 68.39669368 549.50788329 73.95437915 544.21875 79.5703125 C540.26683983 83.76808922 536.47654227 88.08290505 532.74560547 92.47753906 C526.20595663 100.17792447 519.54908783 107.72408916 512.66796875 115.12109375 C508.4325365 119.6913918 504.36473809 124.39164663 500.33203125 129.140625 C494.2583712 136.28110357 488.05272228 143.25766781 481.66796875 150.12109375 C477.4325365 154.6913918 473.36473809 159.39164663 469.33203125 164.140625 C463.78083657 170.66627531 458.13854121 177.06258628 452.28588867 183.31958008 C449.2616298 186.57331665 446.39999502 189.90240919 443.625 193.375 C438.7935386 199.39669368 433.50788329 204.95437915 428.21875 210.5703125 C424.26683983 214.76808922 420.47654227 219.08290505 416.74560547 223.47753906 C410.20595663 231.17792447 403.54908783 238.72408916 396.66796875 246.12109375 C392.4325365 250.6913918 388.36473809 255.39164663 384.33203125 260.140625 C378.74390111 266.71013022 373.08498899 273.18113608 367.18481445 279.47338867 C366.72421631 279.96556885 366.26361816 280.45774902 365.7890625 280.96484375 C365.35514191 281.42243891 364.92122131 281.88003407 364.47415161 282.35149574 C362.97433333 283.97590752 362.97433333 283.97590752 361.69898987 285.76947594 C359.04391544 289.29387582 357.56775052 290.81916933 353.2512207 292.19400024 C351.81315537 292.37943127 350.37045468 292.53094951 348.92578125 292.65478516 C348.12102954 292.74931064 347.31627783 292.84383612 346.4871397 292.94122601 C343.76467809 293.25341981 341.03959948 293.52063307 338.3125 293.7890625 C336.30745084 294.01029126 334.30272265 294.23444481 332.29829407 294.46122742 C327.88856465 294.95418266 323.47729304 295.42740593 319.06387329 295.88613892 C311.88965646 296.63228302 304.72042231 297.42023658 297.55151367 298.21557617 C294.98449764 298.49982258 292.41746541 298.78392269 289.85041809 299.06788635 C289.19672751 299.14021262 288.54303692 299.21253889 287.86953753 299.28705686 C283.03914768 299.82089974 278.208074 300.34828416 273.37675476 300.87364197 C249.0263149 303.52455308 224.69356665 306.32108581 200.36305857 309.14859962 C197.24555806 309.51087314 194.12803037 309.87291182 191.01049423 310.23487854 C181.64508204 311.32231951 172.27975022 312.41045069 162.91449177 313.49921489 C144.54604184 315.63460488 126.17738832 317.76821151 107.80713624 319.88805062 C102.24174119 320.53033515 96.67664015 321.17508794 91.11176074 321.82182407 C87.70290871 322.21738703 84.29378484 322.6105646 80.88457489 323.00302958 C79.3130202 323.18441663 77.74157685 323.36677136 76.17025566 323.55017018 C74.03280933 323.79949244 71.89498745 324.04530495 69.7570343 324.29023743 C67.96895339 324.4972023 67.96895339 324.4972023 66.14474964 324.70834827 C63.40342774 324.96258513 60.75007396 325.05871617 58 325 C57.80436746 323.92613698 57.60873491 322.85227396 57.40717411 321.74586964 C52.55297311 295.10034089 47.69844088 268.45487251 42.84359837 241.80946064 C40.2672101 227.66911782 37.69096186 213.5287495 35.11497557 199.38833344 C33.97805274 193.14747226 32.84104329 186.90662688 31.70384789 180.66581535 C31.47894664 179.43157581 31.2540454 178.19733628 31.02232897 176.92569554 C30.56897846 174.43774589 30.11562514 171.94979676 29.662269 169.46184814 C28.30742141 162.02616781 26.95333923 154.59034856 25.59981143 147.15442789 C21.25024184 123.2604691 16.89051538 99.36853219 12.4834162 75.48510945 C11.27463136 68.93148545 10.06876443 62.37732368 8.86273021 55.82319301 C7.74122167 49.73117234 6.6141754 43.64021035 5.4828248 37.5500102 C4.79687422 33.8506142 4.11597226 30.15030233 3.43647122 26.44971681 C3.12396682 24.75391934 2.80930038 23.0585186 2.49227023 21.36356139 C2.0619137 19.06147614 1.63922883 16.75810672 1.21836853 14.45426941 C0.98140227 13.17453341 0.74443602 11.89479742 0.50028896 10.57628155 C0 7 0 7 0 0 Z " fill="#C52B27" transform="translate(2232,1759)"/>
<path d="M0 0 C113.52 0 227.04 0 344 0 C343.31624206 6.15382142 342.49339859 11.76485406 341.00415039 17.70288086 C340.80133674 18.53120548 340.59852308 19.35953011 340.38956356 20.21295547 C339.71431581 22.96494178 339.03098278 25.71485329 338.34765625 28.46484375 C337.85992441 30.44578246 337.37271488 32.42684982 336.88598633 34.40803528 C335.83697957 38.67327901 334.78440747 42.93762103 333.72903442 47.20129395 C332.03500795 54.04524977 330.34883369 60.89112554 328.66381836 67.73730469 C326.59672984 76.13364944 324.52777474 84.52952991 322.45639896 92.92481804 C318.78191487 107.81805317 315.12084452 122.71454094 311.46875 137.61328125 C311.20375072 138.69433577 310.93875145 139.77539028 310.66572189 140.88920403 C309.59687019 145.24976694 308.52809505 149.6103486 307.45946312 153.97096539 C305.59489042 161.57919109 303.72879725 169.18704263 301.86181641 176.79467773 C296.72783142 197.71558835 291.59781293 218.63745426 286.47895813 239.56207275 C284.347662 248.27421865 282.21482882 256.98598806 280.08165264 265.6976738 C278.33464286 272.83293001 276.58972218 279.96869294 274.84632111 287.1048317 C273.77444615 291.49011026 272.7005957 295.87490325 271.62617874 300.25955963 C271.126491 302.30056448 270.62764544 304.34177571 270.12968063 306.3832016 C269.45119813 309.16421392 268.76979976 311.94449557 268.08764648 314.72460938 C267.88890458 315.54233196 267.69016268 316.36005455 267.48539829 317.20255661 C266.11409106 322.77181788 266.11409106 322.77181788 265 325 C249.93325163 323.08604264 234.90187454 321.00049323 219.88378906 318.73779297 C217.78679567 318.42352533 215.68977432 318.10944425 213.59272766 317.79553223 C207.98011838 316.95476728 202.36792699 316.11124509 196.75583744 315.2670188 C192.05535037 314.56019571 187.35465286 313.85477774 182.65395617 313.14935029 C171.57776021 311.48714185 160.50190299 309.8226904 149.42626953 308.15673828 C138.00477262 306.4387984 126.58273822 304.72446669 115.16043496 303.01189697 C105.32361855 301.5369288 95.48711525 300.05988595 85.65086722 298.58113205 C79.78772486 297.6996969 73.92447039 296.81902571 68.06092072 295.9403038 C62.56761126 295.11696428 57.07469729 294.29103603 51.58208275 293.46307373 C49.56454276 293.15939134 47.54686377 292.8566308 45.52903938 292.5548439 C42.78307925 292.14400778 40.0376338 291.72989114 37.29229736 291.31491089 C36.48795265 291.19535974 35.68360795 291.0758086 34.85488915 290.95263469 C31.79273532 290.48685655 28.94504714 289.98168238 26 289 C25.87939209 287.64189209 25.87939209 287.64189209 25.75634766 286.25634766 C25.38124874 282.04571517 25.00404827 277.83527862 24.625 273.625 C24.55619629 272.86071686 24.48739258 272.09643372 24.41650391 271.30899048 C23.68949388 263.25881611 22.95387431 255.2145948 22 247.1875 C20.97903436 238.58267397 20.32198239 229.94806089 19.625 221.3125 C18.6296907 209.00240515 17.49128728 196.7186004 16.1875 184.4375 C14.00354568 163.83672342 12.19007646 143.20330837 10.37747765 122.56723309 C8.93311065 106.12972622 7.39673631 89.70555723 5.73413086 73.28833008 C4.65667141 62.63809543 3.63676453 51.98253191 2.63745117 41.32470703 C2.41776077 38.99245657 2.19569183 36.66042914 1.97143555 34.32861328 C1.63832125 30.86279182 1.31253106 27.39634818 0.98828125 23.9296875 C0.88832352 22.90455048 0.78836578 21.87941345 0.68537903 20.82321167 C0.03892206 13.79257366 0 7.12736144 0 0 Z " fill="#A32022" transform="translate(1207,1759)"/>
<path d="M0 0 C202.62 0 405.24 0 614 0 C609.99834383 5.33554157 606.12035519 10.21408287 601.5625 15 C600.40808225 16.22844173 599.25442847 17.45760185 598.1015625 18.6875 C597.28800293 19.55375 597.28800293 19.55375 596.45800781 20.4375 C592.61650293 24.55431703 588.97987205 28.84578957 585.3359375 33.13671875 C579.78300996 39.66328275 574.1397901 46.06125111 568.28588867 52.31958008 C565.2616298 55.57331665 562.39999502 58.90240919 559.625 62.375 C554.7935386 68.39669368 549.50788329 73.95437915 544.21875 79.5703125 C540.26683983 83.76808922 536.47654227 88.08290505 532.74560547 92.47753906 C526.20595663 100.17792447 519.54908783 107.72408916 512.66796875 115.12109375 C508.4325365 119.6913918 504.36473809 124.39164663 500.33203125 129.140625 C494.2583712 136.28110357 488.05272228 143.25766781 481.66796875 150.12109375 C477.4325365 154.6913918 473.36473809 159.39164663 469.33203125 164.140625 C463.78083657 170.66627531 458.13854121 177.06258628 452.28588867 183.31958008 C449.2616298 186.57331665 446.39999502 189.90240919 443.625 193.375 C438.7935386 199.39669368 433.50788329 204.95437915 428.21875 210.5703125 C424.26683983 214.76808922 420.47654227 219.08290505 416.74560547 223.47753906 C410.20595663 231.17792447 403.54908783 238.72408916 396.66796875 246.12109375 C392.4325365 250.6913918 388.36473809 255.39164663 384.33203125 260.140625 C378.71523065 266.74383573 373.03310025 273.25450709 367.09033203 279.56787109 C364.45139591 282.37870202 362.01320841 285.24034406 359.6875 288.3125 C357 291 357 291 353.33203125 291.16796875 C351.68267578 291.08482422 351.68267578 291.08482422 350 291 C347.80504478 276.83896746 345.88158553 262.65914511 344.125 248.4375 C343.86337596 246.33398272 343.60173832 244.23046713 343.34008789 242.12695312 C341.53245493 227.54417593 339.81333226 212.9520947 338.13293457 198.35418701 C336.702633 185.93630762 335.23403294 173.52401335 333.69265747 161.11938477 C333.48645969 159.45966006 333.28106951 157.79983474 333.07662964 156.13989258 C332.98100739 155.36476318 332.88538513 154.58963379 332.78686523 153.79101562 C332.66359108 152.78935364 332.66359108 152.78935364 332.53782654 151.76745605 C331.74885217 145.54994177 330.91617244 139.34507074 329.95885468 133.15102005 C328.20437889 121.78829591 326.76502161 110.40017933 325.40625 98.984375 C325.17137322 97.03017977 324.93621864 95.07601792 324.70080566 93.12188721 C324.08789833 88.0287237 323.47835382 82.93516385 322.86968994 77.8414917 C321.89889007 69.72328398 320.92229789 61.60576961 319.94689941 53.4881134 C319.59719841 50.57559538 319.24824115 47.66298901 318.89941406 44.75036621 C317.57215581 33.67940639 316.227936 22.61118897 314.78649902 11.55438232 C314.67970825 10.72207092 314.57291748 9.88975952 314.46289062 9.03222656 C314.37221313 8.33889221 314.28153564 7.64555786 314.18811035 6.93121338 C313.99634396 4.96246565 314 2.97806521 314 1 C210.38 1 106.76 1 0 1 C0 0.67 0 0.34 0 0 Z " fill="#A31E22" transform="translate(2232,1759)"/>
<path d="M0 0 C0.33 0 0.66 0 1 0 C1.05945801 0.97996948 1.05945801 0.97996948 1.12011719 1.97973633 C2.38464313 22.38506315 4.21444361 42.71773336 6.15272522 63.06825256 C7.12494757 73.2823708 8.06729698 83.49919565 9.00942993 93.71612549 C9.87539609 103.09918405 10.74664341 112.48175522 11.61663818 121.86444092 C11.88407805 124.74907091 12.15134888 127.63371651 12.41851807 130.51837158 C13.25528141 139.55268494 14.09318186 148.58689123 14.93333912 157.62088966 C15.31225013 161.69551295 15.6906864 165.77017875 16.06777954 169.8449707 C17.62765255 186.69680627 19.21366925 203.54289016 21.01724243 220.3707428 C21.81937119 227.92637022 22.45701504 235.48400543 23 243.0625 C23.75764671 253.5409293 24.79949143 263.9673577 26.03515625 274.40063477 C26.82440481 281.30401696 27.17249483 288.05229141 27 295 C22.38860346 293.49629827 20.43704316 289.65029723 17.94140625 285.78515625 C17.4487175 285.03909622 16.95602875 284.29303619 16.44841003 283.52436829 C15.37598497 281.8982838 14.30778248 280.26940849 13.24328613 278.63812256 C10.95269167 275.12803484 8.64222507 271.6311958 6.33279419 268.13348389 C5.11161347 266.28361614 3.89147984 264.43305679 2.67233276 262.58184814 C-4.21958684 252.12409706 -11.23311609 241.74912734 -18.25 231.375 C-20.56848948 227.94583977 -22.88626248 224.51619718 -25.203125 221.0859375 C-26.04413254 219.84083908 -26.04413254 219.84083908 -26.90213013 218.57058716 C-30.96090962 212.5552783 -34.99141118 206.52154242 -39.01171875 200.48046875 C-43.54652823 193.66643889 -48.1032332 186.86806284 -52.69140625 180.08984375 C-53.24584412 179.27064957 -53.80028198 178.45145538 -54.371521 177.60743713 C-55.51249606 175.92176235 -56.6534875 174.23609864 -57.79449463 172.55044556 C-70.06638933 154.41374005 -82.18947715 136.18391097 -94.19360352 117.86889648 C-100.08953261 108.88008867 -106.0530521 99.95020545 -112.16748047 91.10864258 C-117.76105739 83.01350677 -123.24756509 74.84470908 -128.75 66.6875 C-129.37208344 65.76543762 -129.99416687 64.84337524 -130.63510132 63.89337158 C-139.59857211 50.60056256 -148.5003385 37.26861481 -157.3125 23.875 C-157.81221313 23.11690033 -158.31192627 22.35880066 -158.82678223 21.57772827 C-160.2166724 19.46765434 -161.60319235 17.35541527 -162.98828125 15.2421875 C-163.39929581 14.61829636 -163.81031036 13.99440521 -164.23377991 13.35160828 C-167 9.11565278 -167 9.11565278 -167 8 C-111.89 8 -56.78 8 0 8 C0 5.36 0 2.72 0 0 Z " fill="#561210" transform="translate(1206,1753)"/>
<path d="M0 0 C0.33 0 0.66 0 1 0 C1.04898437 1.00675781 1.09796875 2.01351563 1.1484375 3.05078125 C1.22370037 4.47136786 1.2992368 5.89193999 1.375 7.3125 C1.42140625 8.28993164 1.42140625 8.28993164 1.46875 9.28710938 C1.85978185 16.42344063 2.66141851 23.51418157 3.42480469 30.61791992 C4.4764335 40.40701549 5.45346096 50.20392219 6.4375 60 C6.54705017 61.08927795 6.65660034 62.17855591 6.76947021 63.30084229 C8.28444865 78.40129409 9.72149688 93.50401059 10.92358398 108.6328125 C11.49148479 115.63249886 12.16450739 122.61088251 12.93406677 129.59144592 C15.33917989 151.40859302 17.27489463 173.26917821 19.26147461 195.12762451 C19.86271111 201.73842219 20.46668721 208.34897002 21.07056332 214.95952702 C21.54063285 220.10538063 22.01024755 225.25127379 22.47816467 230.39732361 C22.56413878 231.34092774 22.6501129 232.28453188 22.73869228 233.25673008 C22.90760111 235.11133273 23.07603471 236.96597872 23.2439661 238.82067013 C23.66590448 243.45501627 24.10515519 248.08684769 24.57272339 252.71682739 C24.66582511 253.65103295 24.75892683 254.58523851 24.85484982 255.54775333 C25.0302568 257.29901591 25.20951561 259.04989956 25.39369297 260.8002615 C25.96653593 266.54955534 26.09585747 272.22397057 26 278 C4.14739784 278.11669836 -17.7051531 278.20492194 -39.55800343 278.25906086 C-49.70422074 278.28486444 -59.85024468 278.32005603 -69.99633789 278.37719727 C-78.83762589 278.42696639 -87.67877387 278.45927533 -96.52019805 278.47044247 C-101.20360656 278.47697228 -105.88661444 278.49236353 -110.56989479 278.52865028 C-114.97515771 278.56250741 -119.37985378 278.57307394 -123.78523445 278.56553841 C-125.40462572 278.56691758 -127.02403533 278.57691154 -128.64331436 278.59602737 C-130.850015 278.62080694 -133.0545591 278.6149634 -135.26130676 278.60127258 C-136.49743115 278.60588155 -137.73355555 278.61049051 -139.00713825 278.61523914 C-142 278 -142 278 -143.95858288 275.6433897 C-145 273 -145 273 -144.40136719 270.10449219 C-142.8987236 266.77563926 -141.3029302 263.54818478 -139.578125 260.328125 C-139.24190125 259.69743103 -138.90567749 259.06673706 -138.55926514 258.41693115 C-137.4606377 256.35886634 -136.35539446 254.30443691 -135.25 252.25 C-134.47617909 250.80359047 -133.7027464 249.35697319 -132.9296875 247.91015625 C-130.62637878 243.60322047 -128.31445465 239.30095436 -126 235 C-125.67717041 234.39986084 -125.35434082 233.79972168 -125.02172852 233.18139648 C-122.45633987 228.41281579 -119.88847697 223.64557578 -117.31591797 218.88085938 C-112.62833606 210.19194366 -107.99827764 201.47321839 -103.375 192.75 C-98.20329841 182.9921426 -92.98386707 173.26499003 -87.66748047 163.58496094 C-82.61792088 154.35957428 -77.722714 145.05315005 -72.81375122 135.75250244 C-67.8181747 126.29023052 -62.77160715 116.86134182 -57.6171875 107.484375 C-52.98870545 99.03676296 -48.49609054 90.51851887 -44 82 C-38.61508809 71.79747554 -33.19092239 61.62237572 -27.63256836 51.51293945 C-22.04900581 41.32368298 -16.64571554 31.03811425 -11.22851562 20.75976562 C-7.55742885 13.79878553 -3.87878166 6.84849254 0 0 Z " fill="#1F0F10" transform="translate(1180,1483)"/>
</svg>
